<svg width="50" height="50" viewBox="0 0 50 50" fill="none" xmlns="http://www.w3.org/2000/svg">
<path d="M47.214 20.7153V20.7136L47.1847 20.6843L30.4847 3.98474L30.4845 3.98449C28.6162 2.12934 26.0887 1.0903 23.4558 1.09496C20.8229 1.09962 18.2992 2.1476 16.4375 4.00935C14.5757 5.87109 13.5277 8.39482 13.5231 11.0277C13.5184 13.6606 14.5574 16.1881 16.4126 18.0564L16.4128 18.0566L33.1128 34.7582C34.979 36.6242 37.5099 37.6726 40.1489 37.6725C42.788 37.6725 45.3189 36.6241 47.1849 34.758C49.051 32.8919 50.0993 30.3609 50.0993 27.7219C50.0992 25.0967 49.0618 22.5785 47.214 20.7153ZM15.0656 11.021L15.0656 11.0208C15.0669 9.36329 15.5594 7.74338 16.4808 6.36561C17.4022 4.98785 18.7112 3.91401 20.2425 3.2797C21.7738 2.6454 23.4587 2.47908 25.0845 2.80174C26.7103 3.12441 28.204 3.9216 29.377 5.09262L37.173 12.8886L25.3168 24.7445L17.5211 16.9484L17.5209 16.9482C16.74 16.1717 16.1209 15.248 15.6994 14.2306C15.278 13.2131 15.0625 12.1222 15.0656 11.021ZM46.0769 33.6484C44.5032 35.2178 42.3715 36.0991 40.149 36.0991C37.9265 36.0991 35.7947 35.2177 34.221 33.6483L26.425 25.8527L38.2804 13.9965L46.0768 21.7921C47.6465 23.3657 48.5279 25.4977 48.5279 27.7203C48.5279 29.9429 47.6465 32.0748 46.0769 33.6484Z" fill="#2D536E" stroke="#2D536E" stroke-width="0.2"/>
<path d="M27.2235 7.24567L27.2234 7.24559L19.7449 7.31638L19.6755 7.24444C19.6753 7.24463 19.6751 7.24482 19.6749 7.24501C19.6003 7.31716 19.5408 7.40341 19.4998 7.49875C19.4587 7.59435 19.4371 7.69717 19.4362 7.80121C19.4352 7.90526 19.455 8.00844 19.4944 8.10475C19.5338 8.20106 19.592 8.28856 19.6655 8.36215C19.7391 8.43574 19.8266 8.49394 19.9229 8.53336C20.0192 8.57278 20.1223 8.59263 20.2264 8.59174C20.3304 8.59086 20.4333 8.56926 20.5289 8.52822C20.6242 8.48729 20.7104 8.42786 20.7826 8.35336C21.4904 7.6477 22.4491 7.25143 23.4486 7.25143C24.4484 7.25143 25.4074 7.64793 26.1153 8.35398C26.1881 8.4267 26.2744 8.48439 26.3695 8.52376C26.4645 8.56314 26.5664 8.58341 26.6694 8.58341C26.7723 8.58341 26.8742 8.56314 26.9692 8.52376C27.0643 8.48438 27.1507 8.42666 27.2235 8.35389C27.2962 8.28112 27.354 8.19474 27.3933 8.09966C27.4327 8.00459 27.453 7.90269 27.453 7.79978C27.453 7.69687 27.4327 7.59497 27.3933 7.4999C27.354 7.40482 27.2962 7.31844 27.2235 7.24567Z" fill="#2D536E" stroke="#2D536E" stroke-width="0.2"/>
<path d="M11.5597 25.6094H11.5596C9.2534 25.6093 6.99899 26.2931 5.08144 27.5742C3.16388 28.8554 1.66931 30.6765 0.786718 32.8071C-0.0958718 34.9377 -0.326838 37.2822 0.123027 39.544C0.572892 41.8059 1.68338 43.8836 3.31407 45.5143C4.94476 47.1451 7.0224 48.2556 9.28426 48.7056C11.5461 49.1555 13.8906 48.9246 16.0212 48.0421C18.1519 47.1596 19.973 45.6651 21.2542 43.7476C22.5355 41.8301 23.2193 39.5757 23.2193 37.2695V37.2694C23.2159 34.1781 21.9864 31.2144 19.8005 29.0284C17.6147 26.8425 14.651 25.6129 11.5597 25.6094ZM11.5595 47.3609L11.4596 47.361V47.362C9.49824 47.3426 7.58422 46.7521 5.95211 45.6617C4.29228 44.5527 2.99858 42.9764 2.23461 41.1322C1.47064 39.2879 1.27071 37.2586 1.6601 35.3007C2.0495 33.3428 3.01073 31.5444 4.42224 30.1328C5.83375 28.7213 7.63215 27.76 9.59 27.3705C11.5479 26.981 13.5772 27.1809 15.4215 27.9448C17.2658 28.7087 18.8421 30.0023 19.9512 31.6621C21.0602 33.3219 21.6521 35.2732 21.6522 37.2694C21.6487 39.945 20.5842 42.5099 18.6922 44.4017C16.8001 46.2935 14.235 47.3577 11.5595 47.3609Z" fill="#2D536E" stroke="#2D536E" stroke-width="0.2"/>
<path d="M15.6198 32.1012L6.39124 41.3297C6.31847 41.4025 6.26075 41.4889 6.22137 41.5839C6.18199 41.679 6.16172 41.7809 6.16172 41.8838C6.16172 41.9867 6.18199 42.0886 6.22137 42.1837C6.26075 42.2788 6.31847 42.3652 6.39124 42.4379C6.46401 42.5107 6.55039 42.5684 6.64547 42.6078C6.74054 42.6472 6.84244 42.6675 6.94535 42.6675C7.04825 42.6675 7.15015 42.6472 7.24523 42.6078C7.3403 42.5684 7.42669 42.5107 7.49946 42.4379L16.728 33.2094C16.8749 33.0625 16.9575 32.8631 16.9575 32.6553C16.9575 32.4475 16.8749 32.2482 16.728 32.1012C16.581 31.9542 16.3817 31.8717 16.1739 31.8717C15.966 31.8717 15.7667 31.9542 15.6198 32.1012Z" fill="#2D536E" stroke="#2D536E" stroke-width="0.2"/>
</svg>
