<svg width="50" height="38" viewBox="0 0 50 38" fill="none" xmlns="http://www.w3.org/2000/svg">
<path d="M49.1445 18.2396H44.9144C46.673 14.2472 46.4829 11.0152 45.8175 8.82892C44.6768 4.93158 40.827 0.701538 35.1236 0.701538C33.6027 0.701538 32.0817 0.986709 30.5133 1.55705C27.8042 2.55515 25.9981 3.64831 25.1901 4.21865C24.3821 3.64831 22.6236 2.55515 19.8669 1.55705C18.2985 0.986709 16.73 0.701538 15.2567 0.701538C9.55323 0.701538 5.70342 4.93158 4.56274 8.82892C3.89734 11.1578 3.6597 14.6749 5.89354 19.0951H0.760456C0.3327 19.0951 0 19.4278 0 19.8555C0 20.2833 0.3327 20.616 0.760456 20.616H6.79658C7.03422 21.0437 7.31939 21.4715 7.65209 21.8993C12.5951 29.0285 23.3365 36.7757 25.2852 37.251V37.2985C25.2852 37.2985 25.3327 37.2985 25.3802 37.251C25.4278 37.251 25.4753 37.251 25.5228 37.251V37.2034C27.1863 36.3955 37.5 29.7415 42.9183 21.8517C43.4411 21.1388 43.8688 20.4259 44.2491 19.7129H49.2395C49.6673 19.7129 50 19.3802 50 18.9525C50 18.5247 49.5722 18.2396 49.1445 18.2396ZM41.5399 21.0437C36.5019 28.4107 27.2338 34.3517 25.2376 35.635C23.1939 34.3517 13.9734 28.3631 8.88783 21.0437C8.79278 20.9012 8.69772 20.7586 8.60266 20.616H15.5894C15.8745 20.616 16.1597 20.4734 16.3023 20.1882L19.4867 13.9145L24.4772 26.6996C24.5722 26.9848 24.9049 27.1749 25.1901 27.1749C25.1901 27.1749 25.1901 27.1749 25.2376 27.1749C25.5703 27.1749 25.8555 26.9373 25.9506 26.6046L30.3232 11.6331L32.6521 19.1901C32.7471 19.4753 32.9848 19.6654 33.27 19.7129C33.5551 19.7605 33.8403 19.6179 34.0304 19.3802L35.884 16.6711L37.4525 19.3327C37.5951 19.5704 37.8327 19.7129 38.1179 19.7129H42.3954C42.1103 20.1882 41.8251 20.616 41.5399 21.0437ZM43.2509 18.2396H38.5932L36.6445 14.9126C36.5019 14.6749 36.2643 14.5323 35.9791 14.5323C35.6939 14.5323 35.4563 14.6274 35.3137 14.865L33.6977 17.2415L31.0837 8.73386C30.9886 8.40116 30.6559 8.21104 30.3232 8.16352C29.9905 8.16352 29.6578 8.40116 29.5627 8.73386L25.1426 23.9905L20.3422 11.7282C20.2471 11.443 19.962 11.2529 19.6768 11.2529C19.3441 11.2529 19.1065 11.3955 18.9639 11.6806L15.2091 19.0475H7.65209C5.75095 15.578 5.22814 12.251 6.08365 9.25667C7.08175 5.88215 10.3612 2.26998 15.3042 2.26998C16.635 2.26998 18.0133 2.55515 19.3916 3.03044C22.8612 4.31371 24.7148 5.78709 24.7624 5.78709C25.0475 6.02473 25.4278 6.02473 25.7129 5.78709C25.7129 5.78709 27.5665 4.31371 31.0837 3.03044C32.462 2.50762 33.8403 2.26998 35.1711 2.26998C40.0665 2.26998 43.3935 5.88215 44.3916 9.25667C45.1996 12.0133 44.7719 15.0552 43.2509 18.2396Z" fill="#2D536E"/>
</svg>
