<svg width="50" height="50" viewBox="0 0 50 50" fill="none" xmlns="http://www.w3.org/2000/svg">
<path d="M31.6552 3.4126C27.0611 3.4126 23.3369 7.13679 23.3369 11.7309C23.3369 16.3249 27.0611 20.0491 31.6552 20.0491C36.2492 20.0491 39.9734 16.3249 39.9734 11.7309C39.9683 7.13897 36.2471 3.41769 31.6552 3.4126ZM31.6552 18.3855C27.98 18.3855 25.0006 15.4061 25.0006 11.7309C25.0006 8.05564 27.98 5.07625 31.6552 5.07625C35.3304 5.07625 38.3098 8.05564 38.3098 11.7309C38.3056 15.4044 35.3287 18.3814 31.6552 18.3855Z" fill="#2D536E"/>
<path d="M49.7111 25.2838L41.8212 17.3939C44.9718 11.7605 42.959 4.6395 37.3256 1.48896C31.692 -1.66168 24.5711 0.35113 21.4206 5.98457C18.27 11.618 20.2827 18.7389 25.9162 21.8895C29.835 24.0811 34.6629 23.834 38.3375 21.2536L46.0394 28.9554C46.3642 29.2802 46.8907 29.2802 47.2156 28.9554L49.7111 26.46C50.0358 26.1351 50.0358 25.6086 49.7111 25.2838ZM31.6546 21.7127C26.1442 21.7068 21.6786 17.2412 21.6727 11.7308C21.6727 6.218 26.1418 1.74891 31.6546 1.74891C37.1674 1.74891 41.6365 6.218 41.6365 11.7308C41.6365 17.2436 37.1674 21.7127 31.6546 21.7127ZM46.6275 27.1911L39.6302 20.1938C40.0835 19.7654 40.5021 19.3018 40.8821 18.8072L47.9467 25.8719L46.6275 27.1911Z" fill="#2D536E"/>
<path d="M37.4573 23.3572C36.8297 25.6767 35.8636 27.891 34.59 29.9286L34.2772 30.4277C34.2281 30.5067 34.1923 30.5932 34.1715 30.6839L30.5489 46.6167C30.2808 47.8023 29.1022 48.546 27.9165 48.2778C27.0438 48.0805 26.3775 47.3744 26.2309 46.4919L23.7355 31.524C23.3919 29.4664 21.4453 28.0767 19.3876 28.4204C17.7964 28.686 16.5496 29.9328 16.284 31.524L13.7885 46.4919C13.5892 47.6911 12.4556 48.5016 11.2564 48.3022C10.3738 48.1555 9.66783 47.4892 9.47048 46.6167L5.84788 30.678C5.82709 30.5874 5.79132 30.5009 5.74224 30.4218L5.42948 29.9228C2.99659 26.0334 1.70747 21.538 1.70955 16.9504C1.71007 11.3108 6.28241 6.73937 11.922 6.73989C13.3041 6.73999 14.6717 7.02073 15.9421 7.56496C16.8542 7.95602 17.818 8.21347 18.8036 8.3294L18.9974 6.6774C18.1713 6.58028 17.3636 6.36422 16.5992 6.03606C10.5718 3.45189 3.59083 6.24319 1.00666 12.2706C0.372704 13.7494 0.0457962 15.3415 0.0459001 16.9504C0.0441325 21.8495 1.42091 26.6501 4.0187 30.8037L4.2566 31.1846L7.84842 46.9893C8.32059 49.0708 10.3908 50.3755 12.4723 49.9033C14.0034 49.556 15.1722 48.3169 15.4297 46.768L17.9252 31.8002C18.1182 30.6484 19.2085 29.8714 20.3602 30.0645C21.2498 30.2137 21.9467 30.9106 22.0959 31.8002L24.5914 46.768C24.9414 48.8735 26.932 50.2966 29.0374 49.9467C30.5862 49.6892 31.8253 48.5204 32.1727 46.9893L35.7645 31.1846L36.0024 30.8037C37.361 28.6292 38.3923 26.2668 39.0635 23.7922L37.4573 23.3572Z" fill="#2D536E"/>
<path d="M9.19604 10.8991L9.02967 10.0839C7.36602 10.4174 4.20508 12.2341 4.20508 16.7218H5.86873C5.86873 12.5045 9.22099 11.7442 9.3624 11.7134L9.19604 10.8991Z" fill="#2D536E"/>
<path d="M12.523 10.0673H10.8594V11.7309H12.523V10.0673Z" fill="#2D536E"/>
<path d="M31.8972 6.98089L27.3223 11.5558L28.4986 12.7322L33.0735 8.15726L31.8972 6.98089Z" fill="#2D536E"/>
<path d="M35.2248 9.47993L29.4023 15.3024L30.5787 16.4787L36.4012 10.6563L35.2248 9.47993Z" fill="#2D536E"/>
</svg>
