<svg width="50" height="50" viewBox="0 0 50 50" fill="none" xmlns="http://www.w3.org/2000/svg">
<g clip-path="url(#clip0)">
<path d="M49.1667 25.8335H34.6083C34.3169 25.8336 34.0468 25.9859 33.8958 26.2351C33.7449 26.4844 33.7351 26.7944 33.87 27.0527C36.0604 31.2601 34.9935 36.4275 31.3158 39.4234C27.6382 42.4193 22.3618 42.4193 18.6842 39.4234C15.0065 36.4275 13.9396 31.2601 16.13 27.0527C16.2649 26.7944 16.2551 26.4844 16.1042 26.2351C15.9532 25.9859 15.6831 25.8336 15.3917 25.8335H0.833333C0.373096 25.8335 0 26.2066 0 26.6668C0 27.1271 0.373096 27.5002 0.833333 27.5002H14.1042C12.2447 32.3585 13.8263 37.8609 17.9818 40.9902C22.1374 44.1195 27.8626 44.1195 32.0182 40.9902C36.1737 37.8609 37.7553 32.3585 35.8958 27.5002H49.1667C49.6269 27.5002 50 27.1271 50 26.6668C50 26.2066 49.6269 25.8335 49.1667 25.8335Z" fill="#2D536E"/>
<path d="M29.8067 4.12925C27.335 6.99342 24.0692 12.2368 22.5467 20.9551C22.1334 23.0487 21.1051 24.9714 19.5933 26.4776C16.87 29.3135 16.799 33.7712 19.4307 36.6923C22.0623 39.6135 26.5032 40.0066 29.6069 37.593C32.7107 35.1794 33.4237 30.7786 31.2408 27.5084C29.5226 25.0839 28.7549 22.1127 29.0833 19.1593C29.5768 14.5974 30.7538 10.1358 32.575 5.92425C32.9222 5.17174 32.6638 4.2784 31.9684 3.82751C31.273 3.37662 30.352 3.50518 29.8067 4.12925ZM27.435 18.9418C27.0672 22.2937 27.9256 25.6655 29.8517 28.4334C31.5494 30.9767 30.995 34.3994 28.5812 36.2767C26.1674 38.154 22.7136 37.8488 20.6666 35.5771C18.6195 33.3055 18.6741 29.8386 20.7917 27.6326C22.5342 25.8879 23.7161 23.6625 24.1858 21.2418C25.645 12.8984 28.7333 7.92258 31.0658 5.21758C29.1728 9.58388 27.9488 14.2106 27.435 18.9418Z" fill="#2D536E"/>
<path d="M4.99935 32.4999C5.45959 32.4999 5.83268 32.1268 5.83268 31.6666C5.83268 31.2063 5.45959 30.8333 4.99935 30.8333C4.53911 30.8333 4.16602 31.2063 4.16602 31.6666C4.16602 32.1268 4.53911 32.4999 4.99935 32.4999Z" fill="#2D536E"/>
<path d="M10.0003 32.4999C10.4606 32.4999 10.8337 32.1268 10.8337 31.6666C10.8337 31.2063 10.4606 30.8333 10.0003 30.8333C9.54009 30.8333 9.16699 31.2063 9.16699 31.6666C9.16699 32.1268 9.54009 32.4999 10.0003 32.4999Z" fill="#2D536E"/>
<path d="M2.50033 35.8334C2.96056 35.8334 3.33366 35.4603 3.33366 35.0001C3.33366 34.5398 2.96056 34.1667 2.50033 34.1667C2.04009 34.1667 1.66699 34.5398 1.66699 35.0001C1.66699 35.4603 2.04009 35.8334 2.50033 35.8334Z" fill="#2D536E"/>
<path d="M7.50033 35.8334C7.96056 35.8334 8.33366 35.4603 8.33366 35.0001C8.33366 34.5398 7.96056 34.1667 7.50033 34.1667C7.04009 34.1667 6.66699 34.5398 6.66699 35.0001C6.66699 35.4603 7.04009 35.8334 7.50033 35.8334Z" fill="#2D536E"/>
<path d="M4.99935 39.1667C5.45959 39.1667 5.83268 38.7936 5.83268 38.3333C5.83268 37.8731 5.45959 37.5 4.99935 37.5C4.53911 37.5 4.16602 37.8731 4.16602 38.3333C4.16602 38.7936 4.53911 39.1667 4.99935 39.1667Z" fill="#2D536E"/>
<path d="M10.0003 39.1667C10.4606 39.1667 10.8337 38.7936 10.8337 38.3333C10.8337 37.8731 10.4606 37.5 10.0003 37.5C9.54009 37.5 9.16699 37.8731 9.16699 38.3333C9.16699 38.7936 9.54009 39.1667 10.0003 39.1667Z" fill="#2D536E"/>
<path d="M2.50033 42.5002C2.96056 42.5002 3.33366 42.1271 3.33366 41.6668C3.33366 41.2066 2.96056 40.8335 2.50033 40.8335C2.04009 40.8335 1.66699 41.2066 1.66699 41.6668C1.66699 42.1271 2.04009 42.5002 2.50033 42.5002Z" fill="#2D536E"/>
<path d="M7.50033 42.5002C7.96056 42.5002 8.33366 42.1271 8.33366 41.6668C8.33366 41.2066 7.96056 40.8335 7.50033 40.8335C7.04009 40.8335 6.66699 41.2066 6.66699 41.6668C6.66699 42.1271 7.04009 42.5002 7.50033 42.5002Z" fill="#2D536E"/>
<path d="M12.5003 42.5002C12.9606 42.5002 13.3337 42.1271 13.3337 41.6668C13.3337 41.2066 12.9606 40.8335 12.5003 40.8335C12.0401 40.8335 11.667 41.2066 11.667 41.6668C11.667 42.1271 12.0401 42.5002 12.5003 42.5002Z" fill="#2D536E"/>
<path d="M4.99935 45.8334C5.45959 45.8334 5.83268 45.4603 5.83268 45.0001C5.83268 44.5398 5.45959 44.1667 4.99935 44.1667C4.53911 44.1667 4.16602 44.5398 4.16602 45.0001C4.16602 45.4603 4.53911 45.8334 4.99935 45.8334Z" fill="#2D536E"/>
<path d="M10.0003 45.8334C10.4606 45.8334 10.8337 45.4603 10.8337 45.0001C10.8337 44.5398 10.4606 44.1667 10.0003 44.1667C9.54009 44.1667 9.16699 44.5398 9.16699 45.0001C9.16699 45.4603 9.54009 45.8334 10.0003 45.8334Z" fill="#2D536E"/>
<path d="M15.0003 45.8334C15.4606 45.8334 15.8337 45.4603 15.8337 45.0001C15.8337 44.5398 15.4606 44.1667 15.0003 44.1667C14.5401 44.1667 14.167 44.5398 14.167 45.0001C14.167 45.4603 14.5401 45.8334 15.0003 45.8334Z" fill="#2D536E"/>
<path d="M20.0003 45.8334C20.4606 45.8334 20.8337 45.4603 20.8337 45.0001C20.8337 44.5398 20.4606 44.1667 20.0003 44.1667C19.5401 44.1667 19.167 44.5398 19.167 45.0001C19.167 45.4603 19.5401 45.8334 20.0003 45.8334Z" fill="#2D536E"/>
<path d="M25.0003 45.8334C25.4606 45.8334 25.8336 45.4603 25.8336 45.0001C25.8336 44.5398 25.4606 44.1667 25.0003 44.1667C24.5401 44.1667 24.167 44.5398 24.167 45.0001C24.167 45.4603 24.5401 45.8334 25.0003 45.8334Z" fill="#2D536E"/>
<path d="M45.0003 32.4999C45.4606 32.4999 45.8336 32.1268 45.8336 31.6666C45.8336 31.2063 45.4606 30.8333 45.0003 30.8333C44.5401 30.8333 44.167 31.2063 44.167 31.6666C44.167 32.1268 44.5401 32.4999 45.0003 32.4999Z" fill="#2D536E"/>
<path d="M40.0003 32.4999C40.4606 32.4999 40.8336 32.1268 40.8336 31.6666C40.8336 31.2063 40.4606 30.8333 40.0003 30.8333C39.5401 30.8333 39.167 31.2063 39.167 31.6666C39.167 32.1268 39.5401 32.4999 40.0003 32.4999Z" fill="#2D536E"/>
<path d="M47.4993 35.8334C47.9596 35.8334 48.3327 35.4603 48.3327 35.0001C48.3327 34.5398 47.9596 34.1667 47.4993 34.1667C47.0391 34.1667 46.666 34.5398 46.666 35.0001C46.666 35.4603 47.0391 35.8334 47.4993 35.8334Z" fill="#2D536E"/>
<path d="M42.4993 35.8334C42.9596 35.8334 43.3327 35.4603 43.3327 35.0001C43.3327 34.5398 42.9596 34.1667 42.4993 34.1667C42.0391 34.1667 41.666 34.5398 41.666 35.0001C41.666 35.4603 42.0391 35.8334 42.4993 35.8334Z" fill="#2D536E"/>
<path d="M45.0003 39.1667C45.4606 39.1667 45.8336 38.7936 45.8336 38.3333C45.8336 37.8731 45.4606 37.5 45.0003 37.5C44.5401 37.5 44.167 37.8731 44.167 38.3333C44.167 38.7936 44.5401 39.1667 45.0003 39.1667Z" fill="#2D536E"/>
<path d="M40.0003 39.1667C40.4606 39.1667 40.8336 38.7936 40.8336 38.3333C40.8336 37.8731 40.4606 37.5 40.0003 37.5C39.5401 37.5 39.167 37.8731 39.167 38.3333C39.167 38.7936 39.5401 39.1667 40.0003 39.1667Z" fill="#2D536E"/>
<path d="M47.4993 42.5002C47.9596 42.5002 48.3327 42.1271 48.3327 41.6668C48.3327 41.2066 47.9596 40.8335 47.4993 40.8335C47.0391 40.8335 46.666 41.2066 46.666 41.6668C46.666 42.1271 47.0391 42.5002 47.4993 42.5002Z" fill="#2D536E"/>
<path d="M42.4993 42.5002C42.9596 42.5002 43.3327 42.1271 43.3327 41.6668C43.3327 41.2066 42.9596 40.8335 42.4993 40.8335C42.0391 40.8335 41.666 41.2066 41.666 41.6668C41.666 42.1271 42.0391 42.5002 42.4993 42.5002Z" fill="#2D536E"/>
<path d="M37.5003 42.5002C37.9606 42.5002 38.3336 42.1271 38.3336 41.6668C38.3336 41.2066 37.9606 40.8335 37.5003 40.8335C37.0401 40.8335 36.667 41.2066 36.667 41.6668C36.667 42.1271 37.0401 42.5002 37.5003 42.5002Z" fill="#2D536E"/>
<path d="M45.0003 45.8334C45.4606 45.8334 45.8336 45.4603 45.8336 45.0001C45.8336 44.5398 45.4606 44.1667 45.0003 44.1667C44.5401 44.1667 44.167 44.5398 44.167 45.0001C44.167 45.4603 44.5401 45.8334 45.0003 45.8334Z" fill="#2D536E"/>
<path d="M40.0003 45.8334C40.4606 45.8334 40.8336 45.4603 40.8336 45.0001C40.8336 44.5398 40.4606 44.1667 40.0003 44.1667C39.5401 44.1667 39.167 44.5398 39.167 45.0001C39.167 45.4603 39.5401 45.8334 40.0003 45.8334Z" fill="#2D536E"/>
<path d="M34.9993 45.8334C35.4596 45.8334 35.8327 45.4603 35.8327 45.0001C35.8327 44.5398 35.4596 44.1667 34.9993 44.1667C34.5391 44.1667 34.166 44.5398 34.166 45.0001C34.166 45.4603 34.5391 45.8334 34.9993 45.8334Z" fill="#2D536E"/>
<path d="M29.9993 45.8334C30.4596 45.8334 30.8327 45.4603 30.8327 45.0001C30.8327 44.5398 30.4596 44.1667 29.9993 44.1667C29.5391 44.1667 29.166 44.5398 29.166 45.0001C29.166 45.4603 29.5391 45.8334 29.9993 45.8334Z" fill="#2D536E"/>
<path d="M2.50033 49.1667C2.96056 49.1667 3.33366 48.7936 3.33366 48.3333C3.33366 47.8731 2.96056 47.5 2.50033 47.5C2.04009 47.5 1.66699 47.8731 1.66699 48.3333C1.66699 48.7936 2.04009 49.1667 2.50033 49.1667Z" fill="#2D536E"/>
<path d="M7.50033 49.1667C7.96056 49.1667 8.33366 48.7936 8.33366 48.3333C8.33366 47.8731 7.96056 47.5 7.50033 47.5C7.04009 47.5 6.66699 47.8731 6.66699 48.3333C6.66699 48.7936 7.04009 49.1667 7.50033 49.1667Z" fill="#2D536E"/>
<path d="M12.5003 49.1667C12.9606 49.1667 13.3337 48.7936 13.3337 48.3333C13.3337 47.8731 12.9606 47.5 12.5003 47.5C12.0401 47.5 11.667 47.8731 11.667 48.3333C11.667 48.7936 12.0401 49.1667 12.5003 49.1667Z" fill="#2D536E"/>
<path d="M17.4993 49.1667C17.9596 49.1667 18.3327 48.7936 18.3327 48.3333C18.3327 47.8731 17.9596 47.5 17.4993 47.5C17.0391 47.5 16.666 47.8731 16.666 48.3333C16.666 48.7936 17.0391 49.1667 17.4993 49.1667Z" fill="#2D536E"/>
<path d="M22.5003 49.1667C22.9606 49.1667 23.3337 48.7936 23.3337 48.3333C23.3337 47.8731 22.9606 47.5 22.5003 47.5C22.0401 47.5 21.667 47.8731 21.667 48.3333C21.667 48.7936 22.0401 49.1667 22.5003 49.1667Z" fill="#2D536E"/>
<path d="M42.4993 49.1667C42.9596 49.1667 43.3327 48.7936 43.3327 48.3333C43.3327 47.8731 42.9596 47.5 42.4993 47.5C42.0391 47.5 41.666 47.8731 41.666 48.3333C41.666 48.7936 42.0391 49.1667 42.4993 49.1667Z" fill="#2D536E"/>
<path d="M47.4993 49.1667C47.9596 49.1667 48.3327 48.7936 48.3327 48.3333C48.3327 47.8731 47.9596 47.5 47.4993 47.5C47.0391 47.5 46.666 47.8731 46.666 48.3333C46.666 48.7936 47.0391 49.1667 47.4993 49.1667Z" fill="#2D536E"/>
<path d="M37.5003 49.1667C37.9606 49.1667 38.3336 48.7936 38.3336 48.3333C38.3336 47.8731 37.9606 47.5 37.5003 47.5C37.0401 47.5 36.667 47.8731 36.667 48.3333C36.667 48.7936 37.0401 49.1667 37.5003 49.1667Z" fill="#2D536E"/>
<path d="M32.5003 49.1667C32.9606 49.1667 33.3336 48.7936 33.3336 48.3333C33.3336 47.8731 32.9606 47.5 32.5003 47.5C32.0401 47.5 31.667 47.8731 31.667 48.3333C31.667 48.7936 32.0401 49.1667 32.5003 49.1667Z" fill="#2D536E"/>
<path d="M27.5003 49.1667C27.9606 49.1667 28.3336 48.7936 28.3336 48.3333C28.3336 47.8731 27.9606 47.5 27.5003 47.5C27.0401 47.5 26.667 47.8731 26.667 48.3333C26.667 48.7936 27.0401 49.1667 27.5003 49.1667Z" fill="#2D536E"/>
<path d="M9.85469 1.94756C7.88719 4.5059 4.21136 10.5759 4.21136 13.6867C4.18218 16.5265 5.68046 19.1632 8.13505 20.5916C10.5896 22.0199 13.6222 22.0199 16.0768 20.5916C18.5314 19.1632 20.0297 16.5265 20.0005 13.6867C20.0005 10.5759 16.3247 4.5059 14.3572 1.94756C13.8211 1.2461 12.9888 0.834595 12.1059 0.834595C11.2231 0.834595 10.3907 1.2461 9.85469 1.94756ZM12.1055 20.0001C8.64408 19.9726 5.85815 17.1482 5.87802 13.6867C5.87802 11.3101 8.96136 5.84007 11.1764 2.9634C11.3969 2.67255 11.7409 2.5017 12.1059 2.5017C12.471 2.5017 12.815 2.67255 13.0355 2.9634C15.2505 5.84007 18.3339 11.3101 18.3339 13.6867C18.3533 17.1484 15.5671 19.9726 12.1055 20.0001Z" fill="#2D536E"/>
<path d="M11.3002 16.0518C10.5796 15.9447 9.94982 15.5086 9.59606 14.8718C9.31662 13.9595 9.39929 12.9747 9.8269 12.1218C10.0099 11.7126 9.83651 11.2319 9.43438 11.0339C9.03224 10.8359 8.54549 10.9914 8.33273 11.3859C8.28606 11.4784 7.21606 13.6876 8.08273 15.5643C8.63736 16.6667 9.67705 17.4451 10.8911 17.6668C11.1797 17.7399 11.4854 17.6534 11.693 17.44C11.9007 17.2266 11.9786 16.9186 11.8976 16.6321C11.8166 16.3456 11.5889 16.124 11.3002 16.0509V16.0518Z" fill="#2D536E"/>
<path d="M36.911 15.5892C37.2364 15.9145 37.7639 15.9145 38.0893 15.5892L38.9226 14.7559C39.2385 14.4289 39.2339 13.9091 38.9125 13.5877C38.591 13.2663 38.0713 13.2617 37.7443 13.5776L36.911 14.4109C36.5857 14.7363 36.5857 15.2638 36.911 15.5892Z" fill="#2D536E"/>
<path d="M33.577 17.7442L32.7437 18.5775C32.4279 18.9045 32.4324 19.4243 32.7538 19.7457C33.0753 20.0671 33.595 20.0717 33.922 19.7559L34.7553 18.9225C35.0712 18.5955 35.0666 18.0758 34.7452 17.7543C34.4238 17.4329 33.904 17.4284 33.577 17.7442Z" fill="#2D536E"/>
<path d="M36.9107 18.9225C37.794 19.8067 37.8999 20 38.3332 20C38.6702 19.9999 38.974 19.7969 39.1029 19.4856C39.2319 19.1742 39.1606 18.8158 38.9224 18.5775L38.089 17.7442C37.762 17.4284 37.2423 17.4329 36.9208 17.7543C36.5994 18.0758 36.5949 18.5955 36.9107 18.9225Z" fill="#2D536E"/>
<path d="M34.7553 14.4109L33.922 13.5776C33.595 13.2617 33.0753 13.2663 32.7538 13.5877C32.4324 13.9092 32.4279 14.4289 32.7437 14.7559L33.577 15.5892C33.904 15.905 34.4238 15.9005 34.7452 15.5791C35.0666 15.2576 35.0712 14.7379 34.7553 14.4109Z" fill="#2D536E"/>
<path d="M42.5002 6.66675C42.9418 6.66675 43.0627 6.44925 43.9227 5.58925C44.1393 5.38002 44.2262 5.07019 44.1499 4.77883C44.0737 4.48747 43.8461 4.25994 43.5548 4.18367C43.2634 4.10741 42.9536 4.19429 42.7443 4.41092L41.911 5.24425C41.6727 5.48258 41.6015 5.84095 41.7304 6.1523C41.8594 6.46365 42.1632 6.66668 42.5002 6.66675Z" fill="#2D536E"/>
<path d="M37.744 10.5892C38.0694 10.9145 38.5969 10.9145 38.9223 10.5892L39.7557 9.75589C40.0715 9.42891 40.0669 8.90915 39.7455 8.58771C39.4241 8.26626 38.9043 8.26174 38.5773 8.57755L37.744 9.41089C37.4187 9.73631 37.4187 10.2638 37.744 10.5892Z" fill="#2D536E"/>
<path d="M41.9107 9.75589C42.794 10.6401 42.8999 10.8334 43.3332 10.8334C43.6702 10.8333 43.974 10.6303 44.1029 10.3189C44.2319 10.0076 44.1606 9.64922 43.9224 9.41089L43.089 8.57755C42.762 8.26174 42.2423 8.26626 41.9208 8.58771C41.5994 8.90915 41.5949 9.42891 41.9107 9.75589Z" fill="#2D536E"/>
<path d="M38.578 6.4226C38.905 6.73841 39.4247 6.73389 39.7462 6.41245C40.0676 6.091 40.0721 5.57125 39.7563 5.24426L38.923 4.41093C38.596 4.09512 38.0763 4.09963 37.7548 4.42108C37.4334 4.74253 37.4289 5.26228 37.7447 5.58926L38.578 6.4226Z" fill="#2D536E"/>
</g>
<defs>
<clipPath id="clip0">
<rect width="50" height="50" fill="white"/>
</clipPath>
</defs>
</svg>
