<svg width="50" height="50" viewBox="0 0 50 50" fill="none" xmlns="http://www.w3.org/2000/svg">
<path d="M45.5104 10.9322L45.6117 10.8309C45.9263 10.5162 45.9263 10.0062 45.6117 9.6917C45.2973 9.37725 44.7872 9.37725 44.4727 9.6917L32.9795 21.1847C32.5338 21.6304 32.4575 22.3151 32.7941 22.8502C33.7096 24.3048 33.4348 26.1886 32.1405 27.3296C31.9597 27.489 31.7654 27.6257 31.5622 27.741C31.5515 27.7468 31.5407 27.7527 31.5303 27.7591C30.279 28.4522 28.6826 28.3193 27.5645 27.3543C26.963 26.8353 26.5653 26.1527 26.4142 25.3805C26.4139 25.3786 26.4132 25.3769 26.4129 25.375C26.4126 25.3736 26.4126 25.3722 26.4122 25.3708L26.1023 23.884C26.0117 23.4484 25.5849 23.1684 25.1495 23.2598C24.7704 23.3387 24.5099 23.6722 24.5085 24.0444C24.0871 23.8389 23.7091 23.549 23.3924 23.1821C22.3263 21.9467 22.348 19.7968 23.4391 18.5813C24.5806 17.3098 26.4554 17.0452 27.8964 17.9522C28.4312 18.2893 29.116 18.213 29.562 17.7672L41.1922 6.1373C41.5067 5.82266 41.5067 5.3127 41.1922 4.99814C40.8776 4.68369 40.3676 4.68369 40.0531 4.99814L39.9862 5.06504C35.7023 1.79453 30.4088 0 25.0006 0C18.4025 0 12.1993 2.56943 7.53379 7.23496C2.86826 11.9006 0.298828 18.1036 0.298828 24.7018C0.298828 30.7217 2.48916 36.5212 6.46611 41.0317C10.246 45.3188 15.3749 48.156 20.9731 49.0754V49.1945C20.9731 49.6395 21.3338 50 21.7786 50C22.2234 50 22.5841 49.6395 22.5841 49.1945V48.5661C22.5896 48.542 22.594 48.5174 22.5975 48.4923C22.6105 48.3946 22.6047 48.2989 22.5841 48.2082V33.7086C22.5841 33.0784 22.1538 32.5402 21.5375 32.3998C19.8614 32.0187 18.7237 30.492 18.8323 28.7699C18.9412 27.0422 20.3247 25.6437 22.0506 25.5169C22.8432 25.4592 23.6068 25.6601 24.2595 26.0992C24.4736 26.2434 24.7318 26.2701 24.9596 26.1957C25.2385 27.1172 25.7681 27.932 26.5118 28.5738C27.4627 29.3945 28.6502 29.8042 29.8374 29.8042C30.2675 29.8042 30.6972 29.7494 31.1159 29.642C30.8663 30.9862 29.8493 32.0847 28.4634 32.3999C27.8474 32.5401 27.4171 33.0782 27.4171 33.7086V49.1943C27.4171 49.6393 27.7777 49.9998 28.2226 49.9998C28.6674 49.9998 29.028 49.6393 29.028 49.1943V49.0753C34.6298 48.1553 39.7615 45.3148 43.5418 41.0239C47.5145 36.5145 49.7023 30.7178 49.7023 24.7017C49.7024 19.7546 48.2546 15.0092 45.5104 10.9322ZM22.2403 17.5057C20.7083 19.2122 20.5951 22.0518 21.9203 23.9118C19.4014 24.1029 17.3837 26.1457 17.2246 28.6688C17.0706 31.1123 18.6365 33.2867 20.9731 33.9193V47.4416C10.0407 45.5178 1.90977 35.9057 1.90977 24.7018C1.90977 11.9693 12.2683 1.61094 25.0006 1.61094C29.984 1.61094 34.8631 3.24072 38.8361 6.21484L28.5718 16.4793C26.4908 15.2862 23.8597 15.7016 22.2403 17.5057ZM29.028 47.4414V33.9192C31.3005 33.3038 32.8434 31.2304 32.785 28.8698C32.9295 28.7674 33.0704 28.6574 33.2058 28.5381C35.0422 26.9192 35.4722 24.2744 34.2675 22.175L44.3486 12.0939C46.8001 15.8446 48.0915 20.183 48.0915 24.7018C48.0914 35.9022 39.9592 45.5176 29.028 47.4414Z" fill="#2D536E"/>
</svg>
