<svg width="49" height="48" viewBox="0 0 49 48" fill="none" xmlns="http://www.w3.org/2000/svg">
<path d="M46.8124 35.25C46.1556 36.1212 45.3059 36.8285 44.33 37.3165C43.3541 37.8044 42.2785 38.0598 41.1874 38.0625H38.0624C37.9529 38.0625 37.8446 38.0855 37.7446 38.1301C37.6445 38.1746 37.555 38.2397 37.4817 38.3211L34.7188 41.3911L35.8801 42.436L38.4104 39.625H41.1874C42.521 39.6217 43.8357 39.3097 45.0284 38.7133C46.2212 38.1169 47.2597 37.2524 48.0624 36.1875L46.8124 35.25Z" fill="#2D536E"/>
<path d="M31.4171 45.0595C31.1918 45.3103 30.9173 45.5122 30.6107 45.6525C30.3041 45.7928 29.9719 45.8685 29.6348 45.875C28.2549 45.9011 27.1255 44.735 27.1255 43.3548V43.313C27.1255 42.9896 27.1892 42.6693 27.313 42.3705C27.4367 42.0717 27.6182 41.8002 27.8469 41.5715L27.8674 41.551L34.7092 34.7092L33.6043 33.6043L26.762 40.4466C26.4677 40.7407 26.1056 40.958 25.7076 41.0791C25.3096 41.2003 24.8878 41.2216 24.4796 41.1413C24.137 41.0765 23.8123 40.9391 23.5273 40.7383C23.2227 40.5268 22.9682 40.251 22.7818 39.9304C22.5953 39.6099 22.4815 39.2523 22.4482 38.883C22.415 38.5136 22.4631 38.1415 22.5893 37.7928C22.7155 37.4441 22.9167 37.1273 23.1786 36.8647L30.0217 30.0217L28.9168 28.9168L22.0371 35.7954C21.586 36.2465 20.9742 36.5 20.3362 36.5C19.6789 36.5066 19.0435 36.2642 18.5576 35.8215C18.1196 35.4147 17.8399 34.8659 17.7682 34.2725C17.6966 33.679 17.8375 33.0794 18.1661 32.5801L23.8624 27.034C24.1649 27.0945 24.4727 27.125 24.7812 27.125H33.8055L35.1511 28.6387C36.6939 30.3731 38.5862 31.7614 40.7038 32.7124C42.8214 33.6633 45.1162 34.1554 47.4375 34.1562V32.5938C45.3368 32.593 43.2601 32.1477 41.3438 31.2871C39.4275 30.4266 37.715 29.1702 36.3188 27.6007L34.7401 25.8247C34.6668 25.7423 34.5769 25.6763 34.4763 25.6311C34.3756 25.5859 34.2666 25.5625 34.1562 25.5625H24.8435C23.0954 25.5625 21.627 24.1317 21.6567 22.3836C21.6718 21.5646 22.0075 20.7841 22.5917 20.2099C23.1759 19.6356 23.9621 19.3134 24.7812 19.3125H39.625V17.75H33.3968L39.0134 12.2812H47.4375V10.7187H40.6181L43.8603 7.56201C45.4237 6.03965 45.4783 3.37783 43.9538 1.80185C43.3913 1.23884 42.6786 0.849661 41.9008 0.680803C41.1231 0.511944 40.3131 0.570546 39.5678 0.849609C37.9203 1.49697 36.9018 3.10996 35.584 4.29687L36.5729 5.49414C37.3248 4.94053 37.8795 4.1668 38.5225 3.48955C39.1654 2.8123 39.9696 2.19785 40.9024 2.13086C41.3072 2.10846 41.7113 2.18592 42.0792 2.35641C42.447 2.52691 42.7673 2.78522 43.0118 3.10859C43.3793 3.60033 43.5571 4.20807 43.5127 4.82033C43.4683 5.43258 43.2047 6.00831 42.7701 6.44189L31.1571 17.75H24.7812C24.6202 17.75 24.4592 17.7582 24.2989 17.7747L35.401 6.67266L34.2961 5.56777L29.1451 10.7187H23.3301C22.2011 10.7156 21.0827 10.9365 20.0396 11.3685C18.9965 11.8005 18.0494 12.4351 17.2532 13.2355L15.6933 14.7956L16.798 15.9006L18.3576 14.3409C19.6764 13.0221 21.465 12.2813 23.3301 12.2812H27.5826L21.8851 17.9788L13.3325 26.5313C13.0905 26.7784 12.8017 26.9748 12.4831 27.1092C12.1644 27.2437 11.8222 27.3134 11.4764 27.3144C11.0893 27.3115 10.7081 27.2197 10.3622 27.0461C10.0163 26.8725 9.71488 26.6218 9.48125 26.3132C9.21549 25.9666 9.04579 25.5561 8.98926 25.123C8.93612 24.7361 8.97343 24.342 9.09826 23.9719C9.22309 23.6018 9.43204 23.2656 9.70869 22.9898L15.4062 17.2921L14.3018 16.1875L8.60381 21.8851C8.06 22.4286 7.68018 23.1142 7.50782 23.8635C7.33547 24.6128 7.37753 25.3954 7.62921 26.1219C7.88088 26.8484 8.332 27.4894 8.93093 27.9715C9.52987 28.4536 10.2524 28.7573 11.0159 28.8479L0.791309 39.0726C0.718764 39.1451 0.661219 39.2312 0.62196 39.326C0.582701 39.4208 0.562496 39.5224 0.5625 39.625V46.6562C0.562499 46.8631 0.644501 47.0614 0.790528 47.2079C0.936556 47.3543 1.13469 47.4369 1.3415 47.4375C3.17906 47.4428 4.99942 47.0835 6.69716 46.3804C8.39491 45.6774 9.93631 44.6445 11.2321 43.3416L15.1774 39.3963C15.25 39.3237 15.3075 39.2376 15.3468 39.1428C15.3861 39.048 15.4063 38.9464 15.4062 38.8438V35.2672L16.2197 34.4751C16.3433 35.4656 16.8245 36.3769 17.5728 37.0375C18.3211 37.6981 19.285 38.0627 20.2832 38.0625H20.919C20.8338 38.6442 20.8749 39.2373 21.0394 39.8017C21.204 40.3661 21.4881 40.8884 21.8725 41.3331C22.2569 41.7779 22.7326 42.1346 23.2672 42.3791C23.8018 42.6236 24.3828 42.7501 24.9707 42.75C25.1845 42.7498 25.3979 42.7329 25.609 42.6993C25.5781 42.9022 25.5625 43.1072 25.5625 43.3125V43.3359C25.5625 45.5441 27.309 47.3993 29.5169 47.4367C30.0927 47.4469 30.6639 47.3333 31.192 47.1036C31.72 46.8739 32.1926 46.5335 32.5777 46.1054L34.9478 43.4721L33.7864 42.4272L31.4171 45.0595ZM14.08 34.3778C14.0052 34.4506 13.9458 34.5376 13.9052 34.6338C13.8647 34.7299 13.8438 34.8332 13.8438 34.9375V38.5202L10.1272 42.2366C7.99368 44.3825 5.14554 45.6689 2.125 45.851V39.9485L20.1185 21.9552C20.029 22.8231 20.1836 23.6987 20.5649 24.4834C20.9462 25.2682 21.539 25.9309 22.2767 26.3969L14.08 34.3778Z" fill="#2D536E"/>
<path d="M36.2718 7.82251L35.167 8.92737L36.7295 10.4898L37.8343 9.38499L36.2718 7.82251Z" fill="#2D536E"/>
<path d="M33.9281 10.1663L32.8232 11.2711L34.3857 12.8336L35.4906 11.7287L33.9281 10.1663Z" fill="#2D536E"/>
<path d="M38.6156 5.47876L37.5107 6.58362L39.0732 8.14609L40.1781 7.04124L38.6156 5.47876Z" fill="#2D536E"/>
<path d="M31.5843 12.5101L30.4795 13.615L32.042 15.1775L33.1468 14.0726L31.5843 12.5101Z" fill="#2D536E"/>
<path d="M29.2406 14.8539L28.1357 15.9587L29.6982 17.5212L30.8031 16.4164L29.2406 14.8539Z" fill="#2D536E"/>
<path d="M19.0843 25.01L17.9795 26.1149L19.542 27.6773L20.6468 26.5725L19.0843 25.01Z" fill="#2D536E"/>
<path d="M16.7406 27.3538L15.6357 28.4586L17.1982 30.0211L18.3031 28.9162L16.7406 27.3538Z" fill="#2D536E"/>
<path d="M7.37597 39.7539C6.2278 40.7607 4.88965 41.5274 3.44043 42.0088L3.93457 43.4912C5.58073 42.9443 7.10074 42.0734 8.40498 40.9298L12.7957 37.088L11.7668 35.912L7.37597 39.7539Z" fill="#2D536E"/>
</svg>
