<svg width="50" height="44" viewBox="0 0 50 44" fill="none" xmlns="http://www.w3.org/2000/svg">
<path d="M30.8105 3.80862C31.2151 3.80862 31.543 3.48069 31.543 3.0762V0.86438C31.543 0.459888 31.2151 0.131958 30.8105 0.131958C30.406 0.131958 30.0781 0.459888 30.0781 0.86438V3.0762C30.0781 3.48069 30.406 3.80862 30.8105 3.80862ZM27.2066 3.94456C27.4073 4.30061 27.8574 4.41829 28.2044 4.22258C28.5567 4.02385 28.6813 3.57717 28.4825 3.22483L27.5537 1.57834C27.3551 1.2261 26.9082 1.10168 26.556 1.30032C26.2036 1.49905 26.0791 1.94573 26.2778 2.29807L27.2066 3.94456ZM33.4168 4.22258C33.763 4.4178 34.2138 4.30061 34.4146 3.94456L35.3434 2.29807C35.5421 1.94573 35.4177 1.49905 35.0652 1.30032C34.7132 1.10159 34.2662 1.2261 34.0675 1.57834L33.1387 3.22483C32.9399 3.57717 33.0644 4.02385 33.4168 4.22258ZM47.4962 24.3412L41.5587 22.3627C41.2222 22.2505 40.9514 21.9973 40.816 21.6678L37.5075 13.6182C36.9413 12.2395 35.6117 11.3486 34.12 11.3486H34.082V10.03C34.082 8.2261 32.6145 6.75852 30.8105 6.75852C29.0066 6.75852 27.5391 8.2261 27.5391 10.03V11.3486H22.5624C22.5611 11.3486 22.5599 11.3484 22.5586 11.3484C22.5573 11.3484 22.5561 11.3486 22.5548 11.3486H3.66211C1.64277 11.3486 0 12.9913 0 15.0107V19.8445C0 20.2489 0.327832 20.5769 0.732422 20.5769C1.13701 20.5769 1.46484 20.2489 1.46484 19.8445V15.0107C1.46484 13.799 2.45059 12.8134 3.66211 12.8134H21.8262V28.6335H1.46484V23.2624C1.46484 22.8579 1.13701 22.53 0.732422 22.53C0.327832 22.53 0 22.8579 0 23.2624V34.7861C0 36.8054 1.64277 38.4482 3.66211 38.4482H5.53828C5.90186 41.4962 8.50107 43.8679 11.6455 43.8679C14.7899 43.8679 17.3892 41.4962 17.7527 38.4482H31.0998C31.4634 41.4962 34.0626 43.8679 37.207 43.8679C40.3515 43.8679 42.9507 41.4962 43.3143 38.4482H46.3379C48.3572 38.4482 50 36.8054 50 34.7861V27.8154C50 26.2362 48.9937 24.84 47.4962 24.3412ZM11.6455 42.4031C9.06074 42.4031 6.95801 40.3002 6.95801 37.7156C6.95801 35.1309 9.06074 33.0281 11.6455 33.0281C14.2303 33.0281 16.333 35.1309 16.333 37.7156C16.333 40.3002 14.2303 42.4031 11.6455 42.4031ZM21.8262 36.9833H17.7527C17.3894 33.9351 14.7899 31.5632 11.6455 31.5632C8.50107 31.5632 5.90166 33.9351 5.53828 36.9833H3.66211C2.45059 36.9833 1.46484 35.9977 1.46484 34.7861V30.0984H21.8262V36.9833ZM29.0039 10.03C29.0039 9.03381 29.8144 8.22336 30.8105 8.22336C31.8067 8.22336 32.6172 9.03381 32.6172 10.03V11.3486H29.0039V10.03ZM37.207 42.4031C34.6223 42.4031 32.5195 40.3002 32.5195 37.7156C32.5195 35.1309 34.6223 33.0281 37.207 33.0281C39.7918 33.0281 41.8945 35.1309 41.8945 37.7156C41.8945 40.3002 39.7918 42.4031 37.207 42.4031ZM48.5352 28.6335H37.3636C36.959 28.6335 36.6312 28.9615 36.6312 29.3659C36.6312 29.7704 36.959 30.0984 37.3636 30.0984H48.5352V34.7861C48.5352 35.9977 47.5494 36.9833 46.3379 36.9833H43.3143C42.9509 33.9351 40.3515 31.5632 37.207 31.5632C34.0626 31.5632 31.4632 33.9351 31.0998 36.9833H23.291V30.0984H33.9456C34.3502 30.0984 34.678 29.7704 34.678 29.3659C34.678 28.9615 34.3502 28.6335 33.9456 28.6335H23.291V12.8134H34.1201C35.0151 12.8134 35.813 13.3477 36.1526 14.1748L39.4611 22.2246C39.7587 22.9486 40.3544 23.5053 41.0956 23.7524L47.0332 25.7309C47.9315 26.0301 48.5352 26.8678 48.5352 27.8153V28.6335ZM34.787 15.043C34.6 14.5783 34.1555 14.2781 33.6546 14.2781H25.9766C25.3034 14.2781 24.7559 14.8256 24.7559 15.4988V22.2859C24.7559 22.959 25.3034 23.5066 25.9766 23.5066H36.3865C37.2293 23.5128 37.8405 22.612 37.5189 21.83L34.787 15.043ZM26.2207 22.0417V15.7429H33.4896L36.0251 22.0417H26.2207ZM37.207 35.5183C35.9955 35.5183 35.0098 36.5039 35.0098 37.7156C35.0098 38.9272 35.9955 39.9128 37.207 39.9128C38.4186 39.9128 39.4043 38.9272 39.4043 37.7156C39.4043 36.5039 38.4186 35.5183 37.207 35.5183ZM37.207 38.448C36.8031 38.448 36.4746 38.1195 36.4746 37.7156C36.4746 37.3116 36.8031 36.9831 37.207 36.9831C37.6109 36.9831 37.9395 37.3116 37.9395 37.7156C37.9395 38.1195 37.6109 38.448 37.207 38.448ZM12.5244 14.2781H10.7666C10.0396 14.2781 9.44824 14.8695 9.44824 15.5964V18.5261H6.51855C5.7916 18.5261 5.2002 19.1175 5.2002 19.8445V21.6023C5.2002 22.3292 5.7916 22.9206 6.51855 22.9206H9.44824V25.8503C9.44824 26.5773 10.0396 27.1687 10.7666 27.1687H12.5244C13.2514 27.1687 13.8428 26.5773 13.8428 25.8503V22.9206H16.7725C17.4994 22.9206 18.0908 22.3292 18.0908 21.6023V19.8445C18.0908 19.1175 17.4994 18.5261 16.7725 18.5261H13.8428V15.5964C13.8428 14.8695 13.2514 14.2781 12.5244 14.2781ZM16.626 19.9909V21.4558H13.4033C12.8379 21.4558 12.3779 21.9157 12.3779 22.4812V25.7038H10.9131V22.4812C10.9131 21.9157 10.4531 21.4558 9.8877 21.4558H6.66504V19.9909H9.8877C10.4531 19.9909 10.9131 19.531 10.9131 18.9656V15.7429H12.3779V18.9656C12.3779 19.531 12.8379 19.9909 13.4033 19.9909H16.626ZM11.6455 35.5183C10.434 35.5183 9.44824 36.5039 9.44824 37.7156C9.44824 38.9272 10.434 39.9128 11.6455 39.9128C12.857 39.9128 13.8428 38.9272 13.8428 37.7156C13.8428 36.5039 12.857 35.5183 11.6455 35.5183ZM11.6455 38.448C11.2416 38.448 10.9131 38.1195 10.9131 37.7156C10.9131 37.3116 11.2416 36.9831 11.6455 36.9831C12.0494 36.9831 12.3779 37.3116 12.3779 37.7156C12.3779 38.1195 12.0494 38.448 11.6455 38.448Z" fill="#2D536E"/>
</svg>
