<svg width="1908" height="787" viewBox="0 0 1908 787" fill="none" xmlns="http://www.w3.org/2000/svg">
<path d="M0 11.0611C0 11.0611 15.6991 0 30 0C44.3009 0 60 11.0611 60 11.0611C60 11.0611 80.0601 22.1221 90 22.1221C100.06 22.1221 120 11.0611 120 11.0611C120 11.0611 140.059 0 150 0C160.06 0 180 11.0611 180 11.0611C180 11.0611 200.058 22.1221 210 22.1221C220.059 22.1221 240 11.0611 240 11.0611C240 11.0611 260.057 0 270 0C280.057 0 300 11.0611 300 11.0611C300 11.0611 320.055 22.1221 330 22.1221C340.055 22.1221 360 11.0611 360 11.0611C360 11.0611 380.053 0 390 0C400.052 0 420 11.0611 420 11.0611C420 11.0611 440.05 22.1221 450 22.1221C460.049 22.1221 480 11.0611 480 11.0611C480 11.0611 500.047 0 510 0C520.046 0 540 11.0611 540 11.0611C540 11.0611 560.043 22.1221 570 22.1221C580.042 22.1221 600 11.0611 600 11.0611C600 11.0611 620.038 0 630 0C640.037 0 660 11.0611 660 11.0611C660 11.0611 680.033 22.1221 690 22.1221C700.032 22.1221 720 11.0611 720 11.0611C720 11.0611 740.028 0 750 0C760.026 0 780 11.0611 780 11.0611C780 11.0611 800.021 22.1221 810 22.1221C820.019 22.1221 840 11.0611 840 11.0611C840 11.0611 860.015 0 870 0C880.013 0 900 11.0611 900 11.0611C900 11.0611 920.008 22.1221 930 22.1221C940.006 22.1221 960 11.0611 960 11.0611C960 11.0611 980.001 0 990 0C999.999 0 1020 11.0611 1020 11.0611C1020 11.0611 1039.99 22.1221 1050 22.1221C1059.99 22.1221 1080 11.0611 1080 11.0611C1080 11.0611 1099.99 0 1110 0C1119.99 0 1140 11.0611 1140 11.0611C1140 11.0611 1159.98 22.1221 1170 22.1221C1179.98 22.1221 1200 11.0611 1200 11.0611C1200 11.0611 1219.97 0 1230 0C1239.97 0 1260 11.0611 1260 11.0611C1260 11.0611 1279.97 22.1221 1290 22.1221C1299.97 22.1221 1320 11.0611 1320 11.0611C1320 11.0611 1339.96 0 1350 0C1359.96 0 1380 11.0611 1380 11.0611C1380 11.0611 1399.96 22.1221 1410 22.1221C1419.96 22.1221 1440 11.0611 1440 11.0611C1440 11.0611 1460.45 0 1470.5 0C1480.45 0 1500 11.0611 1500 11.0611C1500 11.0611 1519.95 22.1221 1530 22.1221C1539.95 22.1221 1560 11.0611 1560 11.0611C1560 11.0611 1579.95 0 1590 0C1599.95 0 1620 11.0611 1620 11.0611C1620 11.0611 1639.95 22.1221 1650 22.1221C1659.94 22.1221 1680 11.0611 1680 11.0611C1680 11.0611 1699.94 0 1710 0C1719.94 0 1740 11.0611 1740 11.0611C1740 11.0611 1759.94 22.1221 1770 22.1221C1779.94 22.1221 1800 11.0611 1800 11.0611C1800 11.0611 1820.44 0 1830.5 0C1840.44 0 1860 11.0611 1860 11.0611C1860 11.0611 1879.94 22.1221 1890 22.1221C1899.94 22.1221 1920 11.0611 1920 11.0611V787H0V11.0611Z" fill="#F1F6FA"/>
</svg>
