<svg width="55" height="56" viewBox="0 0 55 56" fill="none" xmlns="http://www.w3.org/2000/svg">
<path d="M43.32 32.8779C46.0526 34.6794 47.4079 35.6788 48.0347 37.0746C49.2725 39.8312 47.8254 42.0871 45.0673 43.3256C43.8515 43.8716 43.066 44.2224 40.6192 44.0812C40.6192 44.0812 38.806 43.4823 35.8527 44.9536C32.7633 46.1967 32.0117 47.9642 32.0117 47.9642C30.4913 49.886 29.7297 50.2149 28.5154 50.7601C25.7573 51.9987 23.1089 51.5837 21.8704 48.8256C21.2436 47.4298 21.4002 45.7534 21.8677 42.5129C21.8677 42.5129 22.6368 36.1318 24.1966 32.5919C25.3247 30.0363 28.0887 28.8026 28.0887 28.8026L28.9405 28.4201L28.9402 28.4193C28.9402 28.4193 31.8191 27.1181 34.3608 28.0277C38.0003 29.3358 43.3204 32.8786 43.32 32.8779ZM20.2677 28.2784C23.1512 26.9835 23.8528 22.2913 21.8352 17.7983C19.8176 13.3054 15.8446 10.7123 12.9611 12.0072C10.0775 13.302 9.37597 17.9943 11.3935 22.4872C13.4111 26.9801 17.3841 29.5732 20.2677 28.2784ZM18.8024 38.4043C20.4871 36.4688 19.4096 32.7721 16.3946 30.1477C13.3797 27.5233 9.56985 26.9641 7.88484 28.8989C6.19982 30.8336 7.27845 34.5307 10.2926 37.1555C13.3076 39.7798 17.1171 40.3383 18.8024 38.4043ZM32.406 22.8276C35.2896 21.5327 35.9918 16.8402 33.9743 12.3473C31.9567 7.85432 27.9829 5.26156 25.0994 6.55643C22.2158 7.85131 21.5143 12.5435 23.5318 17.0365C25.5494 21.5294 29.5224 24.1225 32.406 22.8276ZM41.0971 13.9839C38.5304 13.9574 36.418 17.1761 36.3767 21.1738C36.3354 25.1715 38.3824 28.4328 40.9491 28.4593C43.5154 28.485 45.6278 25.2664 45.6695 21.2694C45.7111 17.2725 43.6637 14.0104 41.0971 13.9839Z" fill="#2CC140"/>
</svg>
