<svg width="38" height="50" viewBox="0 0 38 50" fill="none" xmlns="http://www.w3.org/2000/svg">
<mask id="path-1-inside-1" fill="white">
<path d="M35.3909 7.18153H33.4242C33.4571 7.07928 33.4739 6.96493 33.4739 6.85048C33.4739 6.49921 33.3189 6.14784 33.0089 6.14784H30.6532V0.485741C30.6532 0.144824 30.2501 9.76561e-05 29.8472 9.76561e-05C29.4443 9.76561e-05 29.0413 0.144824 29.0413 0.485741V7.05721C29.0413 7.10174 29.0481 7.14305 29.06 7.18153H28.2903C28.3231 7.08046 28.339 6.96903 28.339 6.86083C28.339 6.4785 28.1632 6.14784 27.8534 6.14784H25.0841V4.3914H26.6339C26.9749 4.3914 27.1196 4.06073 27.1196 3.78183C27.1196 3.45117 26.9438 3.15156 26.6339 3.15156H25.0841V1.40527H27.8532C28.1631 1.40527 28.3388 1.07461 28.3388 0.692284C28.3388 0.36162 28.1941 0 27.8532 0H24.1749C23.8236 0 23.4721 0.165332 23.4721 0.495995V7.05702C23.4721 7.10155 23.479 7.14286 23.4909 7.18133H20.8988C20.9125 7.14286 20.9203 7.10145 20.9203 7.05702V1.44658H22.3461C22.6561 1.44658 22.8317 1.10556 22.8317 0.712987C22.8317 0.37207 22.6872 0 22.3461 0H17.8825C17.5415 0 17.3969 0.371972 17.3969 0.712987C17.3969 1.10556 17.5726 1.44658 17.8825 1.44658H19.3087V7.05702C19.3087 7.10155 19.3165 7.14286 19.3301 7.18133H16.0594C16.609 6.80467 16.953 6.16268 16.953 5.17646V2.43857C16.953 0.661425 15.837 0.000195312 14.4112 0.000195312C12.9853 0.000195312 11.8798 0.661425 11.8798 2.43857V5.17665C11.8798 6.16278 12.2206 6.80487 12.7673 7.18153H10.8254C10.839 7.14305 10.8469 7.10165 10.8469 7.05721V0.485741C10.8469 0.144824 10.4438 9.76561e-05 10.0409 9.76561e-05C9.63787 9.76561e-05 9.23494 0.144824 9.23494 0.485741V3.01718H7.17889V0.485741C7.17889 0.144824 6.77587 9.76561e-05 6.37304 9.76561e-05C5.97001 9.76561e-05 5.56708 0.144824 5.56708 0.485741V7.05721C5.56708 7.10174 5.57499 7.14305 5.58856 7.18153H2.60761C1.48808 7.18153 0.577148 8.09227 0.577148 9.21199V11.8899C0.577148 12.6396 0.98662 13.294 1.59258 13.6457V49.002C1.59258 49.5531 2.03945 50 2.59062 50H35.4077C35.9588 50 36.4058 49.5532 36.4058 49.002V13.6457C37.0117 13.294 37.4212 12.6395 37.4212 11.8899V9.21199C37.4212 8.09237 36.5104 7.18153 35.3909 7.18153ZM13.4916 2.43857C13.4916 1.72558 13.8326 1.40537 14.4111 1.40537C14.9896 1.40537 15.3411 1.72568 15.3411 2.43857V5.17665C15.3411 5.88964 14.9898 6.20985 14.4111 6.20985C13.8324 6.20985 13.4916 5.88964 13.4916 5.17665V2.43857ZM7.1788 7.05721V4.25712H9.23485V7.05721C9.23485 7.10174 9.24276 7.14305 9.25633 7.18153H7.15721C7.17089 7.14296 7.1788 7.10165 7.1788 7.05721ZM22.7824 48.004H19.9972V45.6335C19.9972 45.0823 19.5504 44.6355 18.9992 44.6355C18.4481 44.6355 18.0011 45.0822 18.0011 45.6335V48.004H15.2161V40.3355H22.7823V48.004H22.7824ZM34.4098 48.004H24.7783V39.3374C24.7783 38.7863 24.3314 38.3394 23.7802 38.3394H14.218C13.667 38.3394 13.22 38.7862 13.22 39.3374V48.004H3.58867V13.9202H34.4098V48.004ZM35.4252 11.8899C35.4252 11.9089 35.4099 11.9244 35.3908 11.9244H2.60761C2.58867 11.9244 2.57314 11.909 2.57314 11.8899V9.21199C2.57314 9.19305 2.58847 9.17752 2.60761 9.17752H35.3908C35.4097 9.17752 35.4252 9.19295 35.4252 9.21199V11.8899Z"/>
</mask>
<path d="M35.3909 7.18153H33.4242C33.4571 7.07928 33.4739 6.96493 33.4739 6.85048C33.4739 6.49921 33.3189 6.14784 33.0089 6.14784H30.6532V0.485741C30.6532 0.144824 30.2501 9.76561e-05 29.8472 9.76561e-05C29.4443 9.76561e-05 29.0413 0.144824 29.0413 0.485741V7.05721C29.0413 7.10174 29.0481 7.14305 29.06 7.18153H28.2903C28.3231 7.08046 28.339 6.96903 28.339 6.86083C28.339 6.4785 28.1632 6.14784 27.8534 6.14784H25.0841V4.3914H26.6339C26.9749 4.3914 27.1196 4.06073 27.1196 3.78183C27.1196 3.45117 26.9438 3.15156 26.6339 3.15156H25.0841V1.40527H27.8532C28.1631 1.40527 28.3388 1.07461 28.3388 0.692284C28.3388 0.36162 28.1941 0 27.8532 0H24.1749C23.8236 0 23.4721 0.165332 23.4721 0.495995V7.05702C23.4721 7.10155 23.479 7.14286 23.4909 7.18133H20.8988C20.9125 7.14286 20.9203 7.10145 20.9203 7.05702V1.44658H22.3461C22.6561 1.44658 22.8317 1.10556 22.8317 0.712987C22.8317 0.37207 22.6872 0 22.3461 0H17.8825C17.5415 0 17.3969 0.371972 17.3969 0.712987C17.3969 1.10556 17.5726 1.44658 17.8825 1.44658H19.3087V7.05702C19.3087 7.10155 19.3165 7.14286 19.3301 7.18133H16.0594C16.609 6.80467 16.953 6.16268 16.953 5.17646V2.43857C16.953 0.661425 15.837 0.000195312 14.4112 0.000195312C12.9853 0.000195312 11.8798 0.661425 11.8798 2.43857V5.17665C11.8798 6.16278 12.2206 6.80487 12.7673 7.18153H10.8254C10.839 7.14305 10.8469 7.10165 10.8469 7.05721V0.485741C10.8469 0.144824 10.4438 9.76561e-05 10.0409 9.76561e-05C9.63787 9.76561e-05 9.23494 0.144824 9.23494 0.485741V3.01718H7.17889V0.485741C7.17889 0.144824 6.77587 9.76561e-05 6.37304 9.76561e-05C5.97001 9.76561e-05 5.56708 0.144824 5.56708 0.485741V7.05721C5.56708 7.10174 5.57499 7.14305 5.58856 7.18153H2.60761C1.48808 7.18153 0.577148 8.09227 0.577148 9.21199V11.8899C0.577148 12.6396 0.98662 13.294 1.59258 13.6457V49.002C1.59258 49.5531 2.03945 50 2.59062 50H35.4077C35.9588 50 36.4058 49.5532 36.4058 49.002V13.6457C37.0117 13.294 37.4212 12.6395 37.4212 11.8899V9.21199C37.4212 8.09237 36.5104 7.18153 35.3909 7.18153ZM13.4916 2.43857C13.4916 1.72558 13.8326 1.40537 14.4111 1.40537C14.9896 1.40537 15.3411 1.72568 15.3411 2.43857V5.17665C15.3411 5.88964 14.9898 6.20985 14.4111 6.20985C13.8324 6.20985 13.4916 5.88964 13.4916 5.17665V2.43857ZM7.1788 7.05721V4.25712H9.23485V7.05721C9.23485 7.10174 9.24276 7.14305 9.25633 7.18153H7.15721C7.17089 7.14296 7.1788 7.10165 7.1788 7.05721ZM22.7824 48.004H19.9972V45.6335C19.9972 45.0823 19.5504 44.6355 18.9992 44.6355C18.4481 44.6355 18.0011 45.0822 18.0011 45.6335V48.004H15.2161V40.3355H22.7823V48.004H22.7824ZM34.4098 48.004H24.7783V39.3374C24.7783 38.7863 24.3314 38.3394 23.7802 38.3394H14.218C13.667 38.3394 13.22 38.7862 13.22 39.3374V48.004H3.58867V13.9202H34.4098V48.004ZM35.4252 11.8899C35.4252 11.9089 35.4099 11.9244 35.3908 11.9244H2.60761C2.58867 11.9244 2.57314 11.909 2.57314 11.8899V9.21199C2.57314 9.19305 2.58847 9.17752 2.60761 9.17752H35.3908C35.4097 9.17752 35.4252 9.19295 35.4252 9.21199V11.8899Z" fill="#2D536E" stroke="white" stroke-width="0.6" mask="url(#path-1-inside-1)"/>
</svg>
