<svg width="48" height="38" viewBox="0 0 48 38" fill="none" xmlns="http://www.w3.org/2000/svg">
<path d="M8.53146 17.203C12.4377 16.1093 16.5783 16.1093 20.4846 17.203C20.8361 17.3202 21.2268 17.0858 21.344 16.7342C21.4611 16.3827 21.2268 15.9921 20.8752 15.9139C16.7346 14.7421 12.3205 14.7421 8.1799 15.9139C7.82834 16.0311 7.59396 16.3827 7.71115 16.7733C7.78927 17.0858 8.14084 17.3202 8.53146 17.203Z" fill="#2D536E"/>
<path d="M8.53146 12.5155C12.4377 11.4218 16.5783 11.4218 20.4846 12.5155C20.8361 12.6327 21.2268 12.3983 21.344 12.0468C21.4611 11.6952 21.2268 11.3046 20.8752 11.2264C16.7346 10.0546 12.3205 10.0546 8.1799 11.2264C7.82834 11.3436 7.59396 11.6952 7.71115 12.0858C7.78927 12.4374 8.14084 12.6327 8.53146 12.5155Z" fill="#2D536E"/>
<path d="M8.53146 7.86707C12.4377 6.77332 16.5783 6.77332 20.4846 7.86707C20.8361 7.98426 21.2268 7.74988 21.344 7.39832C21.4611 7.04676 21.2268 6.65613 20.8752 6.57801C16.7346 5.40613 12.3205 5.40613 8.1799 6.57801C7.82834 6.69519 7.59396 7.04676 7.71115 7.43738C7.78927 7.74988 8.14084 7.9452 8.53146 7.86707Z" fill="#2D536E"/>
<path d="M8.53146 21.8905C12.4377 20.7968 16.5783 20.7968 20.4846 21.8905C20.8361 22.0077 21.2268 21.7733 21.344 21.4217C21.4611 21.0702 21.2268 20.6796 20.8752 20.6014C16.7346 19.4296 12.3205 19.4296 8.1799 20.6014C7.82834 20.7186 7.59396 21.0702 7.71115 21.4608C7.78927 21.7733 8.14084 22.0077 8.53146 21.8905Z" fill="#2D536E"/>
<path d="M8.53146 26.578C12.4377 25.4843 16.5783 25.4843 20.4846 26.578C20.8361 26.6952 21.2268 26.4608 21.344 26.1092C21.4611 25.7577 21.2268 25.3671 20.8752 25.2889C16.7346 24.1171 12.3205 24.1171 8.1799 25.2889C7.82834 25.4061 7.59396 25.7577 7.71115 26.1483C7.78927 26.4608 8.14084 26.6561 8.53146 26.578Z" fill="#2D536E"/>
<path d="M27.5158 17.203C31.4221 16.1093 35.5627 16.1093 39.469 17.203C39.8205 17.3202 40.2112 17.0858 40.3283 16.7342C40.4455 16.3827 40.2112 15.9921 39.8596 15.9139C35.719 14.7421 31.3049 14.7421 27.1643 15.9139C26.8127 16.0311 26.5783 16.3827 26.6955 16.7733C26.8127 17.0858 27.1643 17.3202 27.5158 17.203Z" fill="#2D536E"/>
<path d="M27.5158 12.5155C31.4221 11.4218 35.5627 11.4218 39.469 12.5155C39.8205 12.6327 40.2112 12.3983 40.3283 12.0468C40.4455 11.6952 40.2112 11.3046 39.8596 11.2264C35.719 10.0546 31.3049 10.0546 27.1643 11.2264C26.8127 11.3436 26.5783 11.6952 26.6955 12.0858C26.8127 12.4374 27.1643 12.6327 27.5158 12.5155Z" fill="#2D536E"/>
<path d="M27.5158 7.86707C31.4221 6.77332 35.5627 6.77332 39.469 7.86707C39.8205 7.98426 40.2112 7.74988 40.3283 7.39832C40.4455 7.04676 40.2112 6.65613 39.8596 6.57801C35.719 5.40613 31.3049 5.40613 27.1643 6.57801C26.8127 6.69519 26.5783 7.04676 26.6955 7.43738C26.8127 7.74988 27.1643 7.9452 27.5158 7.86707Z" fill="#2D536E"/>
<path d="M27.5158 21.8905C31.4221 20.7968 35.5627 20.7968 39.469 21.8905C39.8205 22.0077 40.2112 21.7733 40.3283 21.4217C40.4455 21.0702 40.2112 20.6796 39.8596 20.6014C35.719 19.4296 31.3049 19.4296 27.1643 20.6014C26.8127 20.7186 26.5783 21.0702 26.6955 21.4608C26.8127 21.7733 27.1643 22.0077 27.5158 21.8905Z" fill="#2D536E"/>
<path d="M39.8596 25.25C35.719 24.0781 31.3049 24.0781 27.1643 25.25C26.8127 25.3672 26.5783 25.7187 26.6955 26.1094C26.8127 26.4609 27.1643 26.6562 27.5158 26.5781C31.4221 25.4844 35.5627 25.4844 39.469 26.5781C39.8205 26.6953 40.2112 26.4609 40.3283 26.1094C40.4455 25.7187 40.2112 25.3672 39.8596 25.25Z" fill="#2D536E"/>
<path d="M46.5391 5.87496H43.6875V3.80464C43.6875 3.57027 43.5703 3.33589 43.3359 3.21871C43.1797 3.14058 39.3906 0.953081 33.4922 0.953081C30.2109 0.914018 26.9688 1.61714 24 3.02339C21.0312 1.61714 17.7891 0.914018 14.5078 0.953081C8.57031 0.953081 4.82031 3.14058 4.66406 3.21871C4.46875 3.33589 4.3125 3.57027 4.3125 3.80464V5.87496H1.46094C1.07031 5.87496 0.757812 6.18746 0.757812 6.57808V34.664C0.757812 35.0546 1.07031 35.3281 1.42187 35.3671H20.6016C20.9141 36.3828 21.8125 37.0468 22.8672 37.0468H25.0547C26.1094 37.0468 27.0078 36.3437 27.3203 35.3671H46.5C46.8906 35.3671 47.1641 35.0546 47.2031 34.7031V6.57808C47.2031 6.18746 46.9297 5.87496 46.5391 5.87496ZM42.3203 4.23433V30.7968C39.5469 29.625 36.5391 29 33.4922 29.039C30.4453 29 27.4766 29.625 24.6641 30.7968V4.23433C27.4375 2.94527 30.4453 2.32027 33.4922 2.32027C36.5391 2.32027 39.5859 2.98433 42.3203 4.23433ZM5.67969 4.23433C8.45312 2.94527 11.4609 2.32027 14.5078 2.32027C17.5547 2.28121 20.5625 2.94527 23.3359 4.23433V30.7968C20.5625 29.625 17.5547 29 14.5078 29.039C11.4609 29 8.49219 29.625 5.67969 30.7968V4.23433ZM45.8359 33.9609H26.7734C26.3828 33.9609 26.1094 34.2734 26.0703 34.664C26.0703 35.2109 25.6016 35.6796 25.0547 35.6796H22.8672C22.3203 35.6796 21.8516 35.2109 21.8516 34.664C21.8516 34.2734 21.5391 34 21.1484 33.9609H2.16406V7.24214H4.3125V31.8906C4.3125 32.4375 4.89844 32.75 5.32813 32.4765C5.36719 32.4375 8.92188 30.4062 14.5078 30.4062C20.0547 30.4062 23.6484 32.4765 23.6875 32.4765C23.8828 32.5937 24.1953 32.5937 24.3906 32.4765C24.4297 32.4375 27.9844 30.4062 33.5703 30.4062C39.1172 30.4062 42.7109 32.4765 42.75 32.4765C43.2188 32.75 43.7656 32.3984 43.7656 31.8906V7.24214H45.9141L45.8359 33.9609Z" fill="#2D536E"/>
</svg>
