<svg width="46" height="50" viewBox="0 0 46 50" fill="none" xmlns="http://www.w3.org/2000/svg">
<path d="M45.1763 6.72148L43.0397 4.84008L45.1763 2.95905C45.5085 2.66609 45.6222 2.20947 45.4662 1.79519C45.3094 1.38054 44.9222 1.11274 44.4793 1.11274H35.6376V0.732802C35.6376 0.328063 35.3096 0 34.9048 0C34.5001 0 34.172 0.328063 34.172 0.732802V10.6159L28.1536 13.8839C28.1204 13.6192 28.0411 13.359 27.9156 13.1141L27.0676 11.4586C26.4854 10.3218 25.087 9.87127 23.951 10.453L23.2952 10.7887C22.7444 11.071 22.3366 11.5501 22.1466 12.1391C21.9566 12.7277 22.0074 13.3552 22.2897 13.9057L23.1377 15.5616C23.3356 15.9481 23.6282 16.254 23.9723 16.4684C23.5222 17.0746 23.3086 17.8199 23.0888 18.5943L22.9309 19.1536C22.8207 19.543 23.0473 19.9482 23.4367 20.058C23.5031 20.0771 23.5703 20.0859 23.6362 20.0859C23.9559 20.0859 24.2496 19.8753 24.3412 19.5522L24.4991 18.9941C24.8203 17.8615 25.0175 17.255 25.6454 16.914L26.7712 16.3025L26.91 16.2315C26.9562 16.2079 26.9993 16.1812 27.0431 16.1548L35.0662 11.7981C35.0155 12.801 34.4757 13.7485 33.5869 14.2883L28.3695 17.4583C28.3634 17.4617 28.3573 17.4652 28.3516 17.469L26.7277 18.4555C26.3821 18.6657 26.2718 19.1166 26.482 19.4625C26.68 19.7887 27.092 19.9047 27.428 19.741L26.1959 23.4657L25.2953 23.8349L22.8462 24.8386L23.5519 22.3438C23.6618 21.9543 23.4356 21.5492 23.0461 21.4389C22.6563 21.3283 22.2515 21.5553 22.1413 21.9448L21.0262 25.888C21.0117 25.9387 21.0022 25.9944 20.9999 26.0475L20.7081 31.4079C20.6993 31.6123 20.7428 31.9988 20.6482 32.1983L17.4072 39.0166H15.052C13.6723 39.0166 12.55 40.1389 12.55 41.5183V43.6336C12.2341 43.489 11.8836 43.4081 11.5139 43.4081H5.53287C4.15348 43.4081 3.0312 44.53 3.0312 45.9098V48.5343H1.27186C0.867126 48.5343 0.539062 48.8624 0.539062 49.2671C0.539062 49.6718 0.867126 49.9999 1.27186 49.9999H44.4786C44.8833 49.9999 45.2114 49.6718 45.2114 49.2671C45.2114 48.8624 44.8833 48.5343 44.4786 48.5343H42.5727V29.6459C42.5727 28.2665 41.4505 27.1442 40.0711 27.1442H35.6376V14.36C36.4502 13.2587 36.7511 11.8152 36.3739 10.4435C36.3147 10.2279 36.1603 10.0509 35.9543 9.96359C35.8532 9.92048 35.7448 9.90141 35.6376 9.9056V8.56779H44.4789C44.9222 8.56779 45.3094 8.3 45.4658 7.88573C45.6222 7.47145 45.5085 7.01445 45.1763 6.72148ZM23.5416 12.5892C23.6115 12.3729 23.761 12.1967 23.9632 12.0933L24.6189 11.7576C24.7425 11.6943 24.8745 11.6642 25.005 11.6642C25.3139 11.6642 25.6126 11.8332 25.7629 12.1265L26.6113 13.7825C26.8093 14.1693 26.6811 14.6381 26.329 14.875L26.0902 15.0043L25.5863 15.2626C25.1694 15.4762 24.6559 15.3106 24.4423 14.8933L23.5939 13.2377C23.4905 13.0356 23.4718 12.8051 23.5416 12.5892ZM22.0692 39.2421C21.8201 39.1284 21.5492 39.054 21.2647 39.0277L22.0692 37.9592V39.2421ZM25.5485 33.3373C25.901 32.915 25.9983 32.4218 26.0769 32.0243C26.0967 31.9297 26.4584 29.9545 26.4584 29.9545C26.4584 29.9545 26.8005 30.1677 26.8364 30.183C26.8612 30.194 26.8787 30.2184 26.8814 30.2471L27.28 34.2994H24.8241L25.5485 33.3373ZM29.882 29.2926L29.2633 34.296H28.7525L28.3401 30.1036C28.2875 29.5665 27.9587 29.0977 27.4769 28.8646L26.7399 28.3973L27.2308 25.6763C27.2308 25.6763 29.2992 28.1333 29.3472 28.1959C29.7752 28.7525 29.9217 28.9752 29.882 29.2926ZM21.9666 32.8391C22.1146 32.3936 22.1832 31.94 22.1718 31.4788L22.4381 26.5899L25.8274 25.201L25.2113 28.6136C25.2094 28.6228 25.2075 28.6323 25.2064 28.6415L24.6967 31.4632C24.6304 31.7554 24.5724 32.1987 24.39 32.4394L19.4382 39.0166H19.03L21.9666 32.8391ZM4.4968 45.9094C4.4968 45.3383 4.96143 44.8737 5.53287 44.8737H11.5139C12.0854 44.8737 12.5504 45.3383 12.5504 45.9094V48.5343H4.4968V45.9094ZM14.0156 45.9094V41.5183C14.0156 40.9469 14.4806 40.4822 15.052 40.4822H21.0331C21.6045 40.4822 22.0692 40.9469 22.0692 41.5183V48.5343H14.016V45.9094H14.0156ZM41.1071 29.6459V48.5343H33.054V44.1405C33.054 43.7358 32.7259 43.4077 32.3211 43.4077C31.916 43.4077 31.588 43.7358 31.588 44.1405V48.5343H23.5348V36.8007C23.5348 36.2296 23.9994 35.765 24.5708 35.765H30.5519C31.1233 35.765 31.588 36.2296 31.588 36.8007V40.4742C31.588 40.879 31.916 41.207 32.3208 41.207C32.7259 41.207 33.0536 40.879 33.0536 40.4742V29.6459C33.0536 29.0744 33.5186 28.6098 34.09 28.6098H34.8972C34.8995 28.6098 34.9022 28.6102 34.9048 28.6102C34.9071 28.6102 34.9098 28.6098 34.9121 28.6098H40.0707C40.6421 28.6098 41.1071 29.0748 41.1071 29.6459ZM34.09 27.1442C32.7106 27.1442 31.5883 28.2665 31.5883 29.6459V34.5248C31.3259 34.4051 31.0398 34.3292 30.7388 34.307L31.3366 29.4731C31.4541 28.5308 30.9734 27.9064 30.5088 27.3021C30.4596 27.238 27.6112 23.8559 27.6112 23.8559L29.3587 18.5726L34.172 15.6482V27.1442H34.09ZM35.6376 7.10181V2.57873H43.3902L41.7205 4.04891C41.4932 4.24918 41.3627 4.53757 41.3627 4.84046C41.3627 5.14335 41.4932 5.43174 41.7205 5.63201L43.3902 7.10219H35.6376V7.10181Z" fill="#2D536E"/>
</svg>
