<svg width="50" height="50" viewBox="0 0 50 50" fill="none" xmlns="http://www.w3.org/2000/svg">
<path d="M25.7957 5.37002C25.7957 5.85796 25.4001 6.25352 24.9122 6.25352C24.4244 6.25352 24.0288 5.85797 24.0287 5.37002C24.0287 5.37001 24.0287 5.37001 24.0287 5.37V0.983496C24.0287 0.49556 24.4243 0.1 24.9122 0.1C25.4001 0.1 25.7957 0.49556 25.7957 0.983496V5.37002Z" fill="#2D536E" stroke="white" stroke-width="0.2"/>
<mask id="path-2-inside-1" fill="white">
<path d="M48.9537 33.7876L47.2163 32.0551C46.5982 31.4378 45.7745 31.0978 44.8968 31.0978C44.3355 31.0978 43.7968 31.2374 43.3193 31.4991L40.0453 28.2289L40.2048 28.0697C41.533 26.7388 41.5325 24.5762 40.2047 23.2498C39.7302 22.7745 39.1381 22.4575 38.4927 22.3241C38.5815 22.0173 38.6283 21.696 38.6283 21.3672C38.6283 20.4536 38.2734 19.597 37.6311 18.9573C37.1564 18.4819 36.5644 18.1649 35.919 18.0315C36.0079 17.7247 36.0547 17.4036 36.0547 17.0746C36.0547 16.161 35.6998 15.3044 35.0563 14.6637C34.5704 14.1784 33.973 13.8711 33.3458 13.7404C33.6813 12.5834 33.3946 11.2818 32.4845 10.3701C31.7269 9.61566 30.6988 9.29144 29.7081 9.39652L23.2203 8.16849C22.2309 7.9808 20.9952 7.85668 20.2152 8.5681C20.166 8.61302 20.1158 8.66468 20.0664 8.7222C18.857 8.28138 17.4465 8.54388 16.478 9.51127C15.8355 10.153 15.4816 11.0092 15.4816 11.9223C15.4816 12.2512 15.5282 12.5724 15.617 12.8792C14.9723 13.0125 14.381 13.3291 13.908 13.803C13.2643 14.4441 12.9093 15.2994 12.9086 16.2114C12.9083 16.5411 12.9551 16.8633 13.0443 17.1709C12.3993 17.3039 11.8076 17.62 11.3332 18.0938C10.6895 18.7369 10.335 19.5936 10.335 20.5062C10.335 21.2052 10.5437 21.8711 10.9304 22.4336C10.4421 22.5992 9.99482 22.8746 9.62031 23.2488C8.29121 24.5762 8.29072 26.7389 9.62119 28.0717L9.78008 28.2299L6.50566 31.4984C5.28877 30.9254 3.78945 31.1401 2.78525 32.143L1.04678 33.8766C0.428418 34.4942 0.0879883 35.318 0.0878906 36.1962C0.0878906 37.0745 0.428418 37.8985 1.04678 38.5161L3.21641 40.6831C3.60068 41.067 4.22344 41.0666 4.60723 40.6824C4.99111 40.2981 4.99072 39.6753 4.60645 39.2915L2.43682 37.1245C2.19053 36.8786 2.05488 36.5489 2.05488 36.1963C2.05488 35.8439 2.19053 35.5143 2.43623 35.2689L4.1748 33.5352C4.60918 33.1013 5.27402 33.0367 5.77891 33.3385C5.81445 33.3919 5.85557 33.4427 5.90264 33.4899C5.98691 33.5744 6.08311 33.6391 6.18525 33.6865L16.1553 43.6418C16.2026 43.7451 16.2677 43.8422 16.3525 43.9272C16.4352 44.0099 16.5294 44.0739 16.6294 44.1209C16.8402 44.3593 16.9567 44.6638 16.9567 44.9886C16.9567 45.3412 16.8211 45.6707 16.5748 45.9167L14.838 47.6515C14.3248 48.1624 13.49 48.1623 12.9784 47.6531L10.8088 45.4832C10.4247 45.0992 9.80205 45.0992 9.41797 45.4832C9.03389 45.8673 9.03389 46.49 9.41797 46.8741L11.5892 49.0454C12.2282 49.6819 13.0675 49.9999 13.9071 49.9999C14.747 49.9999 15.5872 49.6814 16.2271 49.0444L17.9649 47.3085C18.5833 46.6909 18.9238 45.867 18.9238 44.9886C18.9238 44.3618 18.7495 43.7631 18.4254 43.2469L22.1105 39.5662C22.1145 39.5622 22.1184 39.5582 22.1224 39.5542C22.5443 39.118 23.7194 39.1996 24.8559 39.2786C25.6633 39.3347 26.5635 39.3971 27.443 39.2957L31.4785 43.3265C31.2171 43.8032 31.0775 44.3412 31.0775 44.9016C31.0775 45.779 31.4181 46.6024 32.0364 47.2201L33.7744 48.9559C34.3924 49.5732 35.2161 49.9132 36.0938 49.9132C36.9715 49.9132 37.7952 49.5733 38.4133 48.9559L48.9544 38.4276C49.5728 37.81 49.9133 36.9862 49.9133 36.1078C49.9132 35.2296 49.5727 34.4058 48.9537 33.7876ZM22.8541 10.1011L27.1204 10.9086L24.5668 13.4613C24.1718 13.2714 23.6304 12.9173 23.0364 12.3492C22.2234 11.5714 21.6419 10.6735 21.589 10.1134C21.5889 10.1131 21.5889 10.1128 21.5889 10.1125C21.5889 10.1124 21.5888 10.1123 21.5888 10.1122C21.585 10.072 21.584 10.0399 21.5845 10.0154C21.7131 9.98412 22.0547 9.94945 22.8541 10.1011ZM17.868 10.903C18.3662 10.4052 19.1402 10.3478 19.7032 10.729C20.0223 12.0667 21.1634 13.2791 21.6768 13.7703C22.0572 14.1344 23.278 15.2259 24.5103 15.5259C24.677 15.7649 24.7677 16.0497 24.7677 16.3503C24.7677 16.7375 24.6188 17.0995 24.3474 17.3706C24.0768 17.6417 23.7142 17.791 23.3263 17.791C22.9383 17.791 22.5757 17.6417 22.3038 17.3694L22.3037 17.3693L22.3032 17.3688L17.8679 12.9414C17.5975 12.6714 17.4485 12.3094 17.4485 11.9223C17.4486 11.5351 17.5976 11.1731 17.868 10.903ZM15.298 15.1947C15.5687 14.9237 15.9309 14.7744 16.3182 14.7744C16.706 14.7744 17.0693 14.924 17.3417 15.196L20.9132 18.7604C21.4756 19.3237 21.4756 20.2403 20.9151 20.8016C20.6431 21.0726 20.2792 21.2218 19.8906 21.2218C19.5021 21.2218 19.1382 21.0726 18.8673 20.8028L18.8672 20.8027L16.1577 18.0938C16.1535 18.0896 16.1489 18.0857 16.1446 18.0814L15.297 17.2341C15.025 16.9624 14.8753 16.5997 14.8756 16.2128C14.876 15.8272 15.0252 15.4663 15.298 15.1947ZM12.7232 19.4855C12.994 19.2151 13.357 19.0661 13.7455 19.0661C14.1308 19.0661 14.4906 19.2129 14.7603 19.4786L17.478 22.1952C17.749 22.4651 17.8983 22.8267 17.8983 23.2134C17.8983 23.6 17.749 23.9617 17.477 24.2327C17.2062 24.503 16.8437 24.6519 16.4559 24.6519C16.0675 24.6519 15.7037 24.5026 15.4326 24.2327L14.4474 23.2486C14.4472 23.2483 14.4469 23.2481 14.4467 23.2479L12.7233 21.5266C12.4517 21.2552 12.3021 20.8927 12.3021 20.506C12.3021 20.1194 12.4517 19.7568 12.7232 19.4855ZM11.0104 24.6404C11.2823 24.3687 11.6458 24.2191 12.0338 24.2191C12.4217 24.2191 12.7851 24.3686 13.0569 24.6401L14.0436 25.6255C14.3146 25.8954 14.4639 26.2571 14.4639 26.6438C14.4639 27.0305 14.3146 27.392 14.0415 27.6641C13.7709 27.9351 13.4083 28.0844 13.0204 28.0844C12.6324 28.0844 12.2698 27.9352 11.9973 27.6621L11.8737 27.5391C11.8721 27.5374 11.8708 27.5357 11.8692 27.5341C11.8674 27.5324 11.8654 27.5308 11.8636 27.529L11.0113 26.6801C10.4489 26.1165 10.4484 25.2016 11.0104 24.6404ZM31.0527 35.8179C30.6688 35.4335 30.0461 35.4332 29.6619 35.817L28.7869 36.691C27.9555 37.5224 26.4489 37.4177 24.992 37.3166C23.4099 37.2067 21.7738 37.0932 20.7151 38.1801L17.0926 41.7983L8.03369 32.7527L11.2396 29.5526C11.7694 29.8774 12.3809 30.0515 13.0206 30.0515C13.9346 30.0515 14.7916 29.6972 15.4317 29.0559C16.0762 28.4141 16.4312 27.5576 16.4312 26.6439C16.4312 26.6354 16.4306 26.627 16.4306 26.6185C16.4391 26.6186 16.4476 26.6191 16.4561 26.6191C17.3687 26.6191 18.2251 26.2659 18.8661 25.6256C19.5105 24.9838 19.8655 24.1272 19.8655 23.2136C19.8655 23.2051 19.8649 23.1967 19.8649 23.1882C19.8735 23.1882 19.8821 23.1888 19.8908 23.1888C20.8032 23.1888 21.6601 22.836 22.3054 22.1933C22.9753 21.5223 23.3066 20.6389 23.3003 19.7574C23.3091 19.7575 23.3179 19.7579 23.3267 19.7579C24.2406 19.7578 25.0976 19.4036 25.7387 18.7614C26.3812 18.1197 26.7351 17.2634 26.7351 16.3503C26.7351 15.7118 26.5614 15.1013 26.2377 14.5725L29.0476 11.7638C29.2569 11.5553 29.5151 11.4244 29.7857 11.3704C29.815 11.3673 29.8439 11.3626 29.8726 11.357C30.3067 11.2971 30.7627 11.4311 31.0947 11.7618C31.6571 12.3251 31.6571 13.2417 31.0968 13.8031L30.241 14.6553C30.2382 14.6581 30.2352 14.6607 30.2323 14.6635L29.2467 15.6475C28.8623 16.0313 28.8619 16.654 29.2458 17.0383C29.6298 17.4227 30.2524 17.423 30.6366 17.0392L31.4958 16.1812C31.496 16.181 31.4962 16.1808 31.4964 16.1806L31.6263 16.0512C32.1902 15.4924 33.1039 15.4936 33.6673 16.0562C33.9384 16.3261 34.0877 16.6877 34.0877 17.0744C34.0877 17.4611 33.9384 17.8227 33.6651 18.0948L32.8045 18.9572C32.8044 18.9573 32.8043 18.9574 32.8042 18.9576L31.8186 19.9391C31.4338 20.3224 31.4325 20.9452 31.8158 21.3299C32.1991 21.7148 32.8218 21.716 33.2066 21.3328L34.1967 20.3467C34.4673 20.0756 34.8299 19.9264 35.2178 19.9264C35.6058 19.9264 35.9685 20.0756 36.241 20.3487C36.5121 20.6187 36.6613 20.9803 36.6613 21.367C36.6613 21.7536 36.5121 22.1153 36.2395 22.3868L34.5236 24.1033C34.1396 24.4874 34.1397 25.1101 34.5238 25.4941C34.7159 25.6861 34.9675 25.782 35.2191 25.782C35.4709 25.782 35.7227 25.6859 35.9146 25.4938L36.7556 24.6526C36.7603 24.648 36.7655 24.644 36.7703 24.6392C37.0409 24.3681 37.4035 24.2189 37.7914 24.2189C38.1794 24.2189 38.542 24.3681 38.8136 24.6402C39.3754 25.2014 39.3749 26.1164 38.8136 26.6787L37.9586 27.5328C37.9583 27.533 37.9579 27.5333 37.9576 27.5336C37.9573 27.5339 37.957 27.5343 37.9567 27.5346L36.5997 28.89C36.2154 29.2739 36.215 29.8966 36.5988 30.2809C36.7909 30.4732 37.0429 30.5694 37.2947 30.5694C37.5462 30.5694 37.7978 30.4735 37.9897 30.2818L38.6535 29.6188L41.8349 32.7964L32.7768 41.8435L29.5312 38.6019C29.7575 38.4564 29.974 38.2853 30.1772 38.0821L31.0518 37.2086C31.4362 36.8249 31.4366 36.2022 31.0527 35.8179ZM47.5643 37.0359L37.0231 47.5642C36.7766 47.8105 36.4465 47.9461 36.0938 47.9461C35.741 47.9461 35.4109 47.8105 35.1643 47.5641L33.4263 45.8283C33.18 45.5824 33.0443 45.2533 33.0443 44.9016C33.0443 44.55 33.18 44.2209 33.4263 43.9749L43.9674 33.4466C44.2141 33.2002 44.544 33.0646 44.8969 33.0646C45.2496 33.0646 45.5797 33.2002 45.827 33.4472L47.5644 35.1797C47.8106 35.4257 47.9463 35.7552 47.9463 36.1078C47.9462 36.4604 47.8105 36.79 47.5643 37.0359Z"/>
</mask>
<path d="M48.9537 33.7876L47.2163 32.0551C46.5982 31.4378 45.7745 31.0978 44.8968 31.0978C44.3355 31.0978 43.7968 31.2374 43.3193 31.4991L40.0453 28.2289L40.2048 28.0697C41.533 26.7388 41.5325 24.5762 40.2047 23.2498C39.7302 22.7745 39.1381 22.4575 38.4927 22.3241C38.5815 22.0173 38.6283 21.696 38.6283 21.3672C38.6283 20.4536 38.2734 19.597 37.6311 18.9573C37.1564 18.4819 36.5644 18.1649 35.919 18.0315C36.0079 17.7247 36.0547 17.4036 36.0547 17.0746C36.0547 16.161 35.6998 15.3044 35.0563 14.6637C34.5704 14.1784 33.973 13.8711 33.3458 13.7404C33.6813 12.5834 33.3946 11.2818 32.4845 10.3701C31.7269 9.61566 30.6988 9.29144 29.7081 9.39652L23.2203 8.16849C22.2309 7.9808 20.9952 7.85668 20.2152 8.5681C20.166 8.61302 20.1158 8.66468 20.0664 8.7222C18.857 8.28138 17.4465 8.54388 16.478 9.51127C15.8355 10.153 15.4816 11.0092 15.4816 11.9223C15.4816 12.2512 15.5282 12.5724 15.617 12.8792C14.9723 13.0125 14.381 13.3291 13.908 13.803C13.2643 14.4441 12.9093 15.2994 12.9086 16.2114C12.9083 16.5411 12.9551 16.8633 13.0443 17.1709C12.3993 17.3039 11.8076 17.62 11.3332 18.0938C10.6895 18.7369 10.335 19.5936 10.335 20.5062C10.335 21.2052 10.5437 21.8711 10.9304 22.4336C10.4421 22.5992 9.99482 22.8746 9.62031 23.2488C8.29121 24.5762 8.29072 26.7389 9.62119 28.0717L9.78008 28.2299L6.50566 31.4984C5.28877 30.9254 3.78945 31.1401 2.78525 32.143L1.04678 33.8766C0.428418 34.4942 0.0879883 35.318 0.0878906 36.1962C0.0878906 37.0745 0.428418 37.8985 1.04678 38.5161L3.21641 40.6831C3.60068 41.067 4.22344 41.0666 4.60723 40.6824C4.99111 40.2981 4.99072 39.6753 4.60645 39.2915L2.43682 37.1245C2.19053 36.8786 2.05488 36.5489 2.05488 36.1963C2.05488 35.8439 2.19053 35.5143 2.43623 35.2689L4.1748 33.5352C4.60918 33.1013 5.27402 33.0367 5.77891 33.3385C5.81445 33.3919 5.85557 33.4427 5.90264 33.4899C5.98691 33.5744 6.08311 33.6391 6.18525 33.6865L16.1553 43.6418C16.2026 43.7451 16.2677 43.8422 16.3525 43.9272C16.4352 44.0099 16.5294 44.0739 16.6294 44.1209C16.8402 44.3593 16.9567 44.6638 16.9567 44.9886C16.9567 45.3412 16.8211 45.6707 16.5748 45.9167L14.838 47.6515C14.3248 48.1624 13.49 48.1623 12.9784 47.6531L10.8088 45.4832C10.4247 45.0992 9.80205 45.0992 9.41797 45.4832C9.03389 45.8673 9.03389 46.49 9.41797 46.8741L11.5892 49.0454C12.2282 49.6819 13.0675 49.9999 13.9071 49.9999C14.747 49.9999 15.5872 49.6814 16.2271 49.0444L17.9649 47.3085C18.5833 46.6909 18.9238 45.867 18.9238 44.9886C18.9238 44.3618 18.7495 43.7631 18.4254 43.2469L22.1105 39.5662C22.1145 39.5622 22.1184 39.5582 22.1224 39.5542C22.5443 39.118 23.7194 39.1996 24.8559 39.2786C25.6633 39.3347 26.5635 39.3971 27.443 39.2957L31.4785 43.3265C31.2171 43.8032 31.0775 44.3412 31.0775 44.9016C31.0775 45.779 31.4181 46.6024 32.0364 47.2201L33.7744 48.9559C34.3924 49.5732 35.2161 49.9132 36.0938 49.9132C36.9715 49.9132 37.7952 49.5733 38.4133 48.9559L48.9544 38.4276C49.5728 37.81 49.9133 36.9862 49.9133 36.1078C49.9132 35.2296 49.5727 34.4058 48.9537 33.7876ZM22.8541 10.1011L27.1204 10.9086L24.5668 13.4613C24.1718 13.2714 23.6304 12.9173 23.0364 12.3492C22.2234 11.5714 21.6419 10.6735 21.589 10.1134C21.5889 10.1131 21.5889 10.1128 21.5889 10.1125C21.5889 10.1124 21.5888 10.1123 21.5888 10.1122C21.585 10.072 21.584 10.0399 21.5845 10.0154C21.7131 9.98412 22.0547 9.94945 22.8541 10.1011ZM17.868 10.903C18.3662 10.4052 19.1402 10.3478 19.7032 10.729C20.0223 12.0667 21.1634 13.2791 21.6768 13.7703C22.0572 14.1344 23.278 15.2259 24.5103 15.5259C24.677 15.7649 24.7677 16.0497 24.7677 16.3503C24.7677 16.7375 24.6188 17.0995 24.3474 17.3706C24.0768 17.6417 23.7142 17.791 23.3263 17.791C22.9383 17.791 22.5757 17.6417 22.3038 17.3694L22.3037 17.3693L22.3032 17.3688L17.8679 12.9414C17.5975 12.6714 17.4485 12.3094 17.4485 11.9223C17.4486 11.5351 17.5976 11.1731 17.868 10.903ZM15.298 15.1947C15.5687 14.9237 15.9309 14.7744 16.3182 14.7744C16.706 14.7744 17.0693 14.924 17.3417 15.196L20.9132 18.7604C21.4756 19.3237 21.4756 20.2403 20.9151 20.8016C20.6431 21.0726 20.2792 21.2218 19.8906 21.2218C19.5021 21.2218 19.1382 21.0726 18.8673 20.8028L18.8672 20.8027L16.1577 18.0938C16.1535 18.0896 16.1489 18.0857 16.1446 18.0814L15.297 17.2341C15.025 16.9624 14.8753 16.5997 14.8756 16.2128C14.876 15.8272 15.0252 15.4663 15.298 15.1947ZM12.7232 19.4855C12.994 19.2151 13.357 19.0661 13.7455 19.0661C14.1308 19.0661 14.4906 19.2129 14.7603 19.4786L17.478 22.1952C17.749 22.4651 17.8983 22.8267 17.8983 23.2134C17.8983 23.6 17.749 23.9617 17.477 24.2327C17.2062 24.503 16.8437 24.6519 16.4559 24.6519C16.0675 24.6519 15.7037 24.5026 15.4326 24.2327L14.4474 23.2486C14.4472 23.2483 14.4469 23.2481 14.4467 23.2479L12.7233 21.5266C12.4517 21.2552 12.3021 20.8927 12.3021 20.506C12.3021 20.1194 12.4517 19.7568 12.7232 19.4855ZM11.0104 24.6404C11.2823 24.3687 11.6458 24.2191 12.0338 24.2191C12.4217 24.2191 12.7851 24.3686 13.0569 24.6401L14.0436 25.6255C14.3146 25.8954 14.4639 26.2571 14.4639 26.6438C14.4639 27.0305 14.3146 27.392 14.0415 27.6641C13.7709 27.9351 13.4083 28.0844 13.0204 28.0844C12.6324 28.0844 12.2698 27.9352 11.9973 27.6621L11.8737 27.5391C11.8721 27.5374 11.8708 27.5357 11.8692 27.5341C11.8674 27.5324 11.8654 27.5308 11.8636 27.529L11.0113 26.6801C10.4489 26.1165 10.4484 25.2016 11.0104 24.6404ZM31.0527 35.8179C30.6688 35.4335 30.0461 35.4332 29.6619 35.817L28.7869 36.691C27.9555 37.5224 26.4489 37.4177 24.992 37.3166C23.4099 37.2067 21.7738 37.0932 20.7151 38.1801L17.0926 41.7983L8.03369 32.7527L11.2396 29.5526C11.7694 29.8774 12.3809 30.0515 13.0206 30.0515C13.9346 30.0515 14.7916 29.6972 15.4317 29.0559C16.0762 28.4141 16.4312 27.5576 16.4312 26.6439C16.4312 26.6354 16.4306 26.627 16.4306 26.6185C16.4391 26.6186 16.4476 26.6191 16.4561 26.6191C17.3687 26.6191 18.2251 26.2659 18.8661 25.6256C19.5105 24.9838 19.8655 24.1272 19.8655 23.2136C19.8655 23.2051 19.8649 23.1967 19.8649 23.1882C19.8735 23.1882 19.8821 23.1888 19.8908 23.1888C20.8032 23.1888 21.6601 22.836 22.3054 22.1933C22.9753 21.5223 23.3066 20.6389 23.3003 19.7574C23.3091 19.7575 23.3179 19.7579 23.3267 19.7579C24.2406 19.7578 25.0976 19.4036 25.7387 18.7614C26.3812 18.1197 26.7351 17.2634 26.7351 16.3503C26.7351 15.7118 26.5614 15.1013 26.2377 14.5725L29.0476 11.7638C29.2569 11.5553 29.5151 11.4244 29.7857 11.3704C29.815 11.3673 29.8439 11.3626 29.8726 11.357C30.3067 11.2971 30.7627 11.4311 31.0947 11.7618C31.6571 12.3251 31.6571 13.2417 31.0968 13.8031L30.241 14.6553C30.2382 14.6581 30.2352 14.6607 30.2323 14.6635L29.2467 15.6475C28.8623 16.0313 28.8619 16.654 29.2458 17.0383C29.6298 17.4227 30.2524 17.423 30.6366 17.0392L31.4958 16.1812C31.496 16.181 31.4962 16.1808 31.4964 16.1806L31.6263 16.0512C32.1902 15.4924 33.1039 15.4936 33.6673 16.0562C33.9384 16.3261 34.0877 16.6877 34.0877 17.0744C34.0877 17.4611 33.9384 17.8227 33.6651 18.0948L32.8045 18.9572C32.8044 18.9573 32.8043 18.9574 32.8042 18.9576L31.8186 19.9391C31.4338 20.3224 31.4325 20.9452 31.8158 21.3299C32.1991 21.7148 32.8218 21.716 33.2066 21.3328L34.1967 20.3467C34.4673 20.0756 34.8299 19.9264 35.2178 19.9264C35.6058 19.9264 35.9685 20.0756 36.241 20.3487C36.5121 20.6187 36.6613 20.9803 36.6613 21.367C36.6613 21.7536 36.5121 22.1153 36.2395 22.3868L34.5236 24.1033C34.1396 24.4874 34.1397 25.1101 34.5238 25.4941C34.7159 25.6861 34.9675 25.782 35.2191 25.782C35.4709 25.782 35.7227 25.6859 35.9146 25.4938L36.7556 24.6526C36.7603 24.648 36.7655 24.644 36.7703 24.6392C37.0409 24.3681 37.4035 24.2189 37.7914 24.2189C38.1794 24.2189 38.542 24.3681 38.8136 24.6402C39.3754 25.2014 39.3749 26.1164 38.8136 26.6787L37.9586 27.5328C37.9583 27.533 37.9579 27.5333 37.9576 27.5336C37.9573 27.5339 37.957 27.5343 37.9567 27.5346L36.5997 28.89C36.2154 29.2739 36.215 29.8966 36.5988 30.2809C36.7909 30.4732 37.0429 30.5694 37.2947 30.5694C37.5462 30.5694 37.7978 30.4735 37.9897 30.2818L38.6535 29.6188L41.8349 32.7964L32.7768 41.8435L29.5312 38.6019C29.7575 38.4564 29.974 38.2853 30.1772 38.0821L31.0518 37.2086C31.4362 36.8249 31.4366 36.2022 31.0527 35.8179ZM47.5643 37.0359L37.0231 47.5642C36.7766 47.8105 36.4465 47.9461 36.0938 47.9461C35.741 47.9461 35.4109 47.8105 35.1643 47.5641L33.4263 45.8283C33.18 45.5824 33.0443 45.2533 33.0443 44.9016C33.0443 44.55 33.18 44.2209 33.4263 43.9749L43.9674 33.4466C44.2141 33.2002 44.544 33.0646 44.8969 33.0646C45.2496 33.0646 45.5797 33.2002 45.827 33.4472L47.5644 35.1797C47.8106 35.4257 47.9463 35.7552 47.9463 36.1078C47.9462 36.4604 47.8105 36.79 47.5643 37.0359Z" fill="#2D536E" stroke="white" stroke-width="0.4" mask="url(#path-2-inside-1)"/>
<path d="M9.58802 0.626255L9.58803 0.626262L13.1718 4.20292L13.2425 4.13214L13.1718 4.20292C13.5172 4.5476 13.5177 5.10694 13.173 5.45232C13.0005 5.62525 12.7742 5.71173 12.5477 5.71173C12.3218 5.71173 12.0961 5.62578 11.9236 5.45364L8.33986 1.87689L8.33985 1.87689C7.99448 1.53221 7.99394 0.972874 8.33863 0.627487L8.33864 0.627478C8.6833 0.282025 9.24273 0.281576 9.58802 0.626255Z" fill="#2D536E" stroke="white" stroke-width="0.2"/>
<path d="M41.4835 0.627185L41.4835 0.627193C41.8284 0.972394 41.828 1.53182 41.4828 1.87658L41.5535 1.94734L41.4828 1.87659L37.9018 5.45333C37.9018 5.45334 37.9018 5.45334 37.9018 5.45334C37.7293 5.62557 37.5035 5.71169 37.2774 5.71169C37.051 5.71169 36.8249 5.62539 36.6524 5.45264C36.3075 5.10744 36.3079 4.54801 36.6531 4.20325L36.6531 4.20325L40.2341 0.626493C40.2341 0.626492 40.2341 0.626491 40.2341 0.626491C40.5794 0.281627 41.1388 0.281992 41.4835 0.627185Z" fill="#2D536E" stroke="white" stroke-width="0.2"/>
<path d="M6.21954 43.6274L6.21953 43.6274C6.39121 43.7962 6.61387 43.8801 6.83673 43.8801C7.06551 43.8801 7.29409 43.7917 7.46747 43.6153L7.46747 43.6153C7.80933 43.2676 7.8035 42.7068 7.45539 42.3645L7.45538 42.3645C7.10759 42.0225 6.54826 42.0273 6.20599 42.3752L6.21954 43.6274ZM6.21954 43.6274L6.21887 43.6267M6.21954 43.6274L6.21887 43.6267M6.21887 43.6267L6.21637 43.6243M6.21887 43.6267L6.21637 43.6243M6.21637 43.6243C5.86869 43.2823 5.86405 42.7231 6.20597 42.3753L6.21637 43.6243Z" fill="#2D536E" stroke="white" stroke-width="0.2"/>
<path d="M33.0605 32.6284L33.0605 32.6284L33.0608 32.6282C33.4963 32.4085 34.0277 32.5836 34.2475 33.0192C34.4671 33.4549 34.2921 33.9861 33.8565 34.2059C33.7283 34.2705 33.592 34.301 33.4577 34.301C33.1337 34.301 32.822 34.1236 32.6671 33.8163L32.6671 33.8163C32.4472 33.3803 32.6201 32.8505 33.0553 32.631L33.0605 32.6284Z" fill="#2D536E" stroke="white" stroke-width="0.2"/>
</svg>
