<svg width="50" height="50" viewBox="0 0 50 50" fill="none" xmlns="http://www.w3.org/2000/svg">
<g clip-path="url(#clip0)">
<path d="M42.4838 16.7083C42.4832 16.7083 42.4826 16.7083 42.4821 16.7083H0.715873C0.320974 16.7078 0.000418071 17.0276 4.08739e-07 17.4225C4.08739e-07 17.423 4.08739e-07 17.4236 4.08739e-07 17.4241V37.4719C-0.000417253 37.8668 0.319303 38.1874 0.714203 38.1878C0.714725 38.1878 0.715351 38.1878 0.715873 38.1878H29.1169C29.5122 38.1878 29.8328 37.8672 29.8328 37.4719C29.8328 37.0766 29.5122 36.756 29.1169 36.756H1.43175V18.14H41.7662V19.9301C41.7658 20.325 42.0855 20.6456 42.4804 20.646C42.4809 20.646 42.4816 20.646 42.4821 20.646C42.877 20.6464 43.1975 20.3267 43.198 19.9318C43.198 19.9312 43.198 19.9306 43.198 19.9301V17.4241C43.1984 17.0292 42.8787 16.7088 42.4838 16.7083Z" fill="#2D536E"/>
<path d="M37.627 13.3846L4.21399 5.86669C4.02855 5.82524 3.83423 5.85886 3.67354 5.96024C3.51305 6.06247 3.39955 6.224 3.35778 6.40965L1.68714 13.9276C1.60131 14.3137 1.8448 14.6963 2.23093 14.7821C2.61706 14.8679 2.99964 14.6244 3.08547 14.2383L4.59991 7.42123L37.3129 14.7813C37.3647 14.7933 37.4176 14.7992 37.4708 14.7988C37.8661 14.7981 38.186 14.477 38.1854 14.0817C38.1847 13.7474 37.9529 13.4582 37.627 13.3846Z" fill="#2D536E"/>
<path d="M33.5696 9.24218L13.5218 0.888934C13.1734 0.743692 12.7719 0.892902 12.6029 1.23058L10.9323 4.57188C10.7436 4.92084 10.8735 5.35677 11.2226 5.54545C11.5715 5.73413 12.0075 5.60423 12.1961 5.25517C12.2036 5.2415 12.2105 5.2275 12.217 5.2133V5.21497L13.5878 2.47177L33.0166 10.5669C33.3825 10.7196 33.8028 10.5468 33.9555 10.181C34.1082 9.81531 33.9355 9.39494 33.5696 9.24218Z" fill="#2D536E"/>
<path d="M34.0763 20.0496H27.4463C27.051 20.0496 26.7305 20.3701 26.7305 20.7654C26.7305 21.1608 27.051 21.4813 27.4463 21.4813H34.0763C34.4716 21.4813 34.7922 21.1608 34.7922 20.7654C34.7922 20.3701 34.4716 20.0496 34.0763 20.0496Z" fill="#2D536E"/>
<path d="M20.7639 20.0972C16.7042 20.0972 13.4131 23.3882 13.4131 27.448C13.4173 31.506 16.7059 34.7947 20.7639 34.7989C24.8237 34.7989 28.1148 31.5078 28.1148 27.448C28.1148 23.3882 24.8237 20.0972 20.7639 20.0972ZM20.7639 33.4623C17.4423 33.4623 14.7496 30.7697 14.7496 27.448C14.7533 24.1279 17.4438 21.4373 20.7639 21.4337C24.0856 21.4337 26.7783 24.1263 26.7783 27.448C26.7783 30.7697 24.0856 33.4623 20.7639 33.4623Z" fill="#2D536E"/>
<path d="M40.8106 22.436C36.3834 22.436 31.6221 23.4819 31.6221 25.7773V45.8251C31.6221 48.1206 36.3834 49.1664 40.8106 49.1664C45.2379 49.1664 49.9992 48.1206 49.9992 45.8251V25.7773C49.9992 23.4819 45.2379 22.436 40.8106 22.436ZM48.3286 45.8126C48.2024 46.2762 45.6973 47.4957 40.8106 47.4957C35.924 47.4957 33.4189 46.2762 33.2927 45.8251V44.512C35.0703 45.4074 38.0065 45.8251 40.8106 45.8251C43.6148 45.8251 46.5518 45.4033 48.3286 44.5111V45.8126ZM48.3286 42.4713C48.2024 42.9349 45.6973 44.1544 40.8106 44.1544C35.924 44.1544 33.4189 42.9349 33.2927 42.4838V41.1707C35.0703 42.0661 38.0065 42.4838 40.8106 42.4838C43.6148 42.4838 46.5518 42.062 48.3286 41.1698V42.4713ZM48.3286 39.13C48.2024 39.5936 45.6973 40.8132 40.8106 40.8132C35.924 40.8132 33.4189 39.5936 33.2927 39.1425V37.8294C35.0703 38.7248 38.0065 39.1425 40.8106 39.1425C43.6148 39.1425 46.5518 38.7207 48.3286 37.8285V39.13ZM48.3286 35.7887C48.2024 36.2523 45.6973 37.4719 40.8106 37.4719C35.924 37.4719 33.4189 36.2523 33.2927 35.8012V34.4881C35.0703 35.3836 38.0065 35.8012 40.8106 35.8012C43.6148 35.8012 46.5518 35.3794 48.3286 34.4873V35.7887ZM48.3286 32.4474C48.2024 32.911 45.6973 34.1306 40.8106 34.1306C35.924 34.1306 33.4189 32.911 33.2927 32.4599V31.1468C35.0703 32.0381 38.0065 32.4599 40.8106 32.4599C43.6148 32.4599 46.5518 32.0381 48.3286 31.146V32.4474ZM48.3286 29.1061C48.2024 29.5697 45.6973 30.7893 40.8106 30.7893C35.924 30.7893 33.4189 29.5697 33.2927 29.1186V27.8055C35.0703 28.6968 38.0065 29.1186 40.8106 29.1186C43.6148 29.1186 46.5518 28.6968 48.3286 27.8047V29.1061ZM40.8106 27.448C35.9315 27.448 33.4272 26.2317 33.2927 25.7924V25.7874C33.4272 25.3221 35.9315 24.1067 40.8106 24.1067C45.6555 24.1067 48.1615 25.3045 48.3286 25.7773C48.1615 26.2501 45.6555 27.448 40.8106 27.448Z" fill="#2D536E"/>
<path d="M14.0804 33.4139H7.76623L4.77243 30.1394V24.7098L8.07864 21.4813H14.0804C14.4758 21.4813 14.7963 21.1608 14.7963 20.7654C14.7963 20.3701 14.4758 20.0496 14.0804 20.0496H7.78795C7.60083 20.0491 7.42093 20.122 7.28675 20.2525L3.55536 23.892C3.41596 24.0549 3.33953 24.2624 3.33984 24.4768V30.4176C3.33984 30.5962 3.40657 30.7684 3.52696 30.9004L6.92088 34.6126C7.05652 34.7611 7.24843 34.8457 7.44964 34.8456H14.0804C14.4758 34.8456 14.7963 34.5251 14.7963 34.1298C14.7963 33.7345 14.4759 33.4139 14.0804 33.4139Z" fill="#2D536E"/>
<path d="M21.1805 26.6126H20.3451C20.0854 26.6126 19.9275 26.4672 19.9275 26.4038C19.9275 26.3403 20.0854 26.1949 20.3451 26.1949H22.4335C22.8948 26.1949 23.2688 25.8209 23.2688 25.3596C23.2688 24.8983 22.8948 24.5243 22.4335 24.5243H21.5981C21.5981 24.063 21.2241 23.689 20.7628 23.689C20.3015 23.689 19.9275 24.063 19.9275 24.5243V24.5619C19.001 24.6927 18.2991 25.4649 18.2568 26.3996C18.3167 27.4948 19.2495 28.3363 20.3451 28.2832H21.1805C21.4403 28.2832 21.5981 28.4286 21.5981 28.4921C21.5981 28.5556 21.4403 28.7009 21.1805 28.7009H19.0922C18.6309 28.7009 18.2568 29.0749 18.2568 29.5362C18.2568 29.9975 18.6309 30.3715 19.0922 30.3715H19.9275C19.9275 30.8328 20.3015 31.2069 20.7628 31.2069C21.2241 31.2069 21.5981 30.8328 21.5981 30.3715V30.334C22.5246 30.2031 23.2265 29.431 23.2688 28.4962C23.2089 27.401 22.2761 26.5596 21.1805 26.6126Z" fill="#2D536E"/>
</g>
<defs>
<clipPath id="clip0">
<rect width="50" height="50" fill="white"/>
</clipPath>
</defs>
</svg>
