<svg width="40" height="40" viewBox="0 0 40 40" fill="none" xmlns="http://www.w3.org/2000/svg">
<path d="M26.3 0.78125C26.3 0.377458 26.6275 0.05 27.0312 0.05C27.435 0.05 27.7625 0.377458 27.7625 0.78125V4.375C27.7625 4.77879 27.435 5.10625 27.0312 5.10625C26.6275 5.10625 26.3 4.77879 26.3 4.375V0.78125Z" fill="#2CC140" stroke="white" stroke-width="0.1"/>
<path d="M8.33125 25.1562C8.33125 24.7526 8.65886 24.425 9.0625 24.425C9.46614 24.425 9.79375 24.7526 9.79375 25.1562C9.79375 25.5599 9.46614 25.8875 9.0625 25.8875C8.65886 25.8875 8.33125 25.5599 8.33125 25.1562Z" fill="#2D536E" stroke="white" stroke-width="0.1"/>
<path d="M28.965 19.6693L28.9384 19.7375H29.0116H34.8438C36.5393 19.7375 37.9188 21.117 37.9188 22.8125C37.9188 24.1653 37.0485 25.3001 35.8608 25.7155L35.7998 25.7368L35.8358 25.7905C36.1643 26.2798 36.3563 26.8678 36.3563 27.5C36.3563 28.8529 35.4864 29.9851 34.304 30.4011L34.2433 30.4225L34.279 30.476C34.6064 30.9674 34.7938 31.5574 34.7938 32.1875C34.7938 33.5403 33.9235 34.6751 32.7358 35.0905L32.6748 35.1118L32.7108 35.1655C33.0393 35.6548 33.2313 36.2428 33.2313 36.875C33.2313 38.5705 31.8518 39.95 30.1562 39.95H21.7547C18.1064 39.95 16.6085 39.5588 13.8826 38.8469C13.5429 38.7581 13.1747 38.662 12.7781 38.5602L12.7373 38.5498L12.7201 38.5883C12.362 39.3899 11.5578 39.95 10.625 39.95H2.8125C2.40871 39.95 2.08125 39.6225 2.08125 39.2188V20.4688C2.08125 20.065 2.40871 19.7375 2.8125 19.7375H10.625C11.564 19.7375 12.3729 20.3051 12.7273 21.1153L12.7442 21.1539L12.7852 21.1438C15.1822 20.5478 17.9716 19.5544 20.1631 18.0894C22.354 16.6248 23.9562 14.6823 23.9562 12.1875V11.4062C23.9562 9.71074 25.3357 8.33125 27.0312 8.33125C28.7006 8.33125 30.0646 9.67136 30.1043 11.3324L30.104 11.3324L30.1048 11.3382C30.1283 11.5035 30.146 11.7684 30.1595 12.2308C30.2298 14.6487 29.865 17.364 28.965 19.6693ZM3.54375 38.4375V38.4875H3.59375H10.625C11.0834 38.4875 11.4563 38.1146 11.4563 37.6562V22.0312C11.4563 21.5729 11.0834 21.2 10.625 21.2H3.59375H3.54375V21.25V38.4375ZM12.9187 37.0479V37.0867L12.9564 37.0963C13.4269 37.2163 13.8585 37.329 14.2522 37.4318C16.9414 38.1341 18.295 38.4875 21.7547 38.4875H30.1562C31.0454 38.4875 31.7687 37.7642 31.7687 36.875C31.7687 35.9858 31.0454 35.2625 30.1562 35.2625H27.8125C27.4087 35.2625 27.0812 34.935 27.0812 34.5312C27.0812 34.1275 27.4087 33.8 27.8125 33.8H27.8232H27.8339H27.8445H27.8552H27.8657H27.8763H27.8868H27.8973H27.9077H27.9182H27.9286H27.9389H27.9493H27.9596H27.9698H27.9801H27.9903H28.0004H28.0106H28.0207H28.0308H28.0408H28.0508H28.0608H28.0708H28.0807H28.0906H28.1005H28.1104H28.1202H28.13H28.1397H28.1494H28.1591H28.1688H28.1785H28.1881H28.1977H28.2072H28.2167H28.2262H28.2357H28.2452H28.2546H28.264H28.2733H28.2827H28.292H28.3013H28.3105H28.3197H28.3289H28.3381H28.3473H28.3564H28.3655H28.3746H28.3836H28.3926H28.4016H28.4106H28.4195H28.4284H28.4373H28.4462H28.455H28.4639H28.4727H28.4814H28.4902H28.4989H28.5076H28.5163H28.5249H28.5335H28.5421H28.5507H28.5593H28.5678H28.5763H28.5848H28.5932H28.6017H28.6101H28.6185H28.6269H28.6352H28.6435H28.6518H28.6601H28.6684H28.6766H28.6848H28.693H28.7012H28.7093H28.7175H28.7256H28.7337H28.7417H28.7498H28.7578H28.7658H28.7738H28.7818H28.7897H28.7976H28.8056H28.8134H28.8213H28.8292H28.837H28.8448H28.8526H28.8603H28.8681H28.8758H28.8835H28.8912H28.8989H28.9066H28.9142H28.9218H28.9295H28.937H28.9446H28.9522H28.9597H28.9672H28.9747H28.9822H28.9897H28.9971H29.0046H29.012H29.0194H29.0268H29.0341H29.0415H29.0488H29.0561H29.0634H29.0707H29.078H29.0853H29.0925H29.0997H29.1069H29.1141H29.1213H29.1285H29.1356H29.1428H29.1499H29.157H29.1641H29.1712H29.1783H29.1853H29.1924H29.1994H29.2064H29.2134H29.2204H29.2274H29.2343H29.2413H29.2482H29.2552H29.2621H29.269H29.2759H29.2827H29.2896H29.2965H29.3033H29.3101H29.317H29.3238H29.3306H29.3373H29.3441H29.3509H29.3576H29.3644H29.3711H29.3778H29.3846H29.3913H29.3979H29.4046H29.4113H29.418H29.4246H29.4313H29.4379H29.4445H29.4512H29.4578H29.4644H29.471H29.4775H29.4841H29.4907H29.4972H29.5038H29.5103H29.5169H29.5234H29.5299H29.5364H29.5429H29.5494H29.5559H29.5624H29.5689H29.5754H29.5818H29.5883H29.5947H29.6012H29.6076H29.6141H29.6205H29.6269H29.6333H29.6397H29.6462H29.6526H29.659H29.6653H29.6717H29.6781H29.6845H29.6909H29.6972H29.7036H29.71H29.7163H29.7227H29.729H29.7354H29.7417H29.748H29.7544H29.7607H29.767H29.7734H29.7797H29.786H29.7923H29.7987H29.805H29.8113H29.8176H29.8239H29.8302H29.8365H29.8428H29.8491H29.8554H29.8617H29.868H29.8743H29.8806H29.8869H29.8932H29.8995H29.9058H29.9121H29.9184H29.9247H29.931H29.9373H29.9436H29.9498H29.9561H29.9624H29.9687H29.975H29.9813H29.9876H29.9939H30.0002H30.0065H30.0129H30.0192H30.0255H30.0318H30.0381H30.0444H30.0507H30.0571H30.0634H30.0697H30.0761H30.0824H30.0887H30.0951H30.1014H30.1078H30.1141H30.1205H30.1268H30.1332H30.1396H30.1459H30.1523H30.1587H30.1651H30.1715H30.1779H30.1843H30.1907H30.1971H30.2035H30.2099H30.2163H30.2228H30.2292H30.2356H30.2421H30.2486H30.255H30.2615H30.268H30.2744H30.2809H30.2874H30.2939H30.3004H30.307H30.3135H30.32H30.3266H30.3331H30.3397H30.3462H30.3528H30.3594H30.366H30.3726H30.3792H30.3858H30.3924H30.399H30.4057H30.4123H30.419H30.4257H30.4324H30.439H30.4457H30.4524H30.4592H30.4659H30.4726H30.4794H30.4861H30.4929H30.4997H30.5065H30.5133H30.5201H30.5269H30.5338H30.5406H30.5475H30.5544H30.5613H30.5681H30.5751H30.582H30.5889H30.5959H30.6028H30.6098H30.6168H30.6238H30.6308H30.6378H30.6448H30.6519H30.659H30.666H30.6731H30.6802H30.6874H30.6945H30.7016H30.7088H30.716H30.7232H30.7304H30.7376H30.7448H30.7521H30.7594H30.7666H30.7739H30.7812H30.7886H30.7959H30.8033H30.8107H30.8181H30.8255H30.8329H30.8403H30.8478H30.8553H30.8628H30.8703H30.8778H30.8854H30.8929H30.9005H30.9081H30.9157H30.9234H30.931H30.9387H30.9464H30.9541H30.9618H30.9695H30.9773H30.9851H30.9929H31.0007H31.0086H31.0164H31.0243H31.0322H31.0401H31.048H31.056H31.064H31.072H31.08H31.088H31.0961H31.1042H31.1123H31.1204H31.1285H31.1367H31.1449H31.1531H31.1613H31.1696H31.1779H31.1862H31.1945H31.2028H31.2112H31.2196H31.228H31.2364H31.2448H31.2533H31.2618H31.2703H31.2789H31.2874H31.296H31.3047H31.3133H31.322H31.3306H31.3393H31.3481H31.3568H31.3656H31.3744H31.3833H31.3921H31.401H31.4099H31.4188H31.4278H31.4368H31.4458H31.4548H31.4639H31.473H31.4821H31.4912H31.5004H31.5096H31.5188H31.5281H31.5373H31.5466H31.556H31.5653H31.5747H31.5841H31.5935H31.603H31.6125H31.622H31.6316H31.6411H31.6507H31.6604H31.67H31.6797H31.6894H31.6992H31.7089H31.7188C32.6093 33.8 33.3312 33.0781 33.3312 32.1875C33.3312 31.2768 32.597 30.575 31.7188 30.575H29.375C28.9712 30.575 28.6437 30.2475 28.6437 29.8438C28.6437 29.44 28.9712 29.1125 29.375 29.1125H33.2812C34.1718 29.1125 34.8937 28.3906 34.8937 27.5C34.8937 26.6108 34.1704 25.8875 33.2812 25.8875H30.9375C30.5337 25.8875 30.2062 25.56 30.2062 25.1562C30.2062 24.7525 30.5337 24.425 30.9375 24.425H30.9482H30.9589H30.9695H30.9802H30.9907H31.0013H31.0118H31.0223H31.0327H31.0432H31.0536H31.0639H31.0743H31.0846H31.0948H31.1051H31.1153H31.1254H31.1356H31.1457H31.1558H31.1658H31.1758H31.1858H31.1958H31.2057H31.2156H31.2255H31.2354H31.2452H31.255H31.2647H31.2744H31.2841H31.2938H31.3035H31.3131H31.3227H31.3322H31.3417H31.3512H31.3607H31.3702H31.3796H31.389H31.3983H31.4077H31.417H31.4263H31.4355H31.4447H31.4539H31.4631H31.4723H31.4814H31.4905H31.4996H31.5086H31.5176H31.5266H31.5356H31.5445H31.5534H31.5623H31.5712H31.58H31.5889H31.5977H31.6064H31.6152H31.6239H31.6326H31.6413H31.6499H31.6585H31.6671H31.6757H31.6843H31.6928H31.7013H31.7098H31.7182H31.7267H31.7351H31.7435H31.7519H31.7602H31.7685H31.7768H31.7851H31.7934H31.8016H31.8098H31.818H31.8262H31.8343H31.8425H31.8506H31.8587H31.8667H31.8748H31.8828H31.8908H31.8988H31.9068H31.9147H31.9226H31.9306H31.9384H31.9463H31.9542H31.962H31.9698H31.9776H31.9853H31.9931H32.0008H32.0085H32.0162H32.0239H32.0316H32.0392H32.0468H32.0545H32.062H32.0696H32.0772H32.0847H32.0922H32.0997H32.1072H32.1147H32.1221H32.1296H32.137H32.1444H32.1518H32.1591H32.1665H32.1738H32.1811H32.1884H32.1957H32.203H32.2103H32.2175H32.2247H32.2319H32.2391H32.2463H32.2535H32.2606H32.2678H32.2749H32.282H32.2891H32.2962H32.3033H32.3103H32.3174H32.3244H32.3314H32.3384H32.3454H32.3524H32.3593H32.3663H32.3732H32.3802H32.3871H32.394H32.4009H32.4077H32.4146H32.4215H32.4283H32.4351H32.442H32.4488H32.4556H32.4623H32.4691H32.4759H32.4826H32.4894H32.4961H32.5028H32.5096H32.5163H32.5229H32.5296H32.5363H32.543H32.5496H32.5563H32.5629H32.5695H32.5762H32.5828H32.5894H32.596H32.6025H32.6091H32.6157H32.6222H32.6288H32.6353H32.6419H32.6484H32.6549H32.6614H32.6679H32.6744H32.6809H32.6874H32.6939H32.7004H32.7068H32.7133H32.7197H32.7262H32.7326H32.7391H32.7455H32.7519H32.7583H32.7647H32.7712H32.7776H32.784H32.7903H32.7967H32.8031H32.8095H32.8159H32.8222H32.8286H32.835H32.8413H32.8477H32.854H32.8604H32.8667H32.873H32.8794H32.8857H32.892H32.8984H32.9047H32.911H32.9173H32.9237H32.93H32.9363H32.9426H32.9489H32.9552H32.9615H32.9678H32.9741H32.9804H32.9867H32.993H32.9993H33.0056H33.0119H33.0182H33.0245H33.0308H33.0371H33.0434H33.0497H33.056H33.0623H33.0686H33.0748H33.0811H33.0874H33.0937H33.1H33.1063H33.1126H33.1189H33.1252H33.1315H33.1379H33.1442H33.1505H33.1568H33.1631H33.1694H33.1757H33.1821H33.1884H33.1947H33.2011H33.2074H33.2137H33.2201H33.2264H33.2328H33.2391H33.2455H33.2518H33.2582H33.2646H33.2709H33.2773H33.2837H33.2901H33.2965H33.3029H33.3093H33.3157H33.3221H33.3285H33.3349H33.3413H33.3478H33.3542H33.3606H33.3671H33.3736H33.38H33.3865H33.393H33.3994H33.4059H33.4124H33.4189H33.4254H33.432H33.4385H33.445H33.4516H33.4581H33.4647H33.4712H33.4778H33.4844H33.491H33.4976H33.5042H33.5108H33.5174H33.524H33.5307H33.5373H33.544H33.5507H33.5574H33.564H33.5707H33.5774H33.5842H33.5909H33.5976H33.6044H33.6111H33.6179H33.6247H33.6315H33.6383H33.6451H33.6519H33.6588H33.6656H33.6725H33.6794H33.6863H33.6931H33.7001H33.707H33.7139H33.7209H33.7278H33.7348H33.7418H33.7488H33.7558H33.7628H33.7698H33.7769H33.784H33.791H33.7981H33.8052H33.8124H33.8195H33.8266H33.8338H33.841H33.8482H33.8554H33.8626H33.8698H33.8771H33.8844H33.8916H33.8989H33.9062H33.9136H33.9209H33.9283H33.9357H33.9431H33.9505H33.9579H33.9653H33.9728H33.9803H33.9878H33.9953H34.0028H34.0104H34.0179H34.0255H34.0331H34.0407H34.0484H34.056H34.0637H34.0714H34.0791H34.0868H34.0945H34.1023H34.1101H34.1179H34.1257H34.1335H34.1414H34.1493H34.1572H34.1651H34.173H34.181H34.189H34.197H34.205H34.213H34.2211H34.2292H34.2373H34.2454H34.2535H34.2617H34.2699H34.2781H34.2863H34.2946H34.3029H34.3112H34.3195H34.3278H34.3362H34.3446H34.353H34.3614H34.3698H34.3783H34.3868H34.3953H34.4039H34.4124H34.421H34.4297H34.4383H34.447H34.4556H34.4644H34.4731H34.4818H34.4906H34.4994H34.5083H34.5171H34.526H34.5349H34.5438H34.5528H34.5618H34.5708H34.5798H34.5889H34.598H34.6071H34.6162H34.6254H34.6346H34.6438H34.6531H34.6623H34.6716H34.681H34.6903H34.6997H34.7091H34.7185H34.728H34.7375H34.747H34.7565H34.7661H34.7757H34.7854H34.795H34.8047H34.8144H34.8242H34.8339H34.8438C35.7343 24.425 36.4562 23.7031 36.4562 22.8125C36.4562 21.9233 35.7329 21.2 34.8438 21.2H34.8384H34.833H34.8273H34.8215H34.8154H34.8092H34.8029H34.7963H34.7896H34.7827H34.7757H34.7684H34.761H34.7535H34.7457H34.7378H34.7297H34.7215H34.7131H34.7045H34.6958H34.6869H34.6778H34.6686H34.6592H34.6496H34.6399H34.63H34.62H34.6098H34.5994H34.5889H34.5783H34.5675H34.5565H34.5454H34.5341H34.5226H34.511H34.4993H34.4874H34.4754H34.4632H34.4509H34.4384H34.4257H34.413H34.4H34.387H34.3738H34.3604H34.3469H34.3333H34.3195H34.3056H34.2915H34.2773H34.263H34.2485H34.2339H34.2191H34.2042H34.1892H34.1741H34.1588H34.1434H34.1278H34.1121H34.0963H34.0804H34.0643H34.0481H34.0317H34.0153H33.9987H33.982H33.9652H33.9482H33.9311H33.9139H33.8966H33.8792H33.8616H33.8439H33.8261H33.8082H33.7901H33.772H33.7537H33.7353H33.7168H33.6982H33.6794H33.6606H33.6416H33.6226H33.6034H33.5841H33.5647H33.5452H33.5256H33.5059H33.486H33.4661H33.4461H33.4259H33.4057H33.3853H33.3649H33.3443H33.3237H33.3029H33.2821H33.2611H33.2401H33.2189H33.1977H33.1763H33.1549H33.1334H33.1118H33.0901H33.0683H33.0464H33.0244H33.0023H32.9801H32.9579H32.9355H32.9131H32.8906H32.868H32.8453H32.8226H32.7997H32.7768H32.7538H32.7307H32.7075H32.6842H32.6609H32.6375H32.614H32.5904H32.5668H32.5431H32.5193H32.4954H32.4715H32.4475H32.4234H32.3992H32.375H32.3507H32.3263H32.3019H32.2774H32.2528H32.2282H32.2035H32.1787H32.1539H32.129H32.104H32.079H32.0539H32.0288H32.0036H31.9783H31.953H31.9277H31.9022H31.8767H31.8512H31.8256H31.7999H31.7742H31.7485H31.7227H31.6968H31.6709H31.6449H31.6189H31.5929H31.5668H31.5406H31.5144H31.4882H31.4619H31.4356H31.4092H31.3828H31.3563H31.3298H31.3033H31.2767H31.2501H31.2234H31.1967H31.17H31.1432H31.1164H31.0896H31.0627H31.0358H31.0089H30.9819H30.9549H30.9279H30.9008H30.8737H30.8466H30.8194H30.7923H30.7651H30.7379H30.7106H30.6833H30.656H30.6287H30.6014H30.574H30.5466H30.5192H30.4918H30.4644H30.4369H30.4094H30.382H30.3544H30.3269H30.2994H30.2718H30.2443H30.2167H30.1891H30.1615H30.1339H30.1063H30.0787H30.0511H30.0235H29.9958H29.9682H29.9405H29.9129H29.8852H29.8576H29.8299H29.8022H29.7746H29.7469H29.7192H29.6916H29.6639H29.6363H29.6086H29.581H29.5533H29.5257H29.4981H29.4705H29.4429H29.4153H29.3877H29.3601H29.3325H29.305H29.2774H29.2499H29.2224H29.1949H29.1674H29.1399H29.1124H29.085H29.0576H29.0302H29.0028H28.9754H28.9481H28.9208H28.8935H28.8662H28.839H28.8117H28.7845H28.7574H28.7302H28.7031H28.676H28.649H28.6219H28.5949H28.568H28.541H28.5141H28.4872H28.4604H28.4336H28.4068H28.3801H28.3534H28.3268H28.3001H28.2736H28.247H28.2205H28.1941H28.1677H28.1413H28.1149H28.0887H28.0624H28.0362H28.0101H27.984H27.9579H27.9319H27.906H27.88H27.8542H27.8284H27.8026H27.7769H27.7513H27.7257H27.7001H27.6747H27.6492H27.6239H27.5985H27.5733H27.5481H27.523H27.4979H27.4729H27.4479H27.423H27.3982H27.3734H27.3487H27.3241H27.2995H27.275H27.2506H27.2262H27.2019H27.1777H27.1536H27.1295H27.1055H27.0815H27.0577H27.0339H27.0101H26.9865H26.9629H26.9395H26.916H26.8927H26.8695H26.8463H26.8232H26.8002H26.7773H26.7544H26.7316H26.709H26.6864H26.6639H26.6414H26.6191H26.5968H26.5747H26.5526H26.5306H26.5087H26.4869H26.4652H26.4436H26.4221H26.4007H26.3793H26.3581H26.337H26.3159H26.295H26.2741H26.2534H26.2327H26.2122H26.1917H26.1714H26.1511H26.131H26.111H26.091H26.0712H26.0515H26.0319H26.0124H25.993H25.9737H25.9545H25.9355H25.9165H25.8977H25.8789H25.8603H25.8418H25.8234H25.8052H25.787H25.769H25.751H25.7332H25.7156H25.698H25.6806H25.6632H25.646H25.629H25.612H25.5952H25.5785H25.5619H25.5454H25.5291H25.5129H25.4968H25.4809H25.4651H25.4494H25.4339H25.4184H25.4032H25.388H25.373H25.3581H25.3434H25.3288H25.3143H25.3H25.2858H25.2717H25.2578H25.244H25.2304H25.2169H25.2035H25.1903H25.1773H25.1643H25.1516H25.1389H25.1265H25.1141H25.102H25.0899H25.078H25.0663H25.0547H25.0433H25.032H25.0209H25.0099H24.9991H24.9884H24.9779H24.9676H24.9574H24.9474H24.9375H24.9278H24.9183H24.9089H24.8996H24.8906H24.8817H24.8729H24.8644H24.856H24.8477H24.8397H24.8318H24.824H24.8165H24.8091H24.8018H24.7948H24.7879H24.7812H24.7747H24.7683H24.7621H24.7561H24.7503H24.7446H24.7391H24.7338H24.7287H24.7238H24.719H24.7144H24.71H24.7058H24.7018H24.6979H24.6943H24.6908H24.6875C24.2837 21.2 23.9562 20.8725 23.9562 20.4688C23.9562 20.065 24.2837 19.7375 24.6875 19.7375H27.3183H27.3506L27.3639 19.708C28.9152 16.2618 28.703 12.4894 28.6522 11.5868C28.6472 11.4975 28.6437 11.4363 28.6437 11.4062V11.4038V11.4037C28.6421 10.5159 27.9188 9.79375 27.0312 9.79375C26.1421 9.79375 25.4188 10.5171 25.4188 11.4062V12.1875C25.4188 15.0836 23.721 17.3513 21.3099 19.0659C18.8987 20.7806 15.7805 21.9371 12.9572 22.6096L12.9187 22.6187V22.6582V37.0479Z" fill="#2D536E" stroke="white" stroke-width="0.1"/>
<path d="M8.33125 28.2812C8.33125 27.8775 8.65871 27.55 9.0625 27.55C9.46629 27.55 9.79375 27.8775 9.79375 28.2812V34.5312C9.79375 34.935 9.46629 35.2625 9.0625 35.2625C8.65871 35.2625 8.33125 34.935 8.33125 34.5312V28.2812Z" fill="#2D536E" stroke="white" stroke-width="0.1"/>
<path d="M17.6562 9.89375H20.7812C21.185 9.89375 21.5125 10.2212 21.5125 10.625C21.5125 11.0288 21.185 11.3563 20.7812 11.3563H17.6562C17.2525 11.3563 16.925 11.0288 16.925 10.625C16.925 10.2212 17.2525 9.89375 17.6562 9.89375Z" fill="#2CC140" stroke="white" stroke-width="0.1"/>
<path d="M33.2812 9.89375H36.4062C36.81 9.89375 37.1375 10.2212 37.1375 10.625C37.1375 11.0288 36.81 11.3563 36.4062 11.3563H33.2812C32.8775 11.3563 32.55 11.0288 32.55 10.625C32.55 10.2212 32.8775 9.89375 33.2812 9.89375Z" fill="#2CC140" stroke="white" stroke-width="0.1"/>
<path d="M33.1434 3.47902C33.1434 3.47902 33.1434 3.47901 33.1434 3.47901C33.4291 3.19353 33.892 3.19354 34.1776 3.47901C34.4632 3.76464 34.4632 4.22767 34.1776 4.51322L31.9683 6.7225C31.9683 6.72251 31.9683 6.72251 31.9683 6.72252C31.6826 7.008 31.2198 7.00806 30.9341 6.72251C30.6485 6.43687 30.6485 5.97385 30.9341 5.68831L33.1434 3.47902Z" fill="#2CC140" stroke="white" stroke-width="0.1"/>
<path d="M20.9195 3.46413C20.9195 3.46412 20.9195 3.46412 20.9195 3.46412C20.6338 3.17865 20.171 3.17864 19.8853 3.46412C19.8853 3.46412 19.8852 3.46413 19.8852 3.46413M20.9195 3.46413L19.8852 3.46413M20.9195 3.46413L23.1288 5.67341L20.9195 3.46413ZM19.8852 3.46413C19.5997 3.74968 19.5997 4.2127 19.8853 4.49833M19.8852 3.46413L19.8853 4.49833M19.8853 4.49833L19.8853 4.49833L19.8853 4.49833Z" fill="#2CC140" stroke="white" stroke-width="0.1"/>
</svg>
