<svg width="40" height="40" viewBox="0 0 40 40" fill="none" xmlns="http://www.w3.org/2000/svg">
<g clip-path="url(#clip0)">
<path d="M34.4719 5.04641L34.4386 5.14071L20.272 0.141933C20.272 0.141929 20.272 0.141925 20.272 0.141921C20.1128 0.0860402 19.9394 0.0860264 19.7802 0.14188L34.4719 5.04641ZM34.4719 5.04641L34.4386 5.14071C34.7274 5.24258 34.9 5.51692 34.9 5.83641V15.8341C34.9 22.3037 34.4267 26.6972 32.3803 30.2728C30.3348 33.8471 26.708 36.6198 20.3586 39.8204L20.3584 39.8205C20.2538 39.8735 20.1399 39.9 20.026 39.9C19.9122 39.9 19.7983 39.8735 19.6937 39.8205L19.6934 39.8204C13.344 36.6197 9.7041 33.8469 7.64556 30.2725C5.58629 26.6969 5.1 22.3034 5.1 15.8341V5.83641C5.1 5.52734 5.31505 5.24598 5.6135 5.14071L5.61351 5.14071L19.78 0.141933L34.4719 5.04641ZM20.026 40C20.1554 40 20.2848 39.9699 20.4036 39.9097H19.6484C19.7673 39.9699 19.8966 40 20.026 40ZM33.4545 15.8341V15.7341H33.4545V6.42875V6.35799L33.3877 6.33445L20.0593 1.63179L20.026 1.62005L19.9927 1.63179L6.66431 6.33445L6.59758 6.35799V6.42875V15.8341C6.59758 22.0278 6.99112 26.1524 8.86892 29.4777C10.7478 32.8049 14.103 35.316 19.9807 38.3122L20.0261 38.3354L20.0715 38.3122C25.9491 35.3161 29.3044 32.8049 31.1832 29.4778C33.061 26.1525 33.4545 22.0279 33.4545 15.8341Z" fill="#2D536E" stroke="white" stroke-width="0.2"/>
<path d="M16.667 16.7666H16.767V16.6666V12.5C16.767 12.0946 17.095 11.7666 17.5004 11.7666H22.5004C22.9058 11.7666 23.2337 12.0946 23.2337 12.5V16.6666V16.7666H23.3337H27.5004C27.9058 16.7666 28.2337 17.0946 28.2337 17.5V22.5C28.2337 22.9054 27.9058 23.2334 27.5004 23.2334H23.3337H23.2337V23.3334V27.5C23.2337 27.9054 22.9058 28.2334 22.5004 28.2334H17.5004C17.095 28.2334 16.767 27.9054 16.767 27.5V23.3334V23.2334H16.667H12.5004C12.095 23.2334 11.767 22.9054 11.767 22.5V17.5C11.767 17.0946 12.095 16.7666 12.5004 16.7666H16.667ZM18.3337 13.2333H18.2337V13.3333V17.5C18.2337 17.9054 17.9058 18.2333 17.5004 18.2333H17.5004H13.3336H13.2336V18.3333V21.6666V21.7666H13.3336H17.5003C17.9057 21.7666 18.2336 22.0946 18.2336 22.5V26.6667V26.7667H18.3336H21.667H21.767V26.6667V22.5001C21.767 22.0947 22.095 21.7667 22.5004 21.7667H26.6671H26.7671V21.6667V18.3333V18.2333H26.6671H22.5004C22.095 18.2333 21.7671 17.9054 21.7671 17.5V13.3333V13.2333H21.6671H18.3337Z" fill="#2CC140" stroke="white" stroke-width="0.2"/>
</g>
<defs>
<clipPath id="clip0">
<rect width="40" height="40" fill="white"/>
</clipPath>
</defs>
</svg>
