<svg width="40" height="40" viewBox="0 0 40 40" fill="none" xmlns="http://www.w3.org/2000/svg">
<path d="M38.6328 2.72937H1.36719C0.613359 2.72937 0 3.34273 0 4.09656V8.90867C0 9.66625 1.17188 9.66625 1.17188 8.90867V4.09656C1.17188 3.9889 1.25945 3.90125 1.36719 3.90125H38.6328C38.7405 3.90125 38.8281 3.9889 38.8281 4.09656V32.6699C38.8281 32.7776 38.7405 32.8652 38.6328 32.8652H31.1241V31.646H37.0173C37.341 31.646 37.6033 31.3837 37.6033 31.0601V24.9242C37.6033 24.1666 36.4314 24.1666 36.4314 24.9242V30.4741H31.1241V27.8744C31.1431 27.876 31.1623 27.8777 31.1804 27.8793C31.6668 27.922 32.2718 27.9752 32.6909 27.5553C33.1096 27.1359 33.0566 26.5302 33.0141 26.0436C32.9682 25.5213 33.0176 25.3784 33.419 25.0447C34.4525 24.1853 34.4717 23.2652 33.419 22.39C33.0176 22.0561 32.9684 21.9133 33.0141 21.3909C33.1287 20.0802 32.5166 19.4379 31.1804 19.5553C30.6589 19.6011 30.5174 19.5516 30.1849 19.1501C29.3269 18.1141 28.4061 18.095 27.5321 19.1501C27.1996 19.5515 27.0582 19.6012 26.5367 19.5553C25.2251 19.4401 24.5859 20.0557 24.703 21.3909C24.7486 21.9134 24.6995 22.0561 24.298 22.39C23.2645 23.2493 23.2454 24.1696 24.298 25.0447C24.6995 25.3786 24.7486 25.5214 24.703 26.0437C24.5799 27.4476 25.2504 27.9904 26.5928 27.8745V30.4743H3.56867V6.29226H36.4314V21.7992C36.4314 22.5568 37.6033 22.5568 37.6033 21.7992V5.70632C37.6033 5.38273 37.341 5.12039 37.0173 5.12039H2.98273C2.65906 5.12039 2.3968 5.38273 2.3968 5.70632V31.0601C2.3968 31.3837 2.65906 31.646 2.98273 31.646H26.5928V32.8652H1.36719C1.25945 32.8652 1.17188 32.7776 1.17188 32.6699V11.8773C1.17188 11.1198 0 11.1198 0 11.8773V32.6699C0 33.4237 0.613359 34.0371 1.36719 34.0371H26.5928V36.6894C26.6763 37.171 26.954 37.3481 27.4259 37.2207L28.8584 36.5544L30.291 37.2207C30.6455 37.3855 31.1241 37.125 31.1241 36.6894V34.0371H38.6328C39.3866 34.0371 40 33.4237 40 32.6699V4.09656C40 3.34265 39.3866 2.72937 38.6328 2.72937ZM26.434 26.7118C25.8474 26.7634 25.819 26.732 25.8702 26.1458C25.949 25.246 25.742 24.721 25.0471 24.1434C24.5716 23.748 24.5717 23.6863 25.0471 23.2909C25.742 22.7133 25.9491 22.1883 25.8702 21.2886C25.819 20.7023 25.8474 20.6712 26.434 20.7225C27.3338 20.8018 27.8581 20.5933 28.4345 19.8974C28.8283 19.4221 28.8885 19.4221 29.2823 19.8974C29.8588 20.5933 30.383 20.8015 31.2828 20.7225C31.8695 20.6709 31.8978 20.7023 31.8466 21.2885C31.7678 22.1883 31.9748 22.7132 32.6697 23.2909C33.1451 23.6862 33.1453 23.748 32.6696 24.1434C31.9747 24.7211 31.7677 25.2459 31.8465 26.1456C31.898 26.7319 31.8694 26.7634 31.2829 26.7118C30.9148 26.6795 30.4973 26.6427 30.1298 26.7954C29.7741 26.9431 29.5241 27.2449 29.2823 27.5369C29.1684 27.6744 28.9605 27.9254 28.8583 27.9703C28.7562 27.9254 28.5483 27.6744 28.4344 27.5369C28.1926 27.245 27.9426 26.9431 27.5868 26.7954C27.2076 26.6798 26.8233 26.6519 26.434 26.7118ZM29.1055 35.377C28.9488 35.3041 28.768 35.3041 28.6113 35.377L27.7647 35.7708V28.556C28.0427 28.8617 28.3858 29.1455 28.8584 29.1455C29.3311 29.1455 29.6741 28.8618 29.9522 28.5561V35.7708L29.1055 35.377Z" fill="#2D536E"/>
<path d="M7.59852 11.197H27.7975C28.5551 11.197 28.5551 10.0251 27.7975 10.0251H7.59852C6.84086 10.0251 6.84086 11.197 7.59852 11.197Z" fill="#2CC140"/>
<path d="M32.987 14.1749C32.987 13.8513 32.7248 13.589 32.4011 13.589H7.59846C6.84088 13.589 6.84088 14.7609 7.59846 14.7609H32.4012C32.7248 14.7609 32.987 14.4985 32.987 14.1749Z" fill="#2CC140"/>
<path d="M22.2761 17.7387C22.2761 17.4151 22.0139 17.1528 21.6902 17.1528H7.59846C6.84088 17.1528 6.84088 18.3247 7.59846 18.3247H21.6902C22.0138 18.3247 22.2761 18.0623 22.2761 17.7387Z" fill="#2CC140"/>
<path d="M14.5818 25.9061C14.2623 25.9066 13.9428 25.907 13.6233 25.9072C13.0087 25.9077 12.6703 25.7439 12.5448 25.0922C12.4302 24.4972 11.5721 24.573 11.4148 25.0922C11.3452 25.3221 10.9936 25.9803 10.6865 25.9265C10.5238 25.8979 10.4527 25.6469 10.3925 25.5169C10.2754 25.2639 10.1901 24.9957 10.1171 24.7269C9.80863 23.5915 9.74707 22.4059 9.5541 21.249C9.44222 20.5782 8.41965 20.7679 8.40316 21.4048C8.35066 23.4338 8.01894 25.435 7.2966 27.3368C7.02855 28.0425 8.16097 28.3476 8.4266 27.6483C8.70511 26.915 8.92621 26.1642 9.09777 25.4022C9.1898 25.6798 9.29957 25.9522 9.43355 26.2171C9.77574 26.8933 10.4736 27.2934 11.2203 26.9926C11.4868 26.8853 11.73 26.6976 11.9369 26.4693C12.4913 27.1086 13.3161 27.0796 14.0855 27.0786C15.2454 27.0772 16.4053 27.0744 17.5653 27.0712C18.3193 27.0691 18.3207 25.8972 17.5653 25.8993C16.5708 25.9022 15.5763 25.9044 14.5818 25.9061Z" fill="#2D536E"/>
<path d="M28.8589 26.0058C30.1209 26.0058 31.1476 24.9791 31.1476 23.7172C31.1476 22.4552 30.1209 21.4286 28.8589 21.4286C27.597 21.4286 26.5703 22.4553 26.5703 23.7172C26.5703 24.9791 27.597 26.0058 28.8589 26.0058ZM28.8589 22.6005C29.4747 22.6005 29.9757 23.1015 29.9757 23.7172C29.9757 24.3329 29.4747 24.8339 28.8589 24.8339C28.2431 24.8339 27.7422 24.333 27.7422 23.7172C27.7422 23.1014 28.2431 22.6005 28.8589 22.6005Z" fill="#2D536E"/>
</svg>
