<svg width="40" height="40" viewBox="0 0 40 40" fill="none" xmlns="http://www.w3.org/2000/svg">
<g clip-path="url(#clip0)">
<path d="M14.2411 24.5534L15.4462 25.7585C15.8635 26.1756 16.5385 26.1756 16.9557 25.7585L17.7099 25.0043C17.8309 25.0597 17.9549 25.111 18.0801 25.1576V26.2242C18.0801 26.8128 18.5589 27.2916 19.1475 27.2916H20.8517C21.4403 27.2916 21.9191 26.8128 21.9191 26.2242V25.1576C22.0443 25.111 22.1683 25.0597 22.2893 25.0043L23.0436 25.7586C23.4596 26.1744 24.1368 26.1746 24.553 25.7585L25.7581 24.5534C26.1742 24.1373 26.1742 23.4601 25.758 23.0438L25.0039 22.2898C25.0593 22.1687 25.1106 22.0448 25.1572 21.9195H26.2238C26.8124 21.9195 27.2912 21.4407 27.2912 20.8521V19.148C27.2912 18.5594 26.8124 18.0805 26.2238 18.0805H25.1572C25.1107 17.9554 25.0593 17.8314 25.0039 17.7103L25.7582 16.9561C26.1742 16.5399 26.1742 15.8627 25.7581 15.4466L24.5529 14.2416C24.1368 13.8254 23.4597 13.8255 23.0434 14.2416L22.2893 14.9958C22.1683 14.9404 22.0443 14.8891 21.9191 14.8424V13.7759C21.9191 13.1873 21.4403 12.7084 20.8517 12.7084H19.1475C18.5589 12.7084 18.0801 13.1873 18.0801 13.7759V14.8424C17.9547 14.8891 17.8307 14.9405 17.7099 14.9958L16.9557 14.2416C16.5387 13.8244 15.8633 13.8244 15.4462 14.2416L14.2411 15.4466C13.825 15.8627 13.825 16.5399 14.2412 16.9562L14.9954 17.7103C14.94 17.8313 14.8886 17.9553 14.842 18.0805H13.7754C13.1868 18.0805 12.708 18.5594 12.708 19.148V20.8521C12.708 21.4407 13.1868 21.9195 13.7754 21.9195H14.842C14.8886 22.0448 14.94 22.1688 14.9954 22.2898L14.2411 23.044C13.825 23.4601 13.825 24.1373 14.2411 24.5534ZM14.9156 20.7476H13.8799V19.2523H14.9156C15.3657 19.2523 15.7693 18.9683 15.9197 18.5459C15.9684 18.4091 16.0244 18.2739 16.0864 18.1435C16.2789 17.738 16.1943 17.2518 15.8761 16.9336L15.1438 16.2012L16.2011 15.144L16.9334 15.8764C17.2516 16.1945 17.7379 16.2792 18.1436 16.0864C18.2735 16.0248 18.4088 15.9687 18.5456 15.9199C18.9682 15.7694 19.2522 15.3659 19.2522 14.9159V13.8802H20.7475V14.9159C20.7475 15.3659 21.0314 15.7694 21.4539 15.9199C21.5906 15.9686 21.7258 16.0246 21.8562 16.0866C22.2617 16.2791 22.7478 16.1944 23.0661 15.8763L23.7985 15.144L24.8557 16.2012L24.1233 16.9336C23.8051 17.2519 23.7207 17.7381 23.9132 18.1435C23.9751 18.2739 24.0311 18.4092 24.0798 18.5457C24.2303 18.9683 24.6338 19.2523 25.0839 19.2523H26.1197V20.7476H25.0839C24.6338 20.7476 24.2303 21.0316 24.0799 21.454C24.0311 21.5907 23.9751 21.7259 23.9132 21.8563C23.7207 22.2616 23.8052 22.7479 24.1234 23.0662L24.8557 23.7986L23.7985 24.8558L23.066 24.1233C22.7479 23.8053 22.2618 23.7208 21.856 23.9133C21.7258 23.9752 21.5906 24.0312 21.454 24.0798C21.0314 24.2303 20.7474 24.6338 20.7474 25.084V26.1198H19.2521V25.084C19.2521 24.6339 18.9681 24.2304 18.5457 24.08C18.4089 24.0312 18.2737 23.9752 18.1433 23.9133C17.7378 23.7207 17.2516 23.8054 16.9334 24.1234L16.2011 24.8558L15.1438 23.7986L15.8763 23.0661C16.1943 22.7479 16.2788 22.2616 16.0863 21.8561C16.0244 21.7259 15.9684 21.5907 15.9197 21.4541C15.7693 21.0316 15.3657 20.7476 14.9156 20.7476Z" fill="#2CC140"/>
<path d="M20.0004 23.1273C21.7248 23.1273 23.1277 21.7244 23.1277 19.9999C23.1277 18.2755 21.7248 16.8727 20.0004 16.8727C18.276 16.8727 16.873 18.2755 16.873 19.9999C16.873 21.7244 18.276 23.1273 20.0004 23.1273ZM20.0004 18.0445C21.0786 18.0445 21.9558 18.9218 21.9558 19.9999C21.9558 21.0782 21.0785 21.9554 20.0004 21.9554C18.9221 21.9554 18.0449 21.0781 18.0449 19.9999C18.0449 18.9217 18.9221 18.0445 20.0004 18.0445Z" fill="#2CC140"/>
<path d="M7.36078 14.7216C11.4303 14.7216 14.7216 11.4145 14.7216 7.36086C14.7216 3.30203 11.4195 0 7.36078 0C3.30203 0 0 3.30203 0 7.36078C0 11.4163 3.29969 14.7216 7.36078 14.7216ZM11.2829 12.1445C10.1737 13.0555 8.79297 13.5498 7.36078 13.5498C5.95953 13.5498 4.57094 13.0745 3.43875 12.1445C3.43875 10.9313 4.39523 10.0887 5.45891 10.0887H9.26265C10.3274 10.0887 11.2829 10.9322 11.2829 12.1445ZM7.36078 1.17187C10.7734 1.17187 13.5498 3.9482 13.5498 7.36078C13.5498 8.7639 13.0797 10.0588 12.2898 11.098C11.8659 9.83203 10.6696 8.9168 9.26265 8.9168H5.45891C4.05211 8.9168 2.8557 9.83203 2.4318 11.098C1.64195 10.0588 1.17187 8.7639 1.17187 7.36078C1.17187 3.9482 3.9482 1.17187 7.36078 1.17187Z" fill="#2D536E"/>
<path d="M32.6392 25.2783C28.5804 25.2783 25.2783 28.5804 25.2783 32.6391C25.2783 36.6963 28.5745 39.9999 32.6392 39.9999C36.6834 39.9999 40 36.7126 40 32.6391C40 28.5804 36.6979 25.2783 32.6392 25.2783ZM36.5612 37.4228C34.2886 39.2895 31.0077 39.3043 28.7171 37.4228C28.7171 36.2096 29.6736 35.3671 30.7372 35.3671H34.541C35.6059 35.367 36.5612 36.2105 36.5612 37.4228ZM37.5682 36.3764C37.1443 35.1104 35.9479 34.1952 34.5411 34.1952H30.7373C29.3305 34.1952 28.1342 35.1104 27.7103 36.3764C26.9204 35.3372 26.4503 34.0423 26.4503 32.6391C26.4503 29.2265 29.2266 26.4502 32.6393 26.4502C36.0518 26.4502 38.8282 29.2265 38.8282 32.6391C38.8281 34.0423 38.358 35.3372 37.5682 36.3764Z" fill="#2D536E"/>
<path d="M9.38595 7.10772C10.5056 5.98819 10.5056 4.17616 9.38595 3.05663H9.38603C8.26658 1.93717 6.45446 1.93686 5.33493 3.05663C4.21524 4.17608 4.21517 5.98803 5.33478 7.10772C6.45423 8.22717 8.26634 8.22741 9.38595 7.10772ZM6.16345 3.88514C6.82345 3.22514 7.89728 3.22514 8.55728 3.88514H8.55736C9.21884 4.5467 9.21892 5.61741 8.55728 6.27905C7.89736 6.93897 6.82353 6.93897 6.16337 6.27905C5.50189 5.61748 5.50181 4.54678 6.16345 3.88514Z" fill="#2D536E"/>
<path d="M5.3348 32.3861C6.45144 33.5027 8.26894 33.5029 9.38589 32.3861C10.5028 31.2691 10.5028 29.4517 9.38589 28.3349H9.38581C8.26901 27.2181 6.45159 27.2181 5.33472 28.3349C4.21784 29.4517 4.21784 31.2691 5.3348 32.3861ZM6.16331 29.1635C6.82347 28.5035 7.89722 28.5035 8.55722 29.1635C9.21722 29.8234 9.21722 30.8974 8.5573 31.5574C7.89737 32.2175 6.82339 32.2175 6.16339 31.5574C5.50339 30.8974 5.50339 29.8234 6.16331 29.1635Z" fill="#2D536E"/>
<path d="M30.614 3.05656C29.4972 4.17343 29.4972 5.99078 30.614 7.10765C31.732 8.2257 33.5495 8.22343 34.6651 7.10765C35.7847 5.98812 35.7848 4.17609 34.6651 3.05656H34.6652C33.5483 1.93953 31.7308 1.93968 30.614 3.05656ZM33.8365 6.27906C33.1766 6.93906 32.1028 6.93913 31.4426 6.27906C30.7826 5.61906 30.7826 4.54515 31.4426 3.88515C32.1026 3.22515 33.1766 3.22515 33.8365 3.88515H33.8366C34.4981 4.54679 34.4982 5.61749 33.8365 6.27906Z" fill="#2D536E"/>
<path d="M34.6642 28.3348C33.5474 27.218 31.7299 27.218 30.613 28.3349C29.4962 29.4518 29.4962 31.2692 30.6131 32.3861C31.7299 33.503 33.5473 33.5029 34.6642 32.3861C35.7811 31.2691 35.7811 29.4517 34.6642 28.3348ZM33.8356 31.5574C33.1757 32.2174 32.1018 32.2175 31.4417 31.5575C30.7817 30.8975 30.7817 29.8235 31.4416 29.1635C32.1017 28.5036 33.1755 28.5035 33.8356 29.1635C34.4956 29.8234 34.4956 30.8974 33.8356 31.5574Z" fill="#2D536E"/>
<path d="M23.6871 7.94672C24.0108 7.94672 24.273 7.68437 24.273 7.36078C24.273 7.03719 24.0108 6.77484 23.6871 6.77484H16.3135C15.9898 6.77484 15.7275 7.03719 15.7275 7.36078C15.7275 7.68437 15.9898 7.94672 16.3135 7.94672H23.6871Z" fill="#2D536E"/>
<path d="M16.3135 32.0532C15.9898 32.0532 15.7275 32.3155 15.7275 32.6391C15.7275 32.9628 15.9898 33.2251 16.3135 33.2251H23.6871C24.0108 33.2251 24.273 32.9628 24.273 32.6391C24.273 32.3155 24.0108 32.0532 23.6871 32.0532H16.3135Z" fill="#2D536E"/>
<path d="M7.94629 23.6867V16.3131C7.94629 15.9895 7.68402 15.7272 7.36035 15.7272C7.03668 15.7272 6.77441 15.9895 6.77441 16.3131V23.6867C6.77441 24.0104 7.03668 24.2727 7.36035 24.2727C7.68402 24.2727 7.94629 24.0104 7.94629 23.6867Z" fill="#2D536E"/>
<path d="M33.2246 23.6867V16.3131C33.2246 15.9895 32.9623 15.7272 32.6387 15.7272C32.315 15.7272 32.0527 15.9895 32.0527 16.3131V23.6867C32.0527 24.0104 32.315 24.2727 32.6387 24.2727C32.9623 24.2727 33.2246 24.0104 33.2246 23.6867Z" fill="#2D536E"/>
<path d="M38.7126 6.16656C38.7746 6.48414 39.0829 6.69148 39.4 6.62922C39.7176 6.56719 39.9248 6.25937 39.8627 5.9418C39.19 2.49891 36.152 0 32.6392 0C28.5804 0 25.2783 3.30203 25.2783 7.36078C25.2783 11.4391 28.5939 14.7216 32.6392 14.7216C36.1152 14.7216 39.1132 12.2795 39.8357 8.91141C39.9036 8.595 39.7021 8.28344 39.3857 8.21562C39.0696 8.14797 38.7578 8.34922 38.6899 8.66562C38.4961 9.56875 38.1043 10.3923 37.5674 11.0959C37.1429 9.83094 35.9471 8.9168 34.5411 8.9168H30.7373C29.3305 8.9168 28.1341 9.83203 27.7102 11.098C26.9203 10.0588 26.4503 8.76391 26.4503 7.36078C26.4502 3.9482 29.2266 1.17187 32.6392 1.17187C35.5929 1.17187 38.1471 3.27242 38.7126 6.16656ZM30.7373 10.0887H34.5411C35.655 10.0887 36.5612 10.9949 36.5612 12.1089V12.1376C35.481 13.0234 34.1057 13.5498 32.6392 13.5498C31.2581 13.5498 29.8633 13.086 28.7171 12.1445C28.7171 10.9312 29.6736 10.0887 30.7373 10.0887Z" fill="#2D536E"/>
<path d="M7.36078 39.9999C11.4229 39.9999 14.7216 36.6965 14.7216 32.6391C14.7216 29.1586 12.2504 26.126 8.84562 25.4282C8.52906 25.3637 8.2189 25.5676 8.1539 25.8846C8.08891 26.2016 8.29328 26.5112 8.61031 26.5763C11.4724 27.1628 13.5498 29.7127 13.5498 32.6391C13.5498 34.0422 13.0797 35.3371 12.2898 36.3764C11.8659 35.1104 10.6695 34.1952 9.26265 34.1952H5.45891C4.05211 34.1952 2.8557 35.1104 2.4318 36.3764C1.64195 35.3372 1.17187 34.0423 1.17187 32.6391C1.17187 29.7126 3.24914 27.1627 6.11125 26.5763C6.42828 26.5113 6.63258 26.2016 6.56766 25.8846C6.50273 25.5676 6.19312 25.3636 5.87594 25.4282C2.47117 26.126 0 29.1586 0 32.6391C0 36.6905 3.28977 39.9999 7.36078 39.9999ZM5.45891 35.367H9.26265C10.3275 35.367 11.2829 36.2105 11.2829 37.4227C9.01414 39.2862 5.73242 39.3067 3.43875 37.4227C3.43875 36.2095 4.39523 35.367 5.45891 35.367Z" fill="#2D536E"/>
</g>
<defs>
<clipPath id="clip0">
<rect width="40" height="40" fill="white"/>
</clipPath>
</defs>
</svg>
