<svg width="40" height="40" viewBox="0 0 40 40" fill="none" xmlns="http://www.w3.org/2000/svg">
<path d="M24.375 9.325H10.625C10.4725 9.325 10.3262 9.26442 10.2184 9.15659C10.1106 9.04875 10.05 8.9025 10.05 8.75C10.05 8.5975 10.1106 8.45125 10.2184 8.34341C10.3262 8.23558 10.4725 8.175 10.625 8.175H24.375C24.5275 8.175 24.6738 8.23558 24.7816 8.34341C24.8894 8.45125 24.95 8.5975 24.95 8.75C24.95 8.9025 24.8894 9.04875 24.7816 9.15659C24.6738 9.26442 24.5275 9.325 24.375 9.325Z" fill="#2CC140" stroke="white" stroke-width="0.1"/>
<path d="M24.375 13.075H10.625C10.4725 13.075 10.3262 13.0144 10.2184 12.9066C10.1106 12.7988 10.05 12.6525 10.05 12.5C10.05 12.3475 10.1106 12.2012 10.2184 12.0934C10.3262 11.9856 10.4725 11.925 10.625 11.925H24.375C24.5275 11.925 24.6738 11.9856 24.7816 12.0934C24.8894 12.2012 24.95 12.3475 24.95 12.5C24.95 12.6525 24.8894 12.7988 24.7816 12.9066C24.6738 13.0144 24.5275 13.075 24.375 13.075Z" fill="#2CC140" stroke="white" stroke-width="0.1"/>
<path d="M24.375 16.825H10.625C10.4725 16.825 10.3262 16.7644 10.2184 16.6566C10.1106 16.5488 10.05 16.4025 10.05 16.25C10.05 16.0975 10.1106 15.9512 10.2184 15.8434C10.3262 15.7356 10.4725 15.675 10.625 15.675H24.375C24.5275 15.675 24.6738 15.7356 24.7816 15.8434C24.8894 15.9512 24.95 16.0975 24.95 16.25C24.95 16.4025 24.8894 16.5488 24.7816 16.6566C24.6738 16.7644 24.5275 16.825 24.375 16.825Z" fill="#2CC140" stroke="white" stroke-width="0.1"/>
<path d="M24.375 20.575H10.625C10.4725 20.575 10.3262 20.5144 10.2184 20.4066C10.1106 20.2988 10.05 20.1525 10.05 20C10.05 19.8475 10.1106 19.7012 10.2184 19.5934C10.3262 19.4856 10.4725 19.425 10.625 19.425H24.375C24.5275 19.425 24.6738 19.4856 24.7816 19.5934C24.8894 19.7012 24.95 19.8475 24.95 20C24.95 20.1525 24.8894 20.2988 24.7816 20.4066C24.6738 20.5144 24.5275 20.575 24.375 20.575Z" fill="#2CC140" stroke="white" stroke-width="0.1"/>
<path d="M15.625 24.325H10.625C10.4725 24.325 10.3262 24.2644 10.2184 24.1566C10.1106 24.0488 10.05 23.9025 10.05 23.75C10.05 23.5975 10.1106 23.4512 10.2184 23.3434C10.3262 23.2356 10.4725 23.175 10.625 23.175H15.625C15.7775 23.175 15.9238 23.2356 16.0316 23.3434C16.1394 23.4512 16.2 23.5975 16.2 23.75C16.2 23.9025 16.1394 24.0488 16.0316 24.1566C15.9238 24.2644 15.7775 24.325 15.625 24.325Z" fill="#2CC140" stroke="white" stroke-width="0.1"/>
<mask id="path-6-inside-1" fill="white">
<path d="M35.3228 16.0168C34.8936 15.7659 34.3825 15.6954 33.9014 15.821C33.4204 15.9465 33.0089 16.2578 32.7571 16.6864L31.25 19.2578V3.75C31.25 3.58424 31.1841 3.42527 31.0669 3.30806C30.9497 3.19085 30.7907 3.125 30.625 3.125H25.8839C25.8839 3.125 24.0059 1.2125 23.9307 1.27687C23.8721 1.25908 23.8112 1.25002 23.75 1.25H5.62497C5.45921 1.25 5.30024 1.31585 5.18303 1.43306C5.06582 1.55027 4.99997 1.70924 4.99997 1.875V3.82914C4.46312 3.96753 3.98749 4.28045 3.6479 4.71868C3.30831 5.15691 3.12402 5.69559 3.12402 6.25C3.12402 6.80441 3.30831 7.34309 3.6479 7.78132C3.98749 8.21955 4.46312 8.53247 4.99997 8.67086V10.0791C4.46312 10.2175 3.98749 10.5305 3.6479 10.9687C3.30831 11.4069 3.12402 11.9456 3.12402 12.5C3.12402 13.0544 3.30831 13.5931 3.6479 14.0313C3.98749 14.4695 4.46312 14.7825 4.99997 14.9209V16.3291C4.46312 16.4675 3.98749 16.7805 3.6479 17.2187C3.30831 17.6569 3.12402 18.1956 3.12402 18.75C3.12402 19.3044 3.30831 19.8431 3.6479 20.2813C3.98749 20.7195 4.46312 21.0325 4.99997 21.1709V21.9541C4.46312 22.0925 3.98749 22.4055 3.6479 22.8437C3.30831 23.2819 3.12402 23.8206 3.12402 24.375C3.12402 24.9294 3.30831 25.4681 3.6479 25.9063C3.98749 26.3445 4.46312 26.6575 4.99997 26.7959V30.625C4.99997 30.7908 5.06582 30.9497 5.18303 31.0669C5.30024 31.1842 5.45921 31.25 5.62497 31.25H6.24997V33.125C6.24997 33.2908 6.31582 33.4497 6.43303 33.5669C6.55024 33.6842 6.70921 33.75 6.87497 33.75H22.7572L22.3289 34.4808C22.2905 34.5463 22.2645 34.6184 22.2522 34.6934C22.2516 34.697 22.2506 34.7 22.25 34.7037L22.2485 34.7139V34.7163L21.7485 38.0319C21.7299 38.1554 21.7487 38.2817 21.8025 38.3944C21.8564 38.5071 21.9427 38.6011 22.0505 38.6642C22.1583 38.7274 22.2825 38.7568 22.4071 38.7487C22.5318 38.7406 22.6511 38.6953 22.7498 38.6187L25.4083 36.5547C25.5786 36.4224 25.6618 36.3415 25.6486 36.2329L27.1036 33.75H30.625C30.7907 33.75 30.9497 33.6842 31.0669 33.5669C31.1841 33.4497 31.25 33.2908 31.25 33.125V26.6748L35.9922 18.5824C36.243 18.1533 36.3134 17.6422 36.1879 17.1612C36.0625 16.6802 35.7513 16.2687 35.3228 16.0168ZM34.2169 17.0297C34.3365 16.9985 34.4627 17.0034 34.5795 17.0439C34.6963 17.0844 34.7985 17.1586 34.8731 17.2572C34.9477 17.3558 34.9914 17.4742 34.9987 17.5976C35.0059 17.721 34.9765 17.8438 34.9139 17.9505L34.5979 18.4895L33.5198 17.8575L33.8359 17.3184C33.8772 17.2475 33.9321 17.1855 33.9975 17.1359C34.0629 17.0863 34.1375 17.0502 34.2169 17.0297ZM24.8017 35.2056L23.7236 34.5736L31.9395 20.5538L33.0176 21.1859L24.8017 35.2056ZM24.375 3.38391L26.6161 5.625H24.375V3.38391ZM32.5715 19.4753L32.8875 18.9363L33.966 19.5683L33.65 20.1073L32.5715 19.4753ZM30 4.375V21.25C30 21.2906 30.004 21.331 30.0118 21.3708L28.75 23.5241V6.25C28.7501 6.16805 28.734 6.08689 28.7027 6.01116C28.6713 5.93543 28.6254 5.86662 28.5675 5.80867L28.5669 5.80805L27.1339 4.375H30ZM6.24997 2.5H23.125V6.25C23.125 6.41576 23.1908 6.57473 23.308 6.69194C23.4252 6.80915 23.5842 6.875 23.75 6.875H27.5V25.657L24.9548 30H6.24997V26.7959C6.68266 26.6845 7.07754 26.4591 7.39346 26.1431C7.70938 25.8271 7.93477 25.4322 8.04614 24.9995C8.08746 24.8389 8.06329 24.6685 7.97896 24.5258C7.89463 24.383 7.75704 24.2796 7.59646 24.2383C7.51694 24.2178 7.43418 24.2132 7.35289 24.2248C7.27161 24.2363 7.19339 24.2637 7.1227 24.3055C6.97994 24.3898 6.87652 24.5274 6.83521 24.688C6.79379 24.8487 6.72069 24.9995 6.62019 25.1316C6.51969 25.2636 6.39382 25.3743 6.24997 25.457V21.1709C6.68266 21.0595 7.07754 20.8341 7.39346 20.5181C7.70938 20.2021 7.93477 19.8072 8.04614 19.3745C8.08746 19.214 8.06329 19.0435 7.97896 18.9008C7.89463 18.758 7.75704 18.6546 7.59646 18.6133C7.43588 18.572 7.26546 18.5961 7.1227 18.6805C6.97994 18.7648 6.87652 18.9024 6.83521 19.063C6.79379 19.2237 6.72069 19.3745 6.62019 19.5066C6.51969 19.6386 6.39382 19.7493 6.24997 19.832V14.9209C6.68266 14.8095 7.07754 14.5841 7.39346 14.2681C7.70938 13.9521 7.93477 13.5572 8.04614 13.1245C8.08746 12.964 8.06329 12.7935 7.97896 12.6508C7.89463 12.508 7.75704 12.4046 7.59646 12.3633C7.43588 12.322 7.26546 12.3461 7.1227 12.4305C6.97994 12.5148 6.87652 12.6524 6.83521 12.813C6.79379 12.9737 6.72069 13.1245 6.62019 13.2566C6.51969 13.3886 6.39382 13.4993 6.24997 13.582V8.67094C6.68266 8.55951 7.07754 8.33407 7.39346 8.01811C7.70938 7.70215 7.93477 7.30724 8.04614 6.87453C8.08746 6.71395 8.06329 6.54354 7.97896 6.40077C7.89463 6.25801 7.75704 6.1546 7.59646 6.11328C7.43588 6.07197 7.26546 6.09613 7.1227 6.18047C6.97994 6.2648 6.87652 6.40239 6.83521 6.56297C6.79379 6.72367 6.72069 6.87449 6.62019 7.00655C6.51969 7.13862 6.39382 7.24928 6.24997 7.33203V2.5ZM4.37497 6.25C4.37527 6.03086 4.43316 5.81565 4.54286 5.62595C4.65255 5.43624 4.81019 5.27871 4.99997 5.16914V7.33086C4.81019 7.22129 4.65255 7.06376 4.54286 6.87405C4.43316 6.68435 4.37527 6.46914 4.37497 6.25ZM4.37497 12.5C4.37527 12.2809 4.43316 12.0657 4.54286 11.8759C4.65255 11.6862 4.81019 11.5287 4.99997 11.4191V13.5809C4.81019 13.4713 4.65255 13.3138 4.54286 13.1241C4.43316 12.9343 4.37527 12.7191 4.37497 12.5ZM4.37497 18.75C4.37527 18.5309 4.43316 18.3157 4.54286 18.1259C4.65255 17.9362 4.81019 17.7787 4.99997 17.6691V19.8309C4.81019 19.7213 4.65255 19.5638 4.54286 19.3741C4.43316 19.1843 4.37527 18.9691 4.37497 18.75ZM4.37497 24.375C4.37527 24.1559 4.43316 23.9407 4.54286 23.7509C4.65255 23.5612 4.81019 23.4037 4.99997 23.2941V25.4559C4.81019 25.3463 4.65255 25.1888 4.54286 24.9991C4.43316 24.8093 4.37527 24.5941 4.37497 24.375ZM7.49997 32.5V31.25H24.2222L23.4897 32.5H7.49997ZM23.3485 35.8028L23.9125 36.1334L23.2172 36.673L23.3485 35.8028ZM30 32.5H27.8359L30 28.8077V32.5Z"/>
</mask>
<path d="M35.3228 16.0168C34.8936 15.7659 34.3825 15.6954 33.9014 15.821C33.4204 15.9465 33.0089 16.2578 32.7571 16.6864L31.25 19.2578V3.75C31.25 3.58424 31.1841 3.42527 31.0669 3.30806C30.9497 3.19085 30.7907 3.125 30.625 3.125H25.8839C25.8839 3.125 24.0059 1.2125 23.9307 1.27687C23.8721 1.25908 23.8112 1.25002 23.75 1.25H5.62497C5.45921 1.25 5.30024 1.31585 5.18303 1.43306C5.06582 1.55027 4.99997 1.70924 4.99997 1.875V3.82914C4.46312 3.96753 3.98749 4.28045 3.6479 4.71868C3.30831 5.15691 3.12402 5.69559 3.12402 6.25C3.12402 6.80441 3.30831 7.34309 3.6479 7.78132C3.98749 8.21955 4.46312 8.53247 4.99997 8.67086V10.0791C4.46312 10.2175 3.98749 10.5305 3.6479 10.9687C3.30831 11.4069 3.12402 11.9456 3.12402 12.5C3.12402 13.0544 3.30831 13.5931 3.6479 14.0313C3.98749 14.4695 4.46312 14.7825 4.99997 14.9209V16.3291C4.46312 16.4675 3.98749 16.7805 3.6479 17.2187C3.30831 17.6569 3.12402 18.1956 3.12402 18.75C3.12402 19.3044 3.30831 19.8431 3.6479 20.2813C3.98749 20.7195 4.46312 21.0325 4.99997 21.1709V21.9541C4.46312 22.0925 3.98749 22.4055 3.6479 22.8437C3.30831 23.2819 3.12402 23.8206 3.12402 24.375C3.12402 24.9294 3.30831 25.4681 3.6479 25.9063C3.98749 26.3445 4.46312 26.6575 4.99997 26.7959V30.625C4.99997 30.7908 5.06582 30.9497 5.18303 31.0669C5.30024 31.1842 5.45921 31.25 5.62497 31.25H6.24997V33.125C6.24997 33.2908 6.31582 33.4497 6.43303 33.5669C6.55024 33.6842 6.70921 33.75 6.87497 33.75H22.7572L22.3289 34.4808C22.2905 34.5463 22.2645 34.6184 22.2522 34.6934C22.2516 34.697 22.2506 34.7 22.25 34.7037L22.2485 34.7139V34.7163L21.7485 38.0319C21.7299 38.1554 21.7487 38.2817 21.8025 38.3944C21.8564 38.5071 21.9427 38.6011 22.0505 38.6642C22.1583 38.7274 22.2825 38.7568 22.4071 38.7487C22.5318 38.7406 22.6511 38.6953 22.7498 38.6187L25.4083 36.5547C25.5786 36.4224 25.6618 36.3415 25.6486 36.2329L27.1036 33.75H30.625C30.7907 33.75 30.9497 33.6842 31.0669 33.5669C31.1841 33.4497 31.25 33.2908 31.25 33.125V26.6748L35.9922 18.5824C36.243 18.1533 36.3134 17.6422 36.1879 17.1612C36.0625 16.6802 35.7513 16.2687 35.3228 16.0168ZM34.2169 17.0297C34.3365 16.9985 34.4627 17.0034 34.5795 17.0439C34.6963 17.0844 34.7985 17.1586 34.8731 17.2572C34.9477 17.3558 34.9914 17.4742 34.9987 17.5976C35.0059 17.721 34.9765 17.8438 34.9139 17.9505L34.5979 18.4895L33.5198 17.8575L33.8359 17.3184C33.8772 17.2475 33.9321 17.1855 33.9975 17.1359C34.0629 17.0863 34.1375 17.0502 34.2169 17.0297ZM24.8017 35.2056L23.7236 34.5736L31.9395 20.5538L33.0176 21.1859L24.8017 35.2056ZM24.375 3.38391L26.6161 5.625H24.375V3.38391ZM32.5715 19.4753L32.8875 18.9363L33.966 19.5683L33.65 20.1073L32.5715 19.4753ZM30 4.375V21.25C30 21.2906 30.004 21.331 30.0118 21.3708L28.75 23.5241V6.25C28.7501 6.16805 28.734 6.08689 28.7027 6.01116C28.6713 5.93543 28.6254 5.86662 28.5675 5.80867L28.5669 5.80805L27.1339 4.375H30ZM6.24997 2.5H23.125V6.25C23.125 6.41576 23.1908 6.57473 23.308 6.69194C23.4252 6.80915 23.5842 6.875 23.75 6.875H27.5V25.657L24.9548 30H6.24997V26.7959C6.68266 26.6845 7.07754 26.4591 7.39346 26.1431C7.70938 25.8271 7.93477 25.4322 8.04614 24.9995C8.08746 24.8389 8.06329 24.6685 7.97896 24.5258C7.89463 24.383 7.75704 24.2796 7.59646 24.2383C7.51694 24.2178 7.43418 24.2132 7.35289 24.2248C7.27161 24.2363 7.19339 24.2637 7.1227 24.3055C6.97994 24.3898 6.87652 24.5274 6.83521 24.688C6.79379 24.8487 6.72069 24.9995 6.62019 25.1316C6.51969 25.2636 6.39382 25.3743 6.24997 25.457V21.1709C6.68266 21.0595 7.07754 20.8341 7.39346 20.5181C7.70938 20.2021 7.93477 19.8072 8.04614 19.3745C8.08746 19.214 8.06329 19.0435 7.97896 18.9008C7.89463 18.758 7.75704 18.6546 7.59646 18.6133C7.43588 18.572 7.26546 18.5961 7.1227 18.6805C6.97994 18.7648 6.87652 18.9024 6.83521 19.063C6.79379 19.2237 6.72069 19.3745 6.62019 19.5066C6.51969 19.6386 6.39382 19.7493 6.24997 19.832V14.9209C6.68266 14.8095 7.07754 14.5841 7.39346 14.2681C7.70938 13.9521 7.93477 13.5572 8.04614 13.1245C8.08746 12.964 8.06329 12.7935 7.97896 12.6508C7.89463 12.508 7.75704 12.4046 7.59646 12.3633C7.43588 12.322 7.26546 12.3461 7.1227 12.4305C6.97994 12.5148 6.87652 12.6524 6.83521 12.813C6.79379 12.9737 6.72069 13.1245 6.62019 13.2566C6.51969 13.3886 6.39382 13.4993 6.24997 13.582V8.67094C6.68266 8.55951 7.07754 8.33407 7.39346 8.01811C7.70938 7.70215 7.93477 7.30724 8.04614 6.87453C8.08746 6.71395 8.06329 6.54354 7.97896 6.40077C7.89463 6.25801 7.75704 6.1546 7.59646 6.11328C7.43588 6.07197 7.26546 6.09613 7.1227 6.18047C6.97994 6.2648 6.87652 6.40239 6.83521 6.56297C6.79379 6.72367 6.72069 6.87449 6.62019 7.00655C6.51969 7.13862 6.39382 7.24928 6.24997 7.33203V2.5ZM4.37497 6.25C4.37527 6.03086 4.43316 5.81565 4.54286 5.62595C4.65255 5.43624 4.81019 5.27871 4.99997 5.16914V7.33086C4.81019 7.22129 4.65255 7.06376 4.54286 6.87405C4.43316 6.68435 4.37527 6.46914 4.37497 6.25ZM4.37497 12.5C4.37527 12.2809 4.43316 12.0657 4.54286 11.8759C4.65255 11.6862 4.81019 11.5287 4.99997 11.4191V13.5809C4.81019 13.4713 4.65255 13.3138 4.54286 13.1241C4.43316 12.9343 4.37527 12.7191 4.37497 12.5ZM4.37497 18.75C4.37527 18.5309 4.43316 18.3157 4.54286 18.1259C4.65255 17.9362 4.81019 17.7787 4.99997 17.6691V19.8309C4.81019 19.7213 4.65255 19.5638 4.54286 19.3741C4.43316 19.1843 4.37527 18.9691 4.37497 18.75ZM4.37497 24.375C4.37527 24.1559 4.43316 23.9407 4.54286 23.7509C4.65255 23.5612 4.81019 23.4037 4.99997 23.2941V25.4559C4.81019 25.3463 4.65255 25.1888 4.54286 24.9991C4.43316 24.8093 4.37527 24.5941 4.37497 24.375ZM7.49997 32.5V31.25H24.2222L23.4897 32.5H7.49997ZM23.3485 35.8028L23.9125 36.1334L23.2172 36.673L23.3485 35.8028ZM30 32.5H27.8359L30 28.8077V32.5Z" fill="#2D536E" stroke="white" stroke-width="0.2" mask="url(#path-6-inside-1)"/>
</svg>
