<svg width="40" height="40" viewBox="0 0 40 40" fill="none" xmlns="http://www.w3.org/2000/svg">
<g clip-path="url(#clip0)">
<path d="M39.4141 38.0535H37.1047V12.683C37.1047 12.3595 36.8423 12.0971 36.5187 12.0971H34.5805C34.2569 12.0971 33.9945 12.3595 33.9945 12.683C33.9945 13.0066 34.2569 13.269 34.5805 13.269H35.9328V38.0534H30.4977V13.269H32.0273C32.3509 13.269 32.6133 13.0066 32.6133 12.683C32.6133 12.3595 32.3509 12.0971 32.0273 12.0971H29.9117C29.5881 12.0971 29.3258 12.3595 29.3258 12.683V16.1973H23.3038C22.9802 16.1973 22.7179 16.4597 22.7179 16.7833V20.6024H16.6962C16.3726 20.6024 16.1102 20.8648 16.1102 21.1884V25.0075H10.0885C9.76492 25.0075 9.50258 25.2698 9.50258 25.5934V28.701H3.48125C3.15766 28.701 2.89531 28.9634 2.89531 29.287V32.7955C2.89531 33.1191 3.15766 33.3815 3.48125 33.3815C3.80484 33.3815 4.06719 33.1191 4.06719 32.7955V29.8729H9.50234V38.0534H4.06719V35.3487C4.06719 35.0251 3.80484 34.7627 3.48125 34.7627C3.15766 34.7627 2.89531 35.0251 2.89531 35.3487V38.0535H0.585938C0.262344 38.0535 0 38.3159 0 38.6395C0 38.963 0.262344 39.2254 0.585938 39.2254H39.4141C39.7377 39.2254 40 38.963 40 38.6395C40 38.3159 39.7377 38.0535 39.4141 38.0535ZM10.6745 26.1794H16.1102V38.0535H10.6745V26.1794ZM17.2821 25.5934V21.7743H22.7179V38.0535H17.2821V25.5934ZM23.8898 38.0535V21.1884V17.3692H29.3255V38.0535H23.8898Z" fill="#2D536E"/>
<path d="M4.0306 26.112C4.39724 26.112 4.74856 25.9998 5.04599 25.7884L31.4357 7.08359C31.4179 7.47242 31.5293 7.85383 31.758 8.17656C32.0297 8.55961 32.4341 8.81398 32.8936 8.89219C32.9917 8.90945 33.0925 8.9182 33.1931 8.9182C34.0526 8.9182 34.7809 8.30297 34.9246 7.45578L35.5988 3.50179C35.6776 3.03914 35.5714 2.57336 35.3 2.19039C35.0283 1.80734 34.6239 1.55297 34.1611 1.47422L30.2071 0.799996C29.7443 0.721324 29.2786 0.82734 28.8956 1.09882C28.5125 1.37047 28.2582 1.77492 28.1794 2.23797C28.0295 3.11945 28.5675 3.96273 29.4027 4.2157L19.4917 11.2402C19.2276 11.4273 19.1653 11.793 19.3524 12.057C19.5395 12.3211 19.9052 12.3834 20.1693 12.1963L31.2185 4.36507C31.4118 4.22804 31.5036 3.98797 31.451 3.75695C31.3984 3.52586 31.2117 3.34929 30.9781 3.30945L29.814 3.11109C29.4955 3.05648 29.2805 2.75297 29.3347 2.43453C29.3609 2.28023 29.4457 2.14539 29.5734 2.05492C29.7011 1.96445 29.8564 1.92922 30.0101 1.95531L33.9642 2.62953C34.1186 2.65578 34.2533 2.74054 34.3439 2.86828C34.4343 2.99586 34.4697 3.15101 34.4435 3.305L33.7692 7.25937C33.7213 7.54156 33.4789 7.7464 33.193 7.7464C33.1604 7.7464 33.1282 7.74359 33.0936 7.73758C32.9393 7.71133 32.8045 7.62656 32.7139 7.49883C32.6235 7.37125 32.5881 7.21609 32.6143 7.06203L32.8128 5.89711C32.8525 5.66351 32.7477 5.4289 32.5472 5.30273C32.3466 5.17656 32.0897 5.18359 31.8964 5.3207L4.36763 24.8328C4.26896 24.903 4.15247 24.9401 4.0306 24.9401C3.83771 24.9401 3.66286 24.8499 3.55169 24.6935C3.36474 24.4297 3.42739 24.063 3.69138 23.8759L17.6156 14.0063C17.8796 13.8192 17.9419 13.4535 17.7548 13.1895C17.5677 12.9255 17.202 12.863 16.9379 13.0502L3.01372 22.9198C2.6306 23.1912 2.37607 23.5957 2.297 24.0587C2.21794 24.5218 2.32396 24.9879 2.59607 25.3719C2.92567 25.8353 3.46192 26.112 4.0306 26.112Z" fill="#2CC140"/>
</g>
<defs>
<clipPath id="clip0">
<rect width="40" height="40" fill="white"/>
</clipPath>
</defs>
</svg>
