<svg width="50" height="50" viewBox="0 0 50 50" fill="none" xmlns="http://www.w3.org/2000/svg">
<path d="M40.625 29.6875H39.0625V27.3438C39.0625 26.0494 40.1119 25 41.4062 25C42.2691 25 42.9688 24.3004 42.9688 23.4375V22.6562C42.9688 21.7934 42.2691 21.0938 41.4062 21.0938H39.0625C38.1996 21.0938 37.5 21.7934 37.5 22.6562V23.4375H35.9375V22.6562C35.9375 20.9305 37.3367 19.5312 39.0625 19.5312H41.4062C43.132 19.5312 44.5312 20.9305 44.5312 22.6562V23.4375C44.5312 25.1633 43.132 26.5625 41.4062 26.5625C40.9748 26.5625 40.625 26.9123 40.625 27.3438V29.6875Z" fill="#313643"/>
<path d="M39.0625 31.25H40.625V32.8125H39.0625V31.25Z" fill="#313643"/>
<path d="M9.37463 20.6359L7.25977 18.521L8.3645 17.4163L9.37463 18.4264L14.291 13.51L15.3958 14.6147L9.37463 20.6359Z" fill="#313643"/>
<path d="M46.875 45.3125H45.3125V43.75H43.75V42.1875H46.875V45.3125Z" fill="#313643"/>
<path d="M50 25.7812C49.992 20.48 45.9103 16.0755 40.625 15.6647V0H0V44.5312C0.00343322 47.5502 2.4498 49.9966 5.46875 50H44.5312C47.5502 49.9966 49.9966 47.5502 50 44.5312V39.0625H40.625V35.8978C45.9103 35.487 49.992 31.0825 50 25.7812ZM5.46875 48.4375C3.3123 48.4348 1.56517 46.6877 1.5625 44.5312V1.5625H39.0625V15.6647C33.7711 16.0652 29.6818 20.4754 29.6818 25.782C29.6818 31.0886 33.7711 35.4988 39.0625 35.8994V44.5312C39.0621 46.0026 39.6568 47.4117 40.7116 48.4375H5.46875ZM48.4375 40.625V44.5312C48.4375 46.6885 46.6885 48.4375 44.5312 48.4375C42.374 48.4375 40.625 46.6885 40.625 44.5312V40.625H48.4375ZM39.8438 34.375C35.0975 34.375 31.25 30.5275 31.25 25.7812C31.25 21.035 35.0975 17.1875 39.8438 17.1875C44.59 17.1875 48.4375 21.035 48.4375 25.7812C48.4318 30.5252 44.5877 34.3693 39.8438 34.375Z" fill="#313643"/>
<path d="M7.03125 4.6875H33.5938V6.25H7.03125V4.6875Z" fill="#313643"/>
<path d="M7.03125 9.375H33.5938V10.9375H7.03125V9.375Z" fill="#313643"/>
<path d="M4.6875 23.4375H14.0625V14.0625H4.6875V23.4375ZM6.25 15.625H12.5V21.875H6.25V15.625Z" fill="#313643"/>
<path d="M4.6875 34.375H14.0625V25H4.6875V34.375ZM6.25 26.5625H12.5V32.8125H6.25V26.5625Z" fill="#313643"/>
<path d="M4.6875 45.3125H14.0625V35.9375H4.6875V45.3125ZM6.25 37.5H12.5V43.75H6.25V37.5Z" fill="#313643"/>
<path d="M17.1875 16.4062H28.125V17.9688H17.1875V16.4062Z" fill="#313643"/>
<path d="M17.1875 19.5312H25V21.0938H17.1875V19.5312Z" fill="#313643"/>
<path d="M17.1875 27.3438H28.125V28.9062H17.1875V27.3438Z" fill="#313643"/>
<path d="M17.1875 30.4688H25V32.0312H17.1875V30.4688Z" fill="#313643"/>
<path d="M17.1875 38.2812H28.125V39.8438H17.1875V38.2812Z" fill="#313643"/>
<path d="M17.1875 41.4062H25V42.9688H17.1875V41.4062Z" fill="#313643"/>
<path d="M48.4375 0H50V10.9375H48.4375V0Z" fill="#313643"/>
<path d="M45.3125 0H46.875V7.8125H45.3125V0Z" fill="#313643"/>
<path d="M42.1875 0H43.75V4.6875H42.1875V0Z" fill="#313643"/>
</svg>
