<svg width="176" height="150" viewBox="0 0 176 150" fill="none" xmlns="http://www.w3.org/2000/svg">
<g opacity="0.1" clip-path="url(#clip0)">
<path d="M1.78067 77.727C12.806 85.9155 25.0664 92.2635 37.9948 96.6027C50.9232 100.942 64.5679 103.429 78.3078 103.998C85.1536 104.204 92.0594 104.048 98.9285 103.217C105.743 102.488 112.624 101.138 119.257 99.2631C132.469 95.6165 145.318 89.6783 156.198 81.2565C156.674 80.8521 156.74 80.2308 156.39 79.6521C156.088 79.2301 155.467 79.1642 154.997 79.3093C142.975 85.4218 130.662 90.5937 117.866 94.1978C111.444 95.9215 104.925 97.3316 98.364 98.3255C91.8026 99.3195 85.0961 99.8431 78.4013 99.848C64.9516 100.22 51.6029 98.4141 38.7712 94.3886C25.9395 90.363 13.6733 84.2743 3.11833 75.9407C2.65967 75.5671 1.92997 75.7063 1.55637 76.165C1.18276 76.6237 1.32202 77.3534 1.78067 77.727Z" fill="#4B4E6B"/>
<path d="M158.887 95.5377C159.609 93.4262 160.639 91.4773 161.724 89.4258C162.753 87.4769 163.94 85.4797 165.278 83.6934C166.513 81.8529 167.953 80.1209 169.393 78.3888C170.936 76.711 172.425 75.1357 174.016 73.6146C174.811 72.8541 174.841 71.5573 174.08 70.7617C173.724 70.4423 173.314 70.2255 172.952 70.1655L172.59 70.1054L166.642 69.193C164.676 68.9411 162.71 68.6893 160.641 68.3832C158.674 68.1313 156.654 67.982 154.633 67.8327C152.558 67.786 150.586 67.7935 148.505 68.0061C147.83 68.0428 147.402 68.604 147.439 69.2795C147.481 69.6956 147.735 69.9608 148.042 70.1234C149.889 71.0992 151.898 71.7672 153.858 72.2784C155.819 72.7896 157.833 73.1983 159.902 73.5044C161.869 73.7562 163.992 73.9597 166.013 74.109C168.033 74.2583 170.108 74.3051 172.183 74.3518L170.86 70.8968C169.365 72.7314 168.076 74.6745 166.787 76.6175C165.497 78.5606 164.311 80.5578 163.124 82.5551C161.937 84.5523 160.853 86.6038 159.823 88.5527C158.739 90.6041 157.757 92.7098 156.83 94.7129C156.559 95.2257 156.855 95.9071 157.368 96.1781C157.881 96.4491 158.562 96.1531 158.887 95.5377Z" fill="#4B4E6B"/>
</g>
<defs>
<clipPath id="clip0">
<rect width="151.4" height="88.2878" fill="white" transform="matrix(0.884131 0.467239 0.467239 -0.884131 0.255859 78.6277)"/>
</clipPath>
</defs>
</svg>
