<svg width="176" height="149" viewBox="0 0 176 149" fill="none" xmlns="http://www.w3.org/2000/svg">
<g opacity="0.1" clip-path="url(#clip0)">
<path d="M1.52481 71.6407C12.5501 63.4522 24.8105 57.1041 37.7389 52.765C50.6673 48.4259 64.3121 45.9389 78.052 45.37C84.8977 45.1639 91.8035 45.3198 98.6726 46.1511C105.488 46.8799 112.368 48.2299 119.001 50.1045C132.213 53.7511 145.062 59.6894 155.942 68.1111C156.419 68.5156 156.484 69.1369 156.134 69.7156C155.832 70.1376 155.211 70.2035 154.741 70.0584C142.719 63.9458 130.406 58.7739 117.611 55.1699C111.188 53.4462 104.669 52.0361 98.1081 51.0421C91.5467 50.0482 84.8402 49.5246 78.1454 49.5196C64.6957 49.1479 51.347 50.9535 38.5153 54.9791C25.6837 59.0046 13.4174 65.0934 2.86247 73.427C2.40381 73.8006 1.67412 73.6613 1.30051 73.2027C0.9269 72.744 1.06616 72.0143 1.52481 71.6407Z" fill="#4B4E6B"/>
<path d="M158.631 53.83C159.354 55.9415 160.384 57.8904 161.468 59.9419C162.498 61.8907 163.684 63.888 165.022 65.6743C166.257 67.5147 167.697 69.2468 169.137 70.9789C170.68 72.6567 172.169 74.232 173.76 75.7531C174.556 76.5136 174.585 77.8104 173.824 78.6059C173.468 78.9253 173.058 79.1422 172.696 79.2022L172.334 79.2623L166.386 80.1747C164.42 80.4265 162.454 80.6784 160.385 80.9845C158.418 81.2364 156.398 81.3857 154.377 81.535C152.302 81.5817 150.33 81.5742 148.249 81.3616C147.574 81.3249 147.146 80.7637 147.183 80.0882C147.225 79.6721 147.479 79.4069 147.786 79.2442C149.633 78.2685 151.642 77.6005 153.602 77.0893C155.563 76.5781 157.578 76.1694 159.647 75.8633C161.613 75.6115 163.736 75.4079 165.757 75.2586C167.777 75.1093 169.852 75.0626 171.927 75.0159L170.604 78.4709C169.109 76.6363 167.82 74.6932 166.531 72.7502C165.241 70.8071 164.055 68.8099 162.868 66.8126C161.681 64.8154 160.597 62.7639 159.567 60.815C158.483 58.7636 157.501 56.6579 156.574 54.6548C156.303 54.1419 156.599 53.4606 157.112 53.1896C157.625 52.9185 158.306 53.2146 158.631 53.83Z" fill="#4B4E6B"/>
</g>
<defs>
<clipPath id="clip0">
<rect width="151.4" height="88.2878" fill="white" transform="translate(0 70.74) rotate(-27.8552)"/>
</clipPath>
</defs>
</svg>
