<svg width="50" height="50" viewBox="0 0 50 50" fill="none" xmlns="http://www.w3.org/2000/svg">
<path d="M38.7104 12.9032C42.2677 12.9032 45.162 10.0089 45.162 6.45161C45.162 2.89435 42.2677 0 38.7104 0C35.1531 0 32.2588 2.89435 32.2588 6.45161C32.2588 10.0089 35.1531 12.9032 38.7104 12.9032ZM38.7104 1.6129C41.379 1.6129 43.5491 3.78306 43.5491 6.45161C43.5491 9.12016 41.379 11.2903 38.7104 11.2903C36.0419 11.2903 33.8717 9.12016 33.8717 6.45161C33.8717 3.78306 36.0419 1.6129 38.7104 1.6129Z" fill="#313643"/>
<path d="M44.3548 11.2903V12.9032C45.6887 12.9032 46.7742 13.9887 46.7742 15.3225V24.1935H44.3548V16.129H42.7419V24.1935H34.6774V16.129H33.0645V24.1935H30.6451V15.3225C30.6451 13.9887 31.7306 12.9032 33.0645 12.9032V11.2903C30.8411 11.2903 29.0322 13.0992 29.0322 15.3225V25.8064H48.3871V15.3225C48.3871 13.0992 46.5782 11.2903 44.3548 11.2903Z" fill="#313643"/>
<path d="M5.64554 20.9678H21.7746C23.998 20.9678 25.8068 19.1589 25.8068 16.9355V9.97583L31.5923 3.22583H5.64554C3.42215 3.22583 1.61328 5.0347 1.61328 7.25809V16.9355C1.61328 19.1589 3.42215 20.9678 5.64554 20.9678ZM3.22618 7.25809C3.22618 5.92422 4.31167 4.83873 5.64554 4.83873H28.0859L24.1939 9.37906V16.9355C24.1939 18.2694 23.1084 19.3549 21.7746 19.3549H5.64554C4.31167 19.3549 3.22618 18.2694 3.22618 16.9355V7.25809Z" fill="#313643"/>
<path d="M22.5807 16.1292H20.9678V17.7421H22.5807V16.1292Z" fill="#313643"/>
<path d="M19.355 16.1292H4.83887V17.7421H19.355V16.1292Z" fill="#313643"/>
<path d="M22.5808 12.9033H4.83887V14.5162H22.5808V12.9033Z" fill="#313643"/>
<path d="M22.5806 9.67749H8.06445V11.2904H22.5806V9.67749Z" fill="#313643"/>
<path d="M6.45177 9.67749H4.83887V11.2904H6.45177V9.67749Z" fill="#313643"/>
<path d="M22.5808 6.45166H4.83887V8.06456H22.5808V6.45166Z" fill="#313643"/>
<path d="M4.83887 30.6452C4.83887 34.2025 7.73322 37.0968 11.2905 37.0968C14.8477 37.0968 17.7421 34.2025 17.7421 30.6452C17.7421 27.088 14.8477 24.1936 11.2905 24.1936C7.73322 24.1936 4.83887 27.088 4.83887 30.6452ZM16.1292 30.6452C16.1292 33.3138 13.959 35.4839 11.2905 35.4839C8.62193 35.4839 6.45177 33.3138 6.45177 30.6452C6.45177 27.9767 8.62193 25.8065 11.2905 25.8065C13.959 25.8065 16.1292 27.9767 16.1292 30.6452Z" fill="#313643"/>
<path d="M16.9359 35.4839V37.0968C18.2697 37.0968 19.3552 38.1823 19.3552 39.5161V48.3871H16.9359V40.3226H15.323V48.3871H7.25844V40.3226H5.64554V48.3871H3.22618V39.5161C3.22618 38.1823 4.31167 37.0968 5.64554 37.0968V35.4839C3.42215 35.4839 1.61328 37.2928 1.61328 39.5161V50H20.9681V39.5161C20.9681 37.2928 19.1592 35.4839 16.9359 35.4839Z" fill="#313643"/>
<path d="M44.355 27.4194H18.4082L24.1937 34.1694V41.1291C24.1937 43.3525 26.0026 45.1614 28.2259 45.1614H44.355C46.5784 45.1614 48.3872 43.3525 48.3872 41.1291V31.4517C48.3872 29.2283 46.5784 27.4194 44.355 27.4194ZM46.7743 41.1291C46.7743 42.463 45.6889 43.5485 44.355 43.5485H28.2259C26.8921 43.5485 25.8066 42.463 25.8066 41.1291V33.5727L21.9147 29.0323H44.355C45.6889 29.0323 46.7743 30.1178 46.7743 31.4517V41.1291Z" fill="#313643"/>
<path d="M41.936 40.3225H27.4199V41.9354H41.936V40.3225Z" fill="#313643"/>
<path d="M45.1617 40.3225H43.5488V41.9354H45.1617V40.3225Z" fill="#313643"/>
<path d="M45.1619 37.0967H27.4199V38.7096H45.1619V37.0967Z" fill="#313643"/>
<path d="M29.0328 33.8708H27.4199V35.4838H29.0328V33.8708Z" fill="#313643"/>
<path d="M45.1616 33.8708H30.6455V35.4838H45.1616V33.8708Z" fill="#313643"/>
<path d="M45.1619 30.6453H27.4199V32.2582H45.1619V30.6453Z" fill="#313643"/>
</svg>
