<svg width="1920" height="730" viewBox="0 0 1920 730" fill="none" xmlns="http://www.w3.org/2000/svg">
<g filter="url(#filter0_d)">
<path d="M0 36.0611C0 36.0611 15.6991 25 30 25C44.3009 25 60 36.0611 60 36.0611C60 36.0611 80.0601 47.1221 90 47.1221C100.06 47.1221 120 36.0611 120 36.0611C120 36.0611 140.059 25 150 25C160.06 25 180 36.0611 180 36.0611C180 36.0611 200.058 47.1221 210 47.1221C220.059 47.1221 240 36.0611 240 36.0611C240 36.0611 260.057 25 270 25C280.057 25 300 36.0611 300 36.0611C300 36.0611 320.055 47.1221 330 47.1221C340.055 47.1221 360 36.0611 360 36.0611C360 36.0611 380.053 25 390 25C400.052 25 420 36.0611 420 36.0611C420 36.0611 440.05 47.1221 450 47.1221C460.049 47.1221 480 36.0611 480 36.0611C480 36.0611 500.047 25 510 25C520.046 25 540 36.0611 540 36.0611C540 36.0611 560.043 47.1221 570 47.1221C580.042 47.1221 600 36.0611 600 36.0611C600 36.0611 620.038 25 630 25C640.037 25 660 36.0611 660 36.0611C660 36.0611 680.033 47.1221 690 47.1221C700.032 47.1221 720 36.0611 720 36.0611C720 36.0611 740.028 25 750 25C760.026 25 780 36.0611 780 36.0611C780 36.0611 800.021 47.1221 810 47.1221C820.019 47.1221 840 36.0611 840 36.0611C840 36.0611 860.015 25 870 25C880.013 25 900 36.0611 900 36.0611C900 36.0611 920.008 47.1221 930 47.1221C940.006 47.1221 960 36.0611 960 36.0611C960 36.0611 980.001 25 990 25C999.999 25 1020 36.0611 1020 36.0611C1020 36.0611 1039.99 47.1221 1050 47.1221C1059.99 47.1221 1080 36.0611 1080 36.0611C1080 36.0611 1099.99 25 1110 25C1119.99 25 1140 36.0611 1140 36.0611C1140 36.0611 1159.98 47.1221 1170 47.1221C1179.98 47.1221 1200 36.0611 1200 36.0611C1200 36.0611 1219.97 25 1230 25C1239.97 25 1260 36.0611 1260 36.0611C1260 36.0611 1279.97 47.1221 1290 47.1221C1299.97 47.1221 1320 36.0611 1320 36.0611C1320 36.0611 1339.96 25 1350 25C1359.96 25 1380 36.0611 1380 36.0611C1380 36.0611 1399.96 47.1221 1410 47.1221C1419.96 47.1221 1440 36.0611 1440 36.0611C1440 36.0611 1460.45 25 1470.5 25C1480.45 25 1500 36.0611 1500 36.0611C1500 36.0611 1519.95 47.1221 1530 47.1221C1539.95 47.1221 1560 36.0611 1560 36.0611C1560 36.0611 1579.95 25 1590 25C1599.95 25 1620 36.0611 1620 36.0611C1620 36.0611 1639.95 47.1221 1650 47.1221C1659.94 47.1221 1680 36.0611 1680 36.0611C1680 36.0611 1699.94 25 1710 25C1719.94 25 1740 36.0611 1740 36.0611C1740 36.0611 1759.94 47.1221 1770 47.1221C1779.94 47.1221 1800 36.0611 1800 36.0611C1800 36.0611 1820.44 25 1830.5 25C1840.44 25 1860 36.0611 1860 36.0611C1860 36.0611 1879.94 47.1221 1890 47.1221C1899.94 47.1221 1920 36.0611 1920 36.0611V682H0V36.0611Z" fill="white"/>
</g>
<g filter="url(#filter1_d)">
<path d="M1920 693.939C1920 693.939 1904.3 705 1890 705C1875.7 705 1860 693.939 1860 693.939C1860 693.939 1839.94 682.878 1830 682.878C1819.94 682.878 1800 693.939 1800 693.939C1800 693.939 1779.94 705 1770 705C1759.94 705 1740 693.939 1740 693.939C1740 693.939 1719.94 682.878 1710 682.878C1699.94 682.878 1680 693.939 1680 693.939C1680 693.939 1659.94 705 1650 705C1639.94 705 1620 693.939 1620 693.939C1620 693.939 1599.94 682.878 1590 682.878C1579.95 682.878 1560 693.939 1560 693.939C1560 693.939 1539.95 705 1530 705C1519.95 705 1500 693.939 1500 693.939C1500 693.939 1479.95 682.878 1470 682.878C1459.95 682.878 1440 693.939 1440 693.939C1440 693.939 1419.95 705 1410 705C1399.95 705 1380 693.939 1380 693.939C1380 693.939 1359.96 682.878 1350 682.878C1339.96 682.878 1320 693.939 1320 693.939C1320 693.939 1299.96 705 1290 705C1279.96 705 1260 693.939 1260 693.939C1260 693.939 1239.97 682.878 1230 682.878C1219.97 682.878 1200 693.939 1200 693.939C1200 693.939 1179.97 705 1170 705C1159.97 705 1140 693.939 1140 693.939C1140 693.939 1119.98 682.878 1110 682.878C1099.98 682.878 1080 693.939 1080 693.939C1080 693.939 1059.99 705 1050 705C1039.99 705 1020 693.939 1020 693.939C1020 693.939 999.992 682.878 990 682.878C979.994 682.878 960 693.939 960 693.939C960 693.939 939.999 705 930 705C920.001 705 900 693.939 900 693.939C900 693.939 880.006 682.878 870 682.878C860.008 682.878 840 693.939 840 693.939C840 693.939 820.013 705 810 705C800.015 705 780 693.939 780 693.939C780 693.939 760.019 682.878 750 682.878C740.021 682.878 720 693.939 720 693.939C720 693.939 700.026 705 690 705C680.028 705 660 693.939 660 693.939C660 693.939 640.031 682.878 630 682.878C620.033 682.878 600 693.939 600 693.939C600 693.939 580.037 705 570 705C560.038 705 540 693.939 540 693.939C540 693.939 520.042 682.878 510 682.878C500.043 682.878 480 693.939 480 693.939C480 693.939 459.546 705 449.5 705C439.547 705 420 693.939 420 693.939C420 693.939 400.049 682.878 390 682.878C380.05 682.878 360 693.939 360 693.939C360 693.939 340.052 705 330 705C320.053 705 300 693.939 300 693.939C300 693.939 280.055 682.878 270 682.878C260.055 682.878 240 693.939 240 693.939C240 693.939 220.057 705 210 705C200.057 705 180 693.939 180 693.939C180 693.939 160.058 682.878 150 682.878C140.058 682.878 120 693.939 120 693.939C120 693.939 99.5596 705 89.5 705C79.5594 705 60 693.939 60 693.939C60 693.939 40.0604 682.878 30 682.878C20.0601 682.878 9.66989e-07 693.939 9.66989e-07 693.939L1.89707e-05 488L1920 488L1920 693.939Z" fill="white"/>
</g>
<g opacity="0.05" clip-path="url(#clip0)">
<path d="M981.311 182.582C983.455 190.372 984.347 194.432 983.24 198.044C981.056 205.176 974.699 207.012 967.563 204.826C964.417 203.863 962.388 203.237 958.073 198.995C958.073 198.995 955.68 194.934 947.803 192.863C940.044 190.147 935.773 192.207 935.773 192.207C929.824 193.303 927.875 192.675 924.733 191.712C917.597 189.527 913.353 184.449 915.539 177.312C916.645 173.701 919.663 170.842 925.801 165.585C925.801 165.585 937.608 154.985 946.262 150.948C952.513 148.037 959.653 150.241 959.653 150.241L961.857 150.917L961.858 150.915C961.858 150.915 969.32 153.18 972.561 159.003C977.192 167.352 981.31 182.584 981.311 182.582ZM945.981 136.548C953.442 138.833 962.377 131.26 965.937 119.635C969.498 108.01 966.337 96.7322 958.876 94.4469C951.415 92.1617 942.481 99.7346 938.92 111.36C935.36 122.985 938.52 134.262 945.981 136.548ZM926.791 152.969C933.068 152.115 937.079 143.497 935.748 133.72C934.418 123.943 928.252 116.708 921.976 117.56C915.7 118.413 911.69 127.033 913.019 136.809C914.35 146.587 920.516 153.82 926.791 152.969ZM977.388 146.167C984.849 148.452 993.786 140.88 997.346 129.255C1000.91 117.63 997.744 106.352 990.283 104.067C982.822 101.781 973.888 109.354 970.327 120.979C966.767 132.604 969.927 143.882 977.388 146.167ZM1007.91 143.879C1003.19 139.655 994.031 142.197 987.452 149.554C980.873 156.911 979.371 166.297 984.094 170.52C988.818 174.742 997.976 172.2 1004.55 164.846C1011.13 157.491 1012.64 148.103 1007.91 143.879Z" fill="#313643"/>
</g>
<defs>
<filter id="filter0_d" x="-15" y="0" width="1950" height="687" filterUnits="userSpaceOnUse" color-interpolation-filters="sRGB">
<feFlood flood-opacity="0" result="BackgroundImageFix"/>
<feColorMatrix in="SourceAlpha" type="matrix" values="0 0 0 0 0 0 0 0 0 0 0 0 0 0 0 0 0 0 127 0"/>
<feOffset dy="-10"/>
<feGaussianBlur stdDeviation="7.5"/>
<feColorMatrix type="matrix" values="0 0 0 0 0.0148264 0 0 0 0 0.0121528 0 0 0 0 0.145833 0 0 0 0.02 0"/>
<feBlend mode="normal" in2="BackgroundImageFix" result="effect1_dropShadow"/>
<feBlend mode="normal" in="SourceGraphic" in2="effect1_dropShadow" result="shape"/>
</filter>
<filter id="filter1_d" x="-15" y="483" width="1950" height="247" filterUnits="userSpaceOnUse" color-interpolation-filters="sRGB">
<feFlood flood-opacity="0" result="BackgroundImageFix"/>
<feColorMatrix in="SourceAlpha" type="matrix" values="0 0 0 0 0 0 0 0 0 0 0 0 0 0 0 0 0 0 127 0"/>
<feOffset dy="10"/>
<feGaussianBlur stdDeviation="7.5"/>
<feColorMatrix type="matrix" values="0 0 0 0 0.0148264 0 0 0 0 0.0121528 0 0 0 0 0.145833 0 0 0 0.05 0"/>
<feBlend mode="normal" in2="BackgroundImageFix" result="effect1_dropShadow"/>
<feBlend mode="normal" in="SourceGraphic" in2="effect1_dropShadow" result="shape"/>
</filter>
<clipPath id="clip0">
<rect width="103" height="103" fill="white" transform="translate(925.34 84.1757) rotate(17.0293)"/>
</clipPath>
</defs>
</svg>
